<svg width="0" height="0" class="hidden">
    <symbol fill='currentColor' xmlns="http://www.w3.org/2000/svg" xmlns:xlink="http://www.w3.org/1999/xlink" viewBox="0 0 199.7 40.3" id="arrow">
      <defs>
        <path id="a" d="M131.1 0h68.6v40.3h-68.6z"></path>
      </defs>
      <clipPath id="b">
        <use xlink:href="#a" overflow="visible"></use>
      </clipPath>
      <g clip-path="url(#b)">
        <path
          d="M176.3 3.2c.9 0 1.6-.7 1.6-1.6 0-.9-.7-1.6-1.6-1.6-.9 0-1.6.7-1.6 1.6 0 .9.7 1.6 1.6 1.6zm0 4.7c.9 0 1.6-.7 1.6-1.6 0-.9-.7-1.6-1.6-1.6-.9 0-1.6.7-1.6 1.6 0 .8.7 1.6 1.6 1.6zm7-1.7c0 .3-.1.6-.3.9-.2.3-.4.5-.7.6-.3.1-.6.2-.9.1-.3-.1-.6-.2-.8-.4-.2-.2-.4-.5-.4-.8-.1-.3 0-.6.1-.9.1-.3.3-.6.6-.7.3-.2.6-.3.9-.3.4 0 .8.2 1.1.5.3.2.4.6.4 1zm-50.6 6.3c.9 0 1.6-.7 1.6-1.6 0-.9-.7-1.6-1.6-1.6-.9 0-1.6.7-1.6 1.6 0 .9.7 1.6 1.6 1.6zm5.4 0c.9 0 1.6-.7 1.6-1.6 0-.9-.7-1.6-1.6-1.6-.9 0-1.6.7-1.6 1.6 0 .9.8 1.6 1.6 1.6zm7.1-1.6c0 .3-.1.6-.3.9-.2.3-.4.5-.7.6-.3.1-.6.2-.9.1-.3-.1-.6-.2-.8-.4-.2-.2-.4-.5-.4-.8-.1-.3 0-.6.1-.9s.3-.5.6-.7c.3-.2.6-.3.9-.3.2 0 .4 0 .6.1.2.1.4.2.5.4.1.2.3.3.3.5.1.1.1.3.1.5zm5.5 0c0 .3-.1.6-.3.9-.2.3-.4.5-.7.6-.3.1-.6.2-.9.1-.3-.1-.6-.2-.8-.5-.2-.2-.4-.5-.4-.8-.1-.3 0-.6.1-.9.1-.3.3-.5.6-.7.3-.2.6-.3.9-.2.4 0 .8.2 1.1.5.2.2.4.6.4 1zm5.4 0c0 .3-.1.6-.3.9-.2.3-.4.5-.7.6s-.6.2-.9.1c-.3-.1-.6-.2-.8-.4-.2-.2-.4-.5-.4-.8-.1-.3 0-.6.1-.9.1-.3.3-.5.6-.7.3-.2.6-.3.9-.3.2 0 .4 0 .6.1.2.1.4.2.5.4.1.2.3.3.3.5 0 .1.1.3.1.5zm3.8 1.6c.9 0 1.6-.7 1.6-1.6 0-.9-.7-1.6-1.6-1.6-.9 0-1.6.7-1.6 1.6 0 .9.7 1.6 1.6 1.6zm5.5 0c.9 0 1.6-.7 1.6-1.6 0-.9-.7-1.6-1.6-1.6-.9 0-1.6.7-1.6 1.6 0 .9.7 1.6 1.6 1.6zm5.4 0c.9 0 1.6-.7 1.6-1.6 0-.9-.7-1.6-1.6-1.6-.9 0-1.6.7-1.6 1.6 0 .9.7 1.6 1.6 1.6zm5.5 0c.9 0 1.6-.7 1.6-1.6 0-.9-.7-1.6-1.6-1.6-.9 0-1.6.7-1.6 1.6 0 .9.7 1.6 1.6 1.6zm7-1.6c0 .3-.1.6-.3.9-.2.3-.4.5-.7.6s-.6.2-.9.1c-.3-.1-.6-.2-.8-.4-.2-.2-.4-.5-.4-.8-.1-.3 0-.6.1-.9.1-.3.3-.5.6-.7.3-.2.6-.3.9-.3.4 0 .8.2 1.1.5.3.2.4.6.4 1zm3.9 1.6c.9 0 1.6-.7 1.6-1.6 0-.9-.7-1.6-1.6-1.6-.9 0-1.6.7-1.6 1.6 0 .9.7 1.6 1.6 1.6zm-54.5 4.6c.9 0 1.6-.7 1.6-1.6 0-.9-.7-1.6-1.6-1.6-.9 0-1.6.7-1.6 1.6 0 .9.7 1.6 1.6 1.6zm5.4 0c.9 0 1.6-.7 1.6-1.6 0-.9-.7-1.6-1.6-1.6-.9 0-1.6.7-1.6 1.6 0 .9.8 1.6 1.6 1.6zm7.1-1.6c0 .3-.1.6-.3.9-.2.3-.4.5-.7.6-.3.1-.6.2-.9.1-.3-.1-.6-.2-.8-.4-.2-.2-.4-.5-.4-.8-.1-.3 0-.6.1-.9s.3-.5.6-.7c.3-.2.6-.3.9-.3.2 0 .4 0 .6.1.2.1.4.2.5.4.1.2.3.3.3.5.1.1.1.3.1.5zm5.5 0c0 .3-.1.6-.3.9-.2.3-.4.5-.7.6-.3.1-.6.2-.9.1-.3-.1-.6-.2-.8-.5-.2-.2-.4-.5-.4-.8-.1-.3 0-.6.1-.9.1-.3.3-.5.6-.7.3-.2.6-.3.9-.2.4 0 .8.2 1.1.5.2.2.4.6.4 1zm5.4 0c0 .3-.1.6-.3.9-.2.3-.4.5-.7.6-.3.1-.6.2-.9.1s-.6-.2-.8-.4c-.2-.2-.4-.5-.4-.8-.1-.3 0-.6.1-.9.1-.3.3-.5.6-.7.3-.2.6-.3.9-.3.2 0 .4 0 .6.1.2.1.4.2.5.4.2.2.3.3.4.5-.1.1 0 .3 0 .5zm3.8 1.6c.9 0 1.6-.7 1.6-1.6 0-.9-.7-1.6-1.6-1.6-.9 0-1.6.7-1.6 1.6 0 .9.7 1.6 1.6 1.6zm5.5 0c.9 0 1.6-.7 1.6-1.6 0-.9-.7-1.6-1.6-1.6-.9 0-1.6.7-1.6 1.6 0 .9.7 1.6 1.6 1.6zm5.4 0c.9 0 1.6-.7 1.6-1.6 0-.9-.7-1.6-1.6-1.6-.9 0-1.6.7-1.6 1.6 0 .9.7 1.6 1.6 1.6zm5.5 0c.9 0 1.6-.7 1.6-1.6 0-.9-.7-1.6-1.6-1.6-.9 0-1.6.7-1.6 1.6 0 .9.7 1.6 1.6 1.6zm7-1.6c0 .3-.1.6-.3.9-.2.3-.4.5-.7.6s-.6.2-.9.1c-.3-.1-.6-.2-.8-.4-.2-.2-.4-.5-.4-.8-.1-.3 0-.6.1-.9s.3-.5.6-.7c.3-.2.6-.3.9-.3.4 0 .8.2 1.1.5.3.2.4.6.4 1zm3.9 1.6c.9 0 1.6-.7 1.6-1.6 0-.9-.7-1.6-1.6-1.6-.9 0-1.6.7-1.6 1.6 0 .9.7 1.6 1.6 1.6zm7-1.6c0 .3-.1.6-.3.9-.2.3-.4.5-.7.6-.3.1-.6.2-.9.1-.3-.1-.6-.2-.8-.4-.2-.2-.4-.5-.4-.8-.1-.3 0-.6.1-.9.1-.3.3-.5.6-.7.3-.2.6-.3.9-.3.2 0 .4 0 .6.1.2.1.4.2.5.4.1.2.3.3.3.5.1.1.1.3.1.5zm-61.5 6.3c.9 0 1.6-.7 1.6-1.6 0-.9-.7-1.6-1.6-1.6-.9 0-1.6.7-1.6 1.6 0 .9.7 1.6 1.6 1.6zm5.4 0c.9 0 1.6-.7 1.6-1.6 0-.9-.7-1.6-1.6-1.6-.9 0-1.6.7-1.6 1.6 0 .9.8 1.6 1.6 1.6zm7.1-1.6c0 .3-.1.6-.3.9s-.4.5-.7.6c-.3.1-.6.2-.9.1-.3-.1-.6-.2-.8-.4-.2-.2-.4-.5-.4-.8-.1-.3 0-.6.1-.9s.3-.5.6-.7c.3-.2.6-.3.9-.3.2 0 .4 0 .6.1.2.1.4.2.5.4.1.2.3.3.3.5s.1.3.1.5zm5.5 0c0 .3-.1.6-.3.9-.2.3-.4.5-.7.6-.3.1-.6.1-.9.1-.3-.1-.6-.2-.8-.5-.2-.2-.4-.5-.4-.8-.1-.3 0-.6.1-.9.1-.3.3-.5.6-.7.3-.2.6-.3.9-.2.4 0 .8.2 1.1.5.2.2.4.6.4 1zm5.4 0c0 .3-.1.6-.3.9-.2.3-.4.5-.7.6-.3.1-.6.2-.9.1-.3-.1-.6-.2-.8-.4-.2-.2-.4-.5-.4-.8-.1-.3 0-.6.1-.9.1-.3.3-.5.6-.7.3-.2.6-.3.9-.3.2 0 .4 0 .6.1.2.1.4.2.5.4.2.2.3.3.4.5-.1.1 0 .3 0 .5zm3.8 1.6c.9 0 1.6-.7 1.6-1.6 0-.9-.7-1.6-1.6-1.6-.9 0-1.6.7-1.6 1.6 0 .9.7 1.6 1.6 1.6zm5.5 0c.9 0 1.6-.7 1.6-1.6 0-.9-.7-1.6-1.6-1.6-.9 0-1.6.7-1.6 1.6 0 .9.7 1.6 1.6 1.6zm5.4 0c.9 0 1.6-.7 1.6-1.6 0-.9-.7-1.6-1.6-1.6-.9 0-1.6.7-1.6 1.6 0 .9.7 1.6 1.6 1.6zm5.5 0c.9 0 1.6-.7 1.6-1.6 0-.9-.7-1.6-1.6-1.6-.9 0-1.6.7-1.6 1.6 0 .9.7 1.6 1.6 1.6zm7-1.6c0 .3-.1.6-.3.9-.2.3-.4.5-.7.6s-.6.2-.9.1c-.3-.1-.6-.2-.8-.4-.2-.2-.4-.5-.4-.8-.1-.3 0-.6.1-.9s.3-.5.6-.7c.3-.2.6-.3.9-.3.4 0 .8.2 1.1.5.3.1.4.6.4 1zm3.9 1.6c.9 0 1.6-.7 1.6-1.6 0-.9-.7-1.6-1.6-1.6-.9 0-1.6.7-1.6 1.6 0 .9.7 1.6 1.6 1.6zm7-1.6c0 .3-.1.6-.3.9-.2.3-.4.5-.7.6-.3.1-.6.2-.9.1-.3-.1-.6-.2-.8-.4-.2-.2-.4-.5-.4-.8-.1-.3 0-.6.1-.9.1-.3.3-.5.6-.7.3-.2.6-.3.9-.3.2 0 .4 0 .6.1.2.1.4.2.5.4.1.2.3.3.3.5.1.1.1.3.1.5zm3.9 1.6c.9 0 1.6-.7 1.6-1.6 0-.9-.7-1.6-1.6-1.6-.9 0-1.6.7-1.6 1.6 0 .9.7 1.6 1.6 1.6zm-65.4 4.6c.9 0 1.6-.7 1.6-1.6s-.7-1.6-1.6-1.6c-.9 0-1.6.7-1.6 1.6s.7 1.6 1.6 1.6zm5.4 0c.9 0 1.6-.7 1.6-1.6s-.7-1.6-1.6-1.6c-.9 0-1.6.7-1.6 1.6s.8 1.6 1.6 1.6zm7.1-1.6c0 .3-.1.6-.3.9-.2.3-.4.5-.7.6-.3.1-.6.2-.9.1-.3-.1-.6-.2-.8-.4-.2-.2-.4-.5-.4-.8-.1-.3 0-.6.1-.9.1-.3.3-.5.6-.7.3-.2.6-.3.9-.3.2 0 .4 0 .6.1.2.1.4.2.5.4.1.2.3.3.3.5.1.1.1.3.1.5zm5.5 0c0 .4-.2.8-.5 1.1-.3.3-.7.4-1.1.4-.4 0-.8-.2-1.1-.4-.3-.3-.5-.7-.5-1.1 0-.2 0-.4.1-.7s.2-.4.3-.6c.2-.2.3-.3.5-.4.2-.1.4-.1.6-.1.2 0 .4 0 .6.1.2.1.4.2.5.4.2.2.3.4.3.6.2.3.3.5.3.7zm5.4 0c0 .3-.1.6-.3.9-.2.3-.4.5-.7.6-.3.1-.6.2-.9.1-.3-.1-.6-.2-.8-.4-.2-.2-.4-.5-.4-.8-.1-.3 0-.6.1-.9.1-.3.3-.5.6-.7.3-.2.6-.3.9-.3.2 0 .4 0 .6.1.2.1.4.2.5.4.1.2.3.3.3.5s.1.3.1.5zm3.8 1.6c.9 0 1.6-.7 1.6-1.6s-.7-1.6-1.6-1.6c-.9 0-1.6.7-1.6 1.6s.7 1.6 1.6 1.6zm5.5 0c.9 0 1.6-.7 1.6-1.6s-.7-1.6-1.6-1.6c-.9 0-1.6.7-1.6 1.6s.7 1.6 1.6 1.6zm5.4 0c.9 0 1.6-.7 1.6-1.6s-.7-1.6-1.6-1.6c-.9 0-1.6.7-1.6 1.6s.7 1.6 1.6 1.6zm5.5 0c.9 0 1.6-.7 1.6-1.6s-.7-1.6-1.6-1.6c-.9 0-1.6.7-1.6 1.6s.7 1.6 1.6 1.6zm7-1.6c0 .3-.1.6-.3.9-.2.3-.4.5-.7.6-.3.1-.6.2-.9.1-.3-.1-.6-.2-.8-.4-.2-.2-.4-.5-.4-.8-.1-.3 0-.6.1-.9s.3-.5.6-.7c.3-.2.6-.3.9-.3.4 0 .8.2 1.1.5.3.2.4.6.4 1zm3.9 1.6c.9 0 1.6-.7 1.6-1.6s-.7-1.6-1.6-1.6c-.9 0-1.6.7-1.6 1.6s.7 1.6 1.6 1.6zm7-1.6c0 .4-.2.8-.5 1.1-.3.3-.7.4-1.1.4-.4 0-.8-.2-1.1-.4-.3-.3-.5-.7-.5-1.1 0-.2 0-.4.1-.7s.2-.4.3-.6c.2-.2.3-.3.5-.4.2-.1.4-.1.6-.1.2 0 .4 0 .6.1.2.1.4.2.5.4.2.2.3.4.3.6.3.3.4.5.3.7zm-61.5 6.3c.9 0 1.6-.7 1.6-1.6s-.7-1.6-1.6-1.6c-.9 0-1.6.7-1.6 1.6s.7 1.6 1.6 1.6zm5.4 0c.9 0 1.6-.7 1.6-1.6s-.7-1.6-1.6-1.6c-.9 0-1.6.7-1.6 1.6s.8 1.6 1.6 1.6zm7.1-1.6c0 .3-.1.6-.3.9-.2.3-.4.5-.7.6-.3.1-.6.2-.9.1-.3-.1-.6-.2-.8-.4-.2-.2-.4-.5-.4-.8-.1-.3 0-.6.1-.9.1-.3.3-.5.6-.7.3-.2.6-.3.9-.3.2 0 .4 0 .6.1.2.1.4.2.5.4.1.2.3.3.3.5.1 0 .1.2.1.5zm5.5 0c0 .4-.2.8-.5 1.1-.3.3-.7.4-1.1.4-.4 0-.8-.2-1.1-.4-.3-.3-.5-.7-.5-1.1 0-.2 0-.4.1-.7s.2-.4.3-.6c.2-.2.3-.3.5-.4.2-.1.4-.1.6-.1.2 0 .4 0 .6.1.2.1.4.2.5.4.2.2.3.4.3.6.2.2.3.4.3.7zm5.4 0c0 .3-.1.6-.3.9-.2.3-.4.5-.7.6-.3.1-.6.2-.9.1-.3-.1-.6-.2-.8-.4-.2-.2-.4-.5-.4-.8-.1-.3 0-.6.1-.9.1-.3.3-.5.6-.7.3-.2.6-.3.9-.3.2 0 .4 0 .6.1.2.1.4.2.5.4.2.2.3.3.4.5-.1 0 0 .2 0 .5zm3.8 1.6c.9 0 1.6-.7 1.6-1.6s-.7-1.6-1.6-1.6c-.9 0-1.6.7-1.6 1.6s.7 1.6 1.6 1.6zm5.5 0c.9 0 1.6-.7 1.6-1.6s-.7-1.6-1.6-1.6c-.9 0-1.6.7-1.6 1.6s.7 1.6 1.6 1.6zm5.4 0c.9 0 1.6-.7 1.6-1.6s-.7-1.6-1.6-1.6c-.9 0-1.6.7-1.6 1.6s.7 1.6 1.6 1.6zm5.5 0c.9 0 1.6-.7 1.6-1.6s-.7-1.6-1.6-1.6c-.9 0-1.6.7-1.6 1.6s.7 1.6 1.6 1.6zm7-1.6c0 .3-.1.6-.3.9-.2.3-.4.5-.7.6-.3.1-.6.2-.9.1-.3-.1-.6-.2-.8-.4-.2-.2-.4-.5-.4-.8-.1-.3 0-.6.1-.9s.3-.5.6-.7c.3-.2.6-.3.9-.3.4 0 .8.2 1.1.5.3.1.4.5.4 1zm3.9 1.6c.9 0 1.6-.7 1.6-1.6s-.7-1.6-1.6-1.6c-.9 0-1.6.7-1.6 1.6s.7 1.6 1.6 1.6zm-10.9 4.6c.9 0 1.6-.7 1.6-1.6s-.7-1.6-1.6-1.6c-.9 0-1.6.7-1.6 1.6s.7 1.6 1.6 1.6zm7-1.6c0 .3-.1.6-.3.9-.2.3-.4.5-.7.6-.3.1-.6.2-.9.1-.3-.1-.6-.2-.8-.4-.2-.2-.4-.5-.4-.8-.1-.3 0-.6.1-.9s.3-.5.6-.7c.3-.2.6-.3.9-.3.4 0 .8.2 1.1.5.3.2.4.6.4 1zm-7 6.2c.9 0 1.6-.7 1.6-1.6s-.7-1.6-1.6-1.6c-.9 0-1.6.7-1.6 1.6s.7 1.6 1.6 1.6z">
        </path>
      </g>
      <path
        d="M89.4 12.8c.9 0 1.6-.7 1.6-1.6s-.7-1.6-1.6-1.6c-.9 0-1.6.7-1.6 1.6s.7 1.6 1.6 1.6zm-43.9 0c.9 0 1.6-.7 1.6-1.6 0-.9-.7-1.6-1.6-1.6s-1.6.7-1.6 1.6c0 .9.7 1.6 1.6 1.6zm-43.9-.1c.9 0 1.6-.7 1.6-1.6s-.7-1.6-1.6-1.6-1.6.7-1.6 1.6.7 1.6 1.6 1.6zm93.3.1c.9 0 1.6-.7 1.6-1.6s-.7-1.6-1.6-1.6-1.6.7-1.6 1.6.7 1.6 1.6 1.6zm-43.9 0c.9 0 1.6-.7 1.6-1.6 0-.9-.7-1.6-1.6-1.6-.9 0-1.6.7-1.6 1.6 0 .9.7 1.6 1.6 1.6zm-43.9-.1c.9 0 1.6-.7 1.6-1.6s-.8-1.6-1.6-1.6c-.9 0-1.6.7-1.6 1.6s.7 1.6 1.6 1.6zm94.8-1.5c0 .3-.1.6-.3.9-.2.3-.4.5-.7.6-.3.1-.6.2-.9.1-.3-.1-.6-.2-.8-.4-.2-.2-.4-.5-.4-.8-.1-.3 0-.6.1-.9.1-.3.3-.5.6-.7.3-.2.6-.3.9-.3.2 0 .4 0 .6.1.2.1.4.2.5.4.2.2.3.3.3.5.1.1.1.3.1.5zm-43.9 0c0 .3-.1.6-.3.9-.2.3-.4.5-.7.6-.3.1-.6.2-.9.1-.3-.1-.6-.2-.8-.4-.2-.2-.4-.5-.4-.8-.1-.3 0-.6.1-.9.1-.3.3-.5.6-.7.3-.2.6-.3.9-.3.2 0 .4 0 .6.1.2.1.4.2.5.4.1.2.3.3.3.5.1.1.1.3.1.5zm-43.9-.1c0 .3-.1.6-.3.9-.2.3-.4.5-.7.6-.3.1-.6.2-.9.1-.3-.1-.6-.2-.8-.4-.2-.2-.4-.5-.4-.8-.1-.3 0-.6.1-.9.1-.3.3-.5.6-.7.3-.2.6-.3.9-.3.2 0 .4 0 .6.1.2.1.4.2.5.4.1.2.3.3.3.5.1.1.1.3.1.5zm93.3.1c0 .3-.1.6-.3.9s-.4.5-.7.6c-.3.1-.6.2-.9.1-.3-.1-.6-.2-.8-.5-.2-.2-.4-.5-.4-.8-.1-.3 0-.6.1-.9.1-.3.3-.5.6-.7.3-.2.6-.3.9-.2.4 0 .8.2 1.1.5.2.2.4.6.4 1zm-43.9 0c0 .3-.1.6-.3.9-.2.3-.4.5-.7.6-.3.1-.6.2-.9.1-.3-.1-.6-.2-.8-.5-.2-.2-.4-.5-.4-.8-.1-.3 0-.6.1-.9.1-.3.3-.5.6-.7.3-.2.6-.3.9-.2.4 0 .8.2 1.1.5.2.2.4.6.4 1zm-43.9-.1c0 .3-.1.6-.3.9-.2.3-.4.5-.7.6-.3.1-.6.2-.9.1-.3-.1-.6-.2-.8-.5-.2-.2-.4-.5-.4-.8-.1-.3 0-.6.1-.9.1-.3.3-.5.6-.7.3-.2.6-.3.9-.2.4 0 .8.2 1.1.5.2.2.4.6.4 1zm93.2.1c0 .3-.1.6-.3.9-.2.3-.4.5-.7.6-.3.1-.6.2-.9.1-.3-.1-.6-.2-.8-.4-.2-.2-.4-.5-.4-.8-.1-.3 0-.6.1-.9.1-.3.3-.5.6-.7.3-.2.6-.3.9-.3.2 0 .4 0 .6.1.2.1.4.2.5.4.1.2.3.3.3.5.1.1.1.3.1.5zm-43.9 0c0 .3-.1.6-.3.9-.2.3-.4.5-.7.6-.3.1-.6.2-.9.1-.3-.1-.6-.2-.8-.4-.2-.2-.4-.5-.4-.8s0-.6.1-.9c.1-.3.3-.5.6-.7.3-.2.6-.3.9-.3.2 0 .4 0 .6.1.2.1.4.2.5.4.1.2.3.3.3.5.1.1.1.3.1.5zM25 11.1c0 .3-.1.6-.3.9-.2.3-.4.5-.7.6-.3.1-.6.2-.9.1-.3-.1-.6-.2-.8-.4-.2-.2-.4-.5-.4-.8-.1-.3 0-.6.1-.9.1-.3.3-.5.6-.7.3-.2.6-.3.9-.3.2 0 .4 0 .6.1.2.1.4.2.5.4.1.2.3.3.3.5.1.1.1.3.1.5zm91.7 1.7c.9 0 1.6-.7 1.6-1.6s-.7-1.6-1.6-1.6-1.6.7-1.6 1.6.7 1.6 1.6 1.6zm-43.9 0c.9 0 1.6-.7 1.6-1.6 0-.9-.7-1.6-1.6-1.6-.9 0-1.6.7-1.6 1.6-.1.9.7 1.6 1.6 1.6zm-44-.1c.9 0 1.6-.7 1.6-1.6s-.7-1.6-1.6-1.6c-.9 0-1.6.7-1.6 1.6s.8 1.6 1.6 1.6zm93.3.1c.9 0 1.6-.7 1.6-1.6s-.7-1.6-1.6-1.6c-.9 0-1.6.7-1.6 1.6s.7 1.6 1.6 1.6zm-43.9 0c.9 0 1.6-.7 1.6-1.6 0-.9-.7-1.6-1.6-1.6-.9 0-1.6.7-1.6 1.6 0 .9.7 1.6 1.6 1.6zm-43.9-.1c.9 0 1.6-.7 1.6-1.6s-.7-1.6-1.6-1.6c-.9 0-1.6.7-1.6 1.6s.7 1.6 1.6 1.6zm93.3.1c.9 0 1.6-.7 1.6-1.6s-.7-1.6-1.6-1.6c-.9 0-1.6.7-1.6 1.6s.7 1.6 1.6 1.6zm-43.9 0c.9 0 1.6-.7 1.6-1.6 0-.9-.7-1.6-1.6-1.6-.9 0-1.6.7-1.6 1.6-.1.9.7 1.6 1.6 1.6zm-43.9-.1c.9 0 1.6-.7 1.6-1.6s-.7-1.6-1.6-1.6c-.9 0-1.6.7-1.6 1.6s.7 1.6 1.6 1.6zm49.6 4.8c.9 0 1.6-.7 1.6-1.6s-.7-1.6-1.6-1.6-1.6.7-1.6 1.6.7 1.6 1.6 1.6zm-43.9-.1c.9 0 1.6-.7 1.6-1.6 0-.9-.7-1.6-1.6-1.6-.9 0-1.6.7-1.6 1.6 0 .9.7 1.6 1.6 1.6zm-43.9 0c.9 0 1.6-.7 1.6-1.6 0-.9-.7-1.6-1.6-1.6-.9 0-1.6.7-1.6 1.6 0 .9.7 1.6 1.6 1.6zm93.3.1c.9 0 1.6-.7 1.6-1.6s-.7-1.6-1.6-1.6-1.6.7-1.6 1.6.7 1.6 1.6 1.6zM51 17.4c.9 0 1.6-.7 1.6-1.6 0-.9-.7-1.6-1.6-1.6-.9 0-1.6.7-1.6 1.6 0 .9.7 1.6 1.6 1.6zm-43.9 0c.9 0 1.6-.7 1.6-1.6 0-.9-.7-1.6-1.6-1.6-.9 0-1.6.7-1.6 1.6 0 .9.7 1.6 1.6 1.6zm94.8-1.5c0 .3-.1.6-.3.9-.2.3-.4.5-.7.6-.3.1-.6.2-.9.1-.3-.1-.6-.2-.8-.4-.2-.2-.4-.5-.4-.8-.1-.3 0-.6.1-.9.1-.3.3-.5.6-.7.3-.2.6-.3.9-.3.2 0 .4 0 .6.1.2.1.4.2.5.4.2.2.3.3.3.5.1.1.1.3.1.5zM58 15.8c0 .3-.1.6-.3.9-.2.3-.4.5-.7.6-.3.1-.6.2-.9.1-.3-.1-.6-.2-.8-.4-.2-.2-.4-.5-.4-.8-.1-.3 0-.6.1-.9.1-.3.3-.5.6-.7.3-.2.6-.3.9-.3.2 0 .4 0 .6.1.2.1.4.2.5.4.1.2.3.3.3.5.1.1.1.3.1.5zm-43.9 0c0 .3-.1.6-.3.9-.2.3-.4.5-.7.6-.3.1-.6.2-.9.1-.3-.1-.6-.2-.8-.4-.2-.2-.4-.5-.4-.8-.1-.3 0-.6.1-.9.1-.3.3-.5.6-.7.3-.2.6-.3.9-.3.2 0 .4 0 .6.1.2.1.4.2.5.4.1.2.3.3.3.5.1 0 .1.3.1.5zm93.3.1c0 .3-.1.6-.3.9s-.4.5-.7.6c-.3.1-.6.2-.9.1-.3-.1-.6-.2-.8-.5-.2-.2-.4-.5-.4-.8-.1-.3 0-.6.1-.9.1-.3.3-.5.6-.7.3-.2.6-.3.9-.2.4 0 .8.2 1.1.5.2.1.4.6.4 1zm-43.9-.1c0 .3-.1.6-.3.9-.2.3-.4.5-.7.6-.3.1-.6.1-.9.1-.3-.1-.6-.2-.8-.5-.2-.2-.4-.5-.4-.8-.1-.3 0-.6.1-.9.1-.3.3-.5.6-.7.3-.2.6-.3.9-.2.4 0 .8.2 1.1.5.2.2.4.6.4 1zm-43.9 0c0 .3-.1.6-.3.9-.2.3-.4.5-.7.6s-.6.2-.9.1c-.3-.1-.6-.2-.8-.5-.2-.2-.4-.5-.4-.8-.1-.3 0-.6.1-.9.1-.3.3-.5.6-.7.3-.2.6-.3.9-.2.4 0 .8.2 1.1.5.2.1.4.5.4 1zm93.2.1c0 .3-.1.6-.3.9-.2.3-.4.5-.7.6-.3.1-.6.2-.9.1-.3-.1-.6-.2-.8-.4-.2-.2-.4-.5-.4-.8-.1-.3 0-.6.1-.9.1-.3.3-.5.6-.7.3-.2.6-.3.9-.3.2 0 .4 0 .6.1.2.1.4.2.5.4.2.2.3.3.4.5v.5zm-43.9-.1c0 .3-.1.6-.3.9-.2.3-.4.5-.7.6-.3.1-.6.2-.9.1-.3-.1-.6-.2-.8-.4-.2-.2-.4-.5-.4-.8-.1-.3 0-.6.1-.9.1-.3.3-.5.6-.7.3-.2.6-.3.9-.3.2 0 .4 0 .6.1.2.1.4.2.5.4.2.2.3.3.4.5v.5zm-43.9 0c0 .3-.1.6-.3.9-.2.3-.4.5-.7.6-.3.1-.6.2-.9.1-.3-.1-.6-.2-.8-.4-.2-.2-.4-.5-.4-.8-.1-.3 0-.6.1-.9.1-.3.3-.5.6-.7.3-.2.6-.3.9-.3.2 0 .4 0 .6.1.2.1.4.2.5.4.2.2.3.3.4.5v.5zm91.7 1.7c.9 0 1.6-.7 1.6-1.6s-.7-1.6-1.6-1.6-1.6.7-1.6 1.6.7 1.6 1.6 1.6zm-43.9-.1c.9 0 1.6-.7 1.6-1.6 0-.9-.7-1.6-1.6-1.6-.9 0-1.6.7-1.6 1.6-.1.9.7 1.6 1.6 1.6zm-43.9 0c.9 0 1.6-.7 1.6-1.6 0-.9-.7-1.6-1.6-1.6-.9 0-1.6.7-1.6 1.6-.1.9.7 1.6 1.6 1.6zm93.2.1c.9 0 1.6-.7 1.6-1.6s-.7-1.6-1.6-1.6c-.9 0-1.6.7-1.6 1.6s.7 1.6 1.6 1.6zm-43.9-.1c.9 0 1.6-.7 1.6-1.6 0-.9-.7-1.6-1.6-1.6-.9 0-1.6.7-1.6 1.6 0 .9.7 1.6 1.6 1.6zm-43.9 0c.9 0 1.6-.7 1.6-1.6s-.7-1.6-1.6-1.6c-.9 0-1.6.7-1.6 1.6s.7 1.6 1.6 1.6zm93.3.1c.9 0 1.6-.7 1.6-1.6s-.7-1.6-1.6-1.6c-.9 0-1.6.7-1.6 1.6s.7 1.6 1.6 1.6zm-43.9-.1c.9 0 1.6-.7 1.6-1.6 0-.9-.7-1.6-1.6-1.6-.9 0-1.6.7-1.6 1.6-.1.9.7 1.6 1.6 1.6zm-44 0c.9 0 1.6-.7 1.6-1.6 0-.9-.7-1.6-1.6-1.6-.9 0-1.6.7-1.6 1.6 0 .9.8 1.6 1.6 1.6zm49.7 4.7c.9 0 1.6-.7 1.6-1.6 0-.9-.7-1.6-1.6-1.6-.9 0-1.6.7-1.6 1.6 0 .9.7 1.6 1.6 1.6zm-43.9 0c.9 0 1.6-.7 1.6-1.6 0-.9-.7-1.6-1.6-1.6-.9 0-1.6.7-1.6 1.6 0 .9.7 1.6 1.6 1.6zM1.6 22c.9 0 1.6-.7 1.6-1.6 0-.9-.7-1.6-1.6-1.6-.9 0-1.6.7-1.6 1.6 0 .9.7 1.6 1.6 1.6zm93.3.1c.9 0 1.6-.7 1.6-1.6 0-.9-.7-1.6-1.6-1.6s-1.6.7-1.6 1.6c0 .9.7 1.6 1.6 1.6zm-43.9 0c.9 0 1.6-.7 1.6-1.6 0-.9-.7-1.6-1.6-1.6-.9 0-1.6.7-1.6 1.6 0 .9.7 1.6 1.6 1.6zM7.1 22c.9 0 1.6-.7 1.6-1.6 0-.9-.7-1.6-1.6-1.6s-1.6.7-1.6 1.6c-.1.9.7 1.6 1.6 1.6zm94.8-1.5c0 .3-.1.6-.3.9-.2.3-.4.5-.7.6-.3.1-.6.2-.9.1-.3-.1-.6-.2-.8-.4-.2-.2-.4-.5-.4-.8-.1-.3 0-.6.1-.9.1-.3.3-.5.6-.7.3-.2.6-.3.9-.3.2 0 .4 0 .6.1.2.1.4.2.5.4.2.2.3.3.3.5.1.1.1.3.1.5zm-43.9 0c0 .3-.1.6-.3.9-.2.3-.4.5-.7.6-.3.1-.6.2-.9.1-.3-.1-.6-.2-.8-.4-.2-.2-.4-.5-.4-.8-.1-.3 0-.6.1-.9.1-.3.3-.5.6-.7.3-.2.6-.3.9-.3.2 0 .4 0 .6.1.2.1.4.2.5.4.1.2.3.3.3.5s.1.3.1.5zm-43.9-.1c0 .3-.1.6-.3.9-.2.3-.4.5-.7.6-.3.1-.6.1-.9.1-.3-.1-.6-.2-.8-.4-.2-.2-.4-.5-.4-.8-.1-.3 0-.6.1-.9.1-.3.3-.5.6-.7.3-.2.6-.3.9-.3.2 0 .4 0 .6.1.2.1.4.2.5.4.1.2.3.3.3.5.1.1.1.3.1.5zm93.3.1c0 .3-.1.6-.3.9-.2.3-.4.5-.7.6-.3.1-.6.1-.9.1-.3-.1-.6-.2-.8-.5-.2-.2-.4-.5-.4-.8-.1-.3 0-.6.1-.9.1-.3.3-.5.6-.7.3-.2.6-.3.9-.2.4 0 .8.2 1.1.5.2.2.4.6.4 1zm-43.9 0c0 .3-.1.6-.3.9-.2.3-.4.5-.7.6-.3.1-.6.2-.9.1-.3-.1-.6-.2-.8-.5-.2-.2-.4-.5-.4-.8-.1-.3 0-.6.1-.9.1-.3.3-.5.6-.7.3-.2.6-.3.9-.2.4 0 .8.2 1.1.5.2.1.4.5.4 1zm-43.9-.1c0 .3-.1.6-.3.9-.2.3-.4.5-.7.6-.3.1-.6.2-.9.1-.3-.1-.6-.2-.8-.5-.2-.2-.4-.5-.4-.8-.1-.3 0-.6.1-.9.1-.3.3-.5.6-.7.3-.2.6-.3.9-.2.4 0 .8.2 1.1.5.2.2.4.6.4 1zm93.2.1c0 .3-.1.6-.3.9-.2.3-.4.5-.7.6-.3.1-.6.2-.9.1-.3-.1-.6-.2-.8-.4-.2-.2-.4-.5-.4-.8-.1-.3 0-.6.1-.9.1-.3.3-.5.6-.7.3-.2.6-.3.9-.3.2 0 .4 0 .6.1.2.1.4.2.5.4.2.2.3.3.4.5v.5zm-43.9 0c0 .3-.1.6-.3.9-.2.3-.4.5-.7.6-.3.1-.6.2-.9.1-.3-.1-.6-.2-.8-.4-.2-.2-.4-.5-.4-.8-.1-.3 0-.6.1-.9.1-.3.3-.5.6-.7.3-.2.6-.3.9-.3.2 0 .4 0 .6.1.2.1.4.2.5.4.2.2.3.3.4.5v.5zM25 20.4c0 .3-.1.6-.3.9-.2.3-.4.5-.7.6-.3.1-.6.2-.9.1-.3-.1-.6-.2-.8-.4-.2-.2-.4-.5-.4-.8-.1-.3 0-.6.1-.9.1-.3.3-.5.6-.7.3-.2.6-.3.9-.3.2 0 .4 0 .6.1.2.1.4.2.5.4.2.2.3.3.4.5v.5zm91.7 1.7c.9 0 1.6-.7 1.6-1.6 0-.9-.7-1.6-1.6-1.6s-1.6.7-1.6 1.6c0 .9.7 1.6 1.6 1.6zm-43.9 0c.9 0 1.6-.7 1.6-1.6 0-.9-.7-1.6-1.6-1.6-.9 0-1.6.7-1.6 1.6-.1.9.7 1.6 1.6 1.6zM28.9 22c.9 0 1.6-.7 1.6-1.6 0-.9-.7-1.6-1.6-1.6-.9 0-1.6.7-1.6 1.6-.1.9.7 1.6 1.6 1.6zm93.2.1c.9 0 1.6-.7 1.6-1.6 0-.9-.7-1.6-1.6-1.6-.9 0-1.6.7-1.6 1.6 0 .9.7 1.6 1.6 1.6zm-43.9 0c.9 0 1.6-.7 1.6-1.6 0-.9-.7-1.6-1.6-1.6s-1.6.7-1.6 1.6c0 .9.7 1.6 1.6 1.6zM34.3 22c.9 0 1.6-.7 1.6-1.6 0-.9-.7-1.6-1.6-1.6-.9 0-1.6.7-1.6 1.6 0 .9.7 1.6 1.6 1.6zm93.3.1c.9 0 1.6-.7 1.6-1.6 0-.9-.7-1.6-1.6-1.6-.9 0-1.6.7-1.6 1.6 0 .9.7 1.6 1.6 1.6zm-43.9 0c.9 0 1.6-.7 1.6-1.6 0-.9-.7-1.6-1.6-1.6-.9 0-1.6.7-1.6 1.6-.1.9.7 1.6 1.6 1.6zM39.8 22c.9 0 1.6-.7 1.6-1.6 0-.9-.7-1.6-1.6-1.6-.9 0-1.6.7-1.6 1.6-.1.9.7 1.6 1.6 1.6zm49.6 4.8c.9 0 1.6-.7 1.6-1.6 0-.9-.7-1.6-1.6-1.6s-1.6.7-1.6 1.6c0 .8.7 1.6 1.6 1.6zm-43.9-.1c.9 0 1.6-.7 1.6-1.6s-.7-1.6-1.6-1.6c-.9 0-1.6.7-1.6 1.6s.7 1.6 1.6 1.6zm-43.9 0c.9 0 1.6-.7 1.6-1.6 0-.9-.7-1.6-1.6-1.6-.9 0-1.6.7-1.6 1.6 0 .8.7 1.6 1.6 1.6zm93.3.1c.9 0 1.6-.7 1.6-1.6 0-.9-.7-1.6-1.6-1.6s-1.6.7-1.6 1.6c0 .8.7 1.6 1.6 1.6zM51 26.7c.9 0 1.6-.7 1.6-1.6s-.7-1.6-1.6-1.6c-.9 0-1.6.7-1.6 1.6s.7 1.6 1.6 1.6zm-43.9 0c.9 0 1.6-.7 1.6-1.6 0-.9-.7-1.6-1.6-1.6-.9 0-1.6.7-1.6 1.6 0 .8.7 1.6 1.6 1.6zm94.8-1.5c0 .3-.1.6-.3.9s-.4.5-.7.6c-.3.1-.6.2-.9.1-.3-.1-.6-.2-.8-.4-.2-.2-.4-.5-.4-.8-.1-.3 0-.6.1-.9.1-.3.3-.5.6-.7.3-.2.6-.3.9-.3.2 0 .4 0 .6.1.2.1.4.2.5.4.2.2.3.3.3.5.1 0 .1.2.1.5zM58 25.1c0 .3-.1.6-.3.9-.2.3-.4.5-.7.6-.3.1-.6.2-.9.1-.3-.1-.6-.2-.8-.4-.2-.2-.4-.5-.4-.8-.1-.3 0-.6.1-.9.1-.3.3-.5.6-.7.3-.2.6-.3.9-.3.2 0 .4 0 .6.1.2.1.4.2.5.4.1.1.3.3.3.5.1.1.1.3.1.5zm-43.9 0c0 .3-.1.6-.3.9-.2.3-.4.5-.7.6-.3.1-.6.2-.9.1-.3-.1-.6-.2-.8-.4-.2-.2-.4-.5-.4-.8-.1-.3 0-.6.1-.9.1-.3.3-.5.6-.7.3-.2.6-.3.9-.3.2 0 .4 0 .6.1.2.1.4.2.5.4.1.2.3.3.3.5.1 0 .1.2.1.5zm93.3.1c0 .4-.2.8-.5 1.1-.3.3-.7.4-1.1.4-.4 0-.8-.2-1.1-.4-.3-.3-.5-.7-.5-1.1 0-.2 0-.4.1-.7l.3-.6c.2-.2.3-.3.5-.4.2-.1.4-.1.6-.1.2 0 .4 0 .6.1.2.1.4.2.5.4.2.2.3.4.3.6.3.2.3.4.3.7zm-43.9-.1c0 .4-.2.8-.5 1.1-.3.3-.7.4-1.1.4s-.8-.2-1.1-.4c-.3-.3-.5-.7-.5-1.1 0-.2 0-.4.1-.7l.3-.6c.2-.2.3-.3.5-.4.2-.1.4-.1.6-.1.2 0 .4 0 .6.1.2.1.4.2.5.4.2.2.3.4.3.6.3.3.3.5.3.7zm-43.9 0c0 .4-.2.8-.5 1.1-.3.3-.7.4-1.1.4-.4 0-.8-.2-1.1-.4-.3-.3-.5-.7-.5-1.1 0-.2 0-.4.1-.7l.3-.6c.2-.2.3-.3.5-.4.2-.1.4-.1.6-.1.2 0 .4 0 .6.1.2.1.4.2.5.4.2.2.3.4.3.6.3.2.3.4.3.7zm93.2.1c0 .3-.1.6-.3.9-.2.3-.4.5-.7.6-.3.1-.6.2-.9.1-.3-.1-.6-.2-.8-.4-.2-.2-.4-.5-.4-.8-.1-.3 0-.6.1-.9.1-.3.3-.5.6-.7.3-.2.6-.3.9-.3.2 0 .4 0 .6.1s.4.2.5.4c.1.1.3.3.3.5.1 0 .1.2.1.5zm-43.9-.1c0 .3-.1.6-.3.9s-.4.5-.7.6c-.3.1-.6.2-.9.1-.3-.1-.6-.2-.8-.4-.2-.2-.4-.5-.4-.8-.1-.3 0-.6.1-.9.1-.3.3-.5.6-.7.3-.2.6-.3.9-.3.2 0 .4 0 .6.1.2.1.4.2.5.4.1.2.3.3.3.5.1.1.1.3.1.5zm-43.9 0c0 .3-.1.6-.3.9-.2.3-.4.5-.7.6-.3.1-.6.2-.9.1-.3-.1-.6-.2-.8-.4-.2-.2-.4-.5-.4-.8-.1-.3 0-.6.1-.9.1-.3.3-.5.6-.7.3-.2.6-.3.9-.3.2 0 .4 0 .6.1.2.1.4.2.5.4.1.2.3.3.3.5.1 0 .1.2.1.5zm91.7 1.7c.9 0 1.6-.7 1.6-1.6 0-.9-.7-1.6-1.6-1.6s-1.6.7-1.6 1.6c0 .8.7 1.6 1.6 1.6zm-43.9-.1c.9 0 1.6-.7 1.6-1.6s-.7-1.6-1.6-1.6c-.9 0-1.6.7-1.6 1.6s.7 1.6 1.6 1.6zm-43.9 0c.9 0 1.6-.7 1.6-1.6 0-.9-.7-1.6-1.6-1.6-.9 0-1.6.7-1.6 1.6-.1.8.7 1.6 1.6 1.6zm93.2.1c.9 0 1.6-.7 1.6-1.6s-.7-1.6-1.6-1.6c-.9 0-1.6.7-1.6 1.6s.7 1.6 1.6 1.6zm-43.9-.1c.9 0 1.6-.7 1.6-1.6s-.7-1.6-1.6-1.6c-.9 0-1.6.7-1.6 1.6s.7 1.6 1.6 1.6zm-43.9 0c.9 0 1.6-.7 1.6-1.6s-.7-1.6-1.6-1.6c-.9 0-1.6.7-1.6 1.6s.7 1.6 1.6 1.6zm93.3.1c.9 0 1.6-.7 1.6-1.6s-.7-1.6-1.6-1.6c-.9 0-1.6.7-1.6 1.6s.7 1.6 1.6 1.6zm-43.9-.1c.9 0 1.6-.7 1.6-1.6s-.7-1.6-1.6-1.6c-.9 0-1.6.7-1.6 1.6s.7 1.6 1.6 1.6zm-43.9 0c.9 0 1.6-.7 1.6-1.6s-.7-1.6-1.6-1.6-1.6.7-1.6 1.6.7 1.6 1.6 1.6zm49.6 4.7c.9 0 1.6-.7 1.6-1.6 0-.9-.7-1.6-1.6-1.6-.9 0-1.6.7-1.6 1.6 0 .9.7 1.6 1.6 1.6zm-43.9 0c.9 0 1.6-.7 1.6-1.6s-.7-1.6-1.6-1.6c-.9 0-1.6.7-1.6 1.6s.7 1.6 1.6 1.6zm-43.9-.1c.9 0 1.6-.7 1.6-1.6s-.7-1.6-1.6-1.6c-.9 0-1.6.7-1.6 1.6s.7 1.6 1.6 1.6zm93.3.1c.9 0 1.6-.7 1.6-1.6 0-.9-.7-1.6-1.6-1.6s-1.6.7-1.6 1.6c0 .9.7 1.6 1.6 1.6zm-43.9 0c.9 0 1.6-.7 1.6-1.6s-.7-1.6-1.6-1.6c-.9 0-1.6.7-1.6 1.6s.7 1.6 1.6 1.6zm-43.9-.1c.9 0 1.6-.7 1.6-1.6s-.7-1.6-1.6-1.6c-.9 0-1.6.7-1.6 1.6s.7 1.6 1.6 1.6zm94.8-1.5c0 .3-.1.6-.3.9-.2.3-.4.5-.7.6-.3.1-.6.2-.9.1-.3-.1-.6-.2-.8-.4-.2-.2-.4-.5-.4-.8-.1-.3 0-.6.1-.9.1-.3.3-.5.6-.7.3-.2.6-.3.9-.3.2 0 .4 0 .6.1.2.1.4.2.5.4.2.2.3.3.3.5.1.1.1.3.1.5zM58 29.7c0 .3-.1.6-.3.9-.2.3-.4.5-.7.6-.3.1-.6.2-.9.1-.3-.1-.6-.2-.8-.4-.2-.2-.4-.5-.4-.8-.1-.3 0-.6.1-.9.1-.3.3-.5.6-.7.3-.2.6-.3.9-.3.2 0 .4 0 .6.1.2.1.4.2.5.4.1.1.3.3.3.5.1.1.1.3.1.5zm-43.9 0c0 .3-.1.6-.3.9-.2.3-.4.5-.7.6-.3.1-.6.2-.9.1-.3-.1-.6-.2-.8-.4-.2-.2-.4-.5-.4-.8-.1-.3 0-.6.1-.9.1-.3.3-.5.6-.7.3-.2.6-.3.9-.3.2 0 .4 0 .6.1.2.1.4.2.5.4.1.2.3.3.3.5.1.1.1.3.1.5zm93.3.1c0 .4-.2.8-.5 1.1-.3.3-.7.4-1.1.4-.4 0-.8-.2-1.1-.4-.3-.3-.5-.7-.5-1.1 0-.2 0-.4.1-.7l.3-.6c.2-.2.3-.3.5-.4.2-.1.4-.1.6-.1.2 0 .4 0 .6.1.2.1.4.2.5.4.2.2.3.4.3.6.3.2.3.5.3.7zm-43.9-.1c0 .4-.2.8-.5 1.1-.3.3-.7.4-1.1.4-.4 0-.8-.2-1.1-.4-.3-.3-.5-.7-.5-1.1 0-.2 0-.4.1-.7l.3-.6c.1-.2.3-.3.5-.4.2-.1.4-.1.6-.1.2 0 .4 0 .6.1.2.1.4.2.5.4.2.2.3.4.3.6.3.3.3.5.3.7zm-43.9 0c0 .4-.2.8-.5 1.1-.3.3-.7.4-1.1.4-.4 0-.8-.2-1.1-.4-.3-.3-.5-.7-.5-1.1 0-.2 0-.4.1-.7s.2-.4.3-.6c.2-.2.3-.3.5-.4.2-.1.4-.1.6-.1.2 0 .4 0 .6.1.2.1.4.2.5.4.2.2.3.4.3.6s.3.5.3.7zm93.2.1c0 .3-.1.6-.3.9-.2.3-.4.5-.7.6-.3.1-.6.2-.9.1-.3-.1-.6-.2-.8-.4-.2-.2-.4-.5-.4-.8-.1-.3 0-.6.1-.9.1-.3.3-.5.6-.7.3-.2.6-.3.9-.3.2 0 .4 0 .6.1.2.1.4.2.5.4.2.2.3.3.4.5s0 .3 0 .5zm-43.9-.1c0 .3-.1.6-.3.9-.2.3-.4.5-.7.6-.3.1-.6.2-.9.1-.3-.1-.6-.2-.8-.4-.2-.2-.4-.5-.4-.8-.1-.3 0-.6.1-.9.1-.3.3-.5.6-.7.3-.2.6-.3.9-.3.2 0 .4 0 .6.1.2.1.4.2.5.4.2.2.3.3.4.5v.5zm-43.9 0c0 .3-.1.6-.3.9-.2.3-.4.5-.7.6-.3.1-.6.2-.9.1-.3-.1-.6-.2-.8-.4-.2-.2-.4-.5-.4-.8-.1-.3 0-.6.1-.9.1-.3.3-.5.6-.7s.6-.3.9-.3c.2 0 .4 0 .6.1.2.1.4.2.5.4.2.1.3.3.4.5v.5zm91.7 1.7c.9 0 1.6-.7 1.6-1.6 0-.9-.7-1.6-1.6-1.6s-1.6.7-1.6 1.6c0 .9.7 1.6 1.6 1.6zm-43.9 0c.9 0 1.6-.7 1.6-1.6s-.7-1.6-1.6-1.6c-.9 0-1.6.7-1.6 1.6s.7 1.6 1.6 1.6zm-44-.1c.9 0 1.6-.7 1.6-1.6s-.7-1.6-1.6-1.6c-.9 0-1.6.7-1.6 1.6s.8 1.6 1.6 1.6zm93.3.1c.9 0 1.6-.7 1.6-1.6 0-.9-.7-1.6-1.6-1.6-.9 0-1.6.7-1.6 1.6 0 .9.7 1.6 1.6 1.6zm-43.9 0c.9 0 1.6-.7 1.6-1.6s-.7-1.6-1.6-1.6c-.9 0-1.6.7-1.6 1.6s.7 1.6 1.6 1.6zm-43.9-.1c.9 0 1.6-.7 1.6-1.6s-.7-1.6-1.6-1.6c-.9 0-1.6.7-1.6 1.6s.7 1.6 1.6 1.6zm93.3.1c.9 0 1.6-.7 1.6-1.6 0-.9-.7-1.6-1.6-1.6-.9 0-1.6.7-1.6 1.6 0 .9.7 1.6 1.6 1.6zm-43.9 0c.9 0 1.6-.7 1.6-1.6s-.7-1.6-1.6-1.6c-.9 0-1.6.7-1.6 1.6s.7 1.6 1.6 1.6zm-43.9-.1c.9 0 1.6-.7 1.6-1.6s-.7-1.6-1.6-1.6c-.9 0-1.6.7-1.6 1.6s.7 1.6 1.6 1.6z">
      </path>
    </symbol>
    <symbol fill="currentColor" xmlns="http://www.w3.org/2000/svg" viewBox="0 0 66 74" id="play">
      <path d="M61.5 29.206c6 3.464 6 12.124 0 15.588l-48 27.713C7.5 75.971 0 71.641 0 64.713V9.287C0 2.36 7.5-1.97 13.5 1.493l48 27.713z"></path>
    </symbol>
    <symbol fill="currentColor" xmlns="http://www.w3.org/2000/svg" viewBox="0 0 40 40" id="check">
      <path d="M38.253 2.604c-1.805-.972-3.818.902-4.998 2.013-2.708 2.638-4.999 5.693-7.567 8.47-2.847 3.054-5.485 6.109-8.4 9.094-1.667 1.666-3.472 3.471-4.582 5.554-2.5-2.43-4.652-5.068-7.429-7.22-2.013-1.527-5.345-2.638-5.276 1.041.139 4.79 4.374 9.928 7.498 13.19 1.319 1.39 3.054 2.847 5.068 2.916 2.43.14 4.929-2.776 6.387-4.373 2.568-2.777 4.651-5.901 7.011-8.748 3.055-3.748 6.18-7.428 9.164-11.246 1.875-2.36 7.776-8.192 3.124-10.691zM3.056 21.279c-.07 0-.14 0-.278.069a3.376 3.376 0 01-.764-.278c.209-.139.556-.07 1.042.209z"></path>
    </symbol>
    <symbol fill="currentColor" xmlns="http://www.w3.org/2000/svg" viewBox="0 0 69 41" id="arrow-short">
      <path d="M45.19 3.22a1.61 1.61 0 100-3.22 1.61 1.61 0 000 3.22zm0 4.64a1.61 1.61 0 100-3.22 1.61 1.61 0 000 3.22zm7.07-1.61a1.62 1.62 0 11-3.24.02 1.62 1.62 0 013.24-.02zM1.61 12.51a1.61 1.61 0 100-3.22 1.61 1.61 0 000 3.22zm5.45 0a1.61 1.61 0 100-3.22 1.61 1.61 0 000 3.22zm7.06-1.61a1.61 1.61 0 11-3.221-.02 1.61 1.61 0 013.221.02zm5.45 0A1.62 1.62 0 1118 9.28a1.61 1.61 0 011.57 1.62zm5.43 0a1.62 1.62 0 11-1.6-1.62A1.61 1.61 0 0125 10.9zm3.85 1.61a1.61 1.61 0 100-3.22 1.61 1.61 0 000 3.22zm5.45 0a1.61 1.61 0 100-3.22 1.61 1.61 0 000 3.22zm5.45 0a1.61 1.61 0 100-3.22 1.61 1.61 0 000 3.22zm5.44 0a1.61 1.61 0 100-3.22 1.61 1.61 0 000 3.22zm7.07-1.61a1.62 1.62 0 11-3.241 0 1.62 1.62 0 013.241 0zm3.83 1.61a1.61 1.61 0 100-3.22 1.61 1.61 0 000 3.22zM1.61 17.15a1.61 1.61 0 100-3.22 1.61 1.61 0 000 3.22zm5.45 0a1.61 1.61 0 100-3.22 1.61 1.61 0 000 3.22zm7.06-1.61a1.61 1.61 0 11-3.22-.02 1.61 1.61 0 013.22.02zm5.45 0A1.62 1.62 0 1118 13.92a1.61 1.61 0 011.57 1.62zm5.43 0a1.62 1.62 0 11-1.62-1.62A1.607 1.607 0 0125 15.54zm3.85 1.61a1.61 1.61 0 100-3.22 1.61 1.61 0 000 3.22zm5.45 0a1.61 1.61 0 100-3.22 1.61 1.61 0 000 3.22zm5.45 0a1.61 1.61 0 100-3.22 1.61 1.61 0 000 3.22zm5.44 0a1.61 1.61 0 100-3.22 1.61 1.61 0 000 3.22zm7.07-1.61a1.62 1.62 0 11-3.24 0 1.62 1.62 0 013.24 0zm3.83 1.61a1.61 1.61 0 100-3.22 1.61 1.61 0 000 3.22zm7.06-1.61a1.62 1.62 0 11-1.61-1.62 1.607 1.607 0 011.49 1c.08.197.121.408.12.62zM1.61 21.79a1.61 1.61 0 100-3.22 1.61 1.61 0 000 3.22zm5.45 0a1.61 1.61 0 100-3.22 1.61 1.61 0 000 3.22zm7.06-1.61a1.61 1.61 0 11-3.22-.02 1.61 1.61 0 013.22.02zm5.45 0A1.62 1.62 0 1118 18.56a1.61 1.61 0 011.57 1.62zm5.43 0a1.62 1.62 0 11-1.62-1.62A1.611 1.611 0 0125 20.18zm3.85 1.61a1.61 1.61 0 100-3.22 1.61 1.61 0 000 3.22zm5.45 0a1.61 1.61 0 100-3.22 1.61 1.61 0 000 3.22zm5.45 0a1.61 1.61 0 100-3.22 1.61 1.61 0 000 3.22zm5.44 0a1.61 1.61 0 100-3.22 1.61 1.61 0 000 3.22zm7.07-1.61a1.62 1.62 0 11-3.24 0 1.62 1.62 0 013.24 0zm3.83 1.61a1.61 1.61 0 100-3.22 1.61 1.61 0 000 3.22zm7.06-1.61a1.62 1.62 0 11-1.61-1.62 1.61 1.61 0 011.61 1.62zm3.84 1.61a1.61 1.61 0 100-3.22 1.61 1.61 0 000 3.22zM1.61 26.43a1.61 1.61 0 100-3.22 1.61 1.61 0 000 3.22zm5.45 0a1.61 1.61 0 100-3.22 1.61 1.61 0 000 3.22zm7.06-1.61a1.61 1.61 0 11-3.221-.02 1.61 1.61 0 013.221.02zm5.45 0a1.62 1.62 0 11-3.23-.254 1.62 1.62 0 013.23.254zm5.43 0a1.62 1.62 0 11-1.6-1.62 1.61 1.61 0 011.6 1.62zm3.85 1.61a1.61 1.61 0 100-3.22 1.61 1.61 0 000 3.22zm5.45 0a1.61 1.61 0 100-3.22 1.61 1.61 0 000 3.22zm5.45 0a1.61 1.61 0 100-3.22 1.61 1.61 0 000 3.22zm5.44 0a1.61 1.61 0 100-3.22 1.61 1.61 0 000 3.22zm7.07-1.61a1.62 1.62 0 11-3.24 0 1.62 1.62 0 013.24 0zm3.83 1.61a1.61 1.61 0 100-3.22 1.61 1.61 0 000 3.22zm7.06-1.61a1.62 1.62 0 11-3.23-.254 1.62 1.62 0 013.23.254zM1.61 31.07a1.61 1.61 0 100-3.22 1.61 1.61 0 000 3.22zm5.45 0a1.61 1.61 0 100-3.22 1.61 1.61 0 000 3.22zm7.06-1.61a1.61 1.61 0 11-3.22-.02 1.61 1.61 0 013.22.02zm5.45 0a1.62 1.62 0 11-3.23-.254 1.62 1.62 0 013.23.254zm5.43 0a1.62 1.62 0 11-1.62-1.62A1.611 1.611 0 0125 29.46zm3.85 1.61a1.61 1.61 0 100-3.22 1.61 1.61 0 000 3.22zm5.45 0a1.61 1.61 0 100-3.22 1.61 1.61 0 000 3.22zm5.45 0a1.61 1.61 0 100-3.22 1.61 1.61 0 000 3.22zm5.44 0a1.61 1.61 0 100-3.22 1.61 1.61 0 000 3.22zm7.07-1.61a1.62 1.62 0 11-3.24 0 1.62 1.62 0 013.24 0zm3.83 1.61a1.61 1.61 0 100-3.22 1.61 1.61 0 000 3.22zm-10.9 4.64a1.61 1.61 0 100-3.22 1.61 1.61 0 000 3.22zm7.07-1.61a1.62 1.62 0 11-3.24 0 1.62 1.62 0 013.24 0zm-7.07 6.25a1.61 1.61 0 100-3.22 1.61 1.61 0 000 3.22z"></path>
    </symbol>
  </svg>