<?xml version="1.0" encoding="utf-8"?>
<!-- Generator: Adobe Illustrator 25.2.1, SVG Export Plug-In . SVG Version: 6.00 Build 0)  -->
<svg version="1.1" id="Слой_1" xmlns="http://www.w3.org/2000/svg" xmlns:xlink="http://www.w3.org/1999/xlink" x="0px" y="0px"
	 width="188px" height="59.1px" viewBox="0 0 188 59.1" style="enable-background:new 0 0 188 59.1;" xml:space="preserve">
<style type="text/css">
	.st0{fill:#FFCB5A;}
</style>
<path class="st0" d="M146.9,0C125.9,0,103.5,15.7,94,23.1C84.5,15.7,62.1,0,41.1,0C15.4,0,0,11,0,29.5s15.4,29.5,41.1,29.5
	c20.9,0,43.4-15.7,52.9-23.1c9.5,7.4,31.9,23.1,52.9,23.1c25.8,0,41.1-11,41.1-29.5S172.6,0,146.9,0z M41.1,50.6
	c-19.5,0-29.4-7.1-29.4-21.1S21.6,8.4,41.1,8.4c15.6,0,35.6,13.4,45.1,21.1C76.7,37.2,56.8,50.6,41.1,50.6z M146.9,50.6
	c-15.6,0-35.6-13.4-45.2-21.1c9.6-7.7,29.5-21.1,45.2-21.1c19.5,0,29.4,7.1,29.4,21.1S166.4,50.6,146.9,50.6z"/>
</svg>
