<?xml version="1.0" encoding="utf-8"?>
<!-- Generator: Adobe Illustrator 25.2.1, SVG Export Plug-In . SVG Version: 6.00 Build 0)  -->
<svg version="1.1" id="Слой_1" xmlns="http://www.w3.org/2000/svg" xmlns:xlink="http://www.w3.org/1999/xlink" x="0px" y="0px"
	 width="550px" height="436px" viewBox="0 0 550 436" style="enable-background:new 0 0 550 436;" xml:space="preserve">
<style type="text/css">
	.st0{clip-path:url(#SVGID_2_);}
	.st1{fill:#FFFFFF;}
	.st2{clip-path:url(#SVGID_4_);}
	.st3{fill:#B100CE;}
	.st4{clip-path:url(#SVGID_6_);}
	.st5{clip-path:url(#SVGID_8_);}
	.st6{clip-path:url(#SVGID_10_);}
	.st7{fill:#02A8B2;}
	.st8{fill:none;stroke:#FFFFFF;}
	.st9{clip-path:url(#SVGID_12_);}
	.st10{clip-path:url(#SVGID_14_);}
	.st11{clip-path:url(#SVGID_16_);}
	.st12{clip-path:url(#SVGID_18_);}
	.st13{clip-path:url(#SVGID_20_);}
	.st14{clip-path:url(#SVGID_22_);}
	.st15{fill:#636363;}
	.st16{fill:url(#SVGID_23_);}
	.st17{fill:#B19C38;}
	.st18{fill:url(#SVGID_24_);}
	.st19{fill:#5F74BE;}
	.st20{fill:url(#SVGID_25_);}
	.st21{fill:url(#SVGID_26_);}
	.st22{fill:url(#SVGID_27_);}
	.st23{fill:url(#SVGID_28_);}
	.st24{fill:url(#SVGID_29_);}
	.st25{fill:url(#SVGID_30_);}
	.st26{fill:url(#SVGID_31_);}
</style>
<g>
	<defs>
		<rect id="SVGID_1_" x="232" width="97.3" height="88.8"/>
	</defs>
	<clipPath id="SVGID_2_">
		<use xlink:href="#SVGID_1_"  style="overflow:visible;"/>
	</clipPath>
	<g class="st0">
		<path class="st1" d="M280.6,20.2c4.6,0,8.2-3.4,8.2-7.5c0-4.2-3.7-7.5-8.2-7.5s-8.2,3.4-8.2,7.5C272.4,16.9,276.1,20.2,280.6,20.2
			z"/>
		<path class="st1" d="M308.3,3.5c0.1-1.8-1.5-3.4-3.5-3.5c-2-0.1-3.7,1.3-3.8,3.2c-0.1,0.8-1.9,18.7-20.3,18.7S260.4,4,260.3,3.2
			c-0.1-1.8-1.8-3.3-3.8-3.2c-2,0.1-3.6,1.7-3.5,3.5c0.1,7.6,4.1,20.8,17.6,25.2v21.5l-1.8,35.1c-0.1,1.8,1.4,3.4,3.4,3.5h0.3
			c1.9,0,3.4-1.3,3.7-3l3.9-30.5h1.3l4,30.5c0.2,1.7,1.8,3,3.7,3h0.3c2-0.2,3.5-1.7,3.4-3.5l-1.8-35.1V28.8
			C304.2,24.4,308.2,11.1,308.3,3.5z"/>
	</g>
</g>
<g>
	<defs>
		<rect id="SVGID_3_" y="376" width="61.9" height="56.5"/>
	</defs>
	<clipPath id="SVGID_4_">
		<use xlink:href="#SVGID_3_"  style="overflow:visible;"/>
	</clipPath>
	<g class="st2">
		<path class="st3" d="M38.2,389.8H23.7c-2.7,0-4.9,2-5,4.5v16.4c0,0.9,0.8,1.6,1.7,1.6c1,0,1.7-0.7,1.7-1.6v-13.5
			c0-0.5,0.4-0.9,1-0.9c0.5,0,1,0.4,1,0.9v32.2c0.1,1.5,1.4,2.6,3,2.6c1.5,0,2.8-1.2,2.8-2.6v-18.4c0-0.5,0.4-0.9,1-0.9
			c0.5,0,1,0.4,1,0.9v18.4c0.1,1.5,1.4,2.6,3,2.6c1.5,0,2.8-1.2,2.8-2.6v-32.2c0-0.5,0.4-0.9,1-0.9c0.5,0,1,0.4,1,0.9v13.4
			c0,0.9,0.8,1.6,1.7,1.6c1,0,1.7-0.7,1.7-1.6v-16.4C43.2,391.8,41,389.8,38.2,389.8z"/>
		<path class="st3" d="M34.8,432.6c-1.9,0-3.4-1.4-3.4-3.1v-18.4c0-0.3-0.2-0.5-0.5-0.5c-0.3,0-0.5,0.2-0.5,0.5v18.4
			c0,1.7-1.6,3-3.4,3c-1.8,0-3.2-1.4-3.3-3v-32.2c0-0.3-0.2-0.5-0.5-0.5c-0.3,0-0.5,0.2-0.5,0.5v13.4c0,1.1-1,2-2.2,2
			c-1.2,0-2.2-0.9-2.2-2v-16.4c0-2.7,2.4-4.9,5.4-4.9h14.6c3,0,5.4,2.2,5.4,4.9v16.4c0,1.1-1,2-2.2,2c-1.2,0-2.2-0.9-2.2-2v-13.5
			c0-0.3-0.2-0.5-0.5-0.5c-0.3,0-0.5,0.2-0.5,0.5v32.2C38.2,431.2,36.7,432.6,34.8,432.6z M30.9,409.8c0.8,0,1.4,0.6,1.4,1.3v18.4
			c0,1.3,1.2,2.2,2.6,2.2c1.3,0,2.4-1,2.4-2.2v-32.2c0-0.7,0.6-1.3,1.4-1.3c0.8,0,1.4,0.6,1.4,1.3v13.4c0,0.7,0.6,1.2,1.3,1.2
			c0.7,0,1.3-0.5,1.3-1.2v-16.4c0-2.3-2-4.1-4.5-4.1H23.7c-2.5,0-4.5,1.8-4.5,4.1v16.4c0,0.7,0.6,1.2,1.3,1.2c0.7,0,1.3-0.5,1.3-1.2
			v-13.5c0-0.7,0.6-1.3,1.4-1.3c0.8,0,1.4,0.6,1.4,1.3v32.2c0,1.3,1.2,2.2,2.6,2.2c1.3,0,2.4-1,2.4-2.2v-18.4
			C29.5,410.4,30.2,409.8,30.9,409.8z"/>
		<path class="st3" d="M30.9,386.8c3.1,0,5.7-2.3,5.7-5.2c0-2.9-2.5-5.2-5.7-5.2c-3.1,0-5.7,2.3-5.7,5.2
			C25.3,384.5,27.8,386.8,30.9,386.8z"/>
		<path class="st3" d="M30.9,387.2c-3.4,0-6.1-2.5-6.1-5.6s2.7-5.6,6.1-5.6c3.4,0,6.1,2.5,6.1,5.6C37.1,384.7,34.3,387.2,30.9,387.2
			z M30.9,376.8c-2.9,0-5.2,2.1-5.2,4.8c0,2.6,2.3,4.8,5.2,4.8s5.2-2.1,5.2-4.8C36.2,379,33.8,376.8,30.9,376.8z"/>
	</g>
</g>
<g>
	<defs>
		<rect id="SVGID_5_" x="488.1" y="376" width="61.9" height="56.5"/>
	</defs>
	<clipPath id="SVGID_6_">
		<use xlink:href="#SVGID_5_"  style="overflow:visible;"/>
	</clipPath>
	<g class="st4">
		<path class="st3" d="M526.3,389.4h-14.6c-2.7,0-4.9,2-5,4.5v16.4c0,0.9,0.8,1.6,1.7,1.6s1.7-0.7,1.7-1.6v-13.4
			c0-0.5,0.4-0.9,1-0.9c0.5,0,1,0.4,1,0.9v32.2c0.1,1.5,1.4,2.6,3,2.6c1.5,0,2.8-1.2,2.8-2.6v-18.4c0-0.5,0.4-0.9,1-0.9
			c0.5,0,1,0.4,1,0.9v18.4c0.1,1.5,1.4,2.6,3,2.6c1.5,0,2.8-1.2,2.8-2.6v-32.2c0-0.5,0.4-0.9,1-0.9c0.5,0,1,0.4,1,0.9v13.4
			c0,0.9,0.8,1.6,1.7,1.6s1.7-0.7,1.7-1.6v-16.4C531.3,391.4,529.1,389.4,526.3,389.4z"/>
		<path class="st3" d="M522.9,432.1c-1.9,0-3.4-1.4-3.4-3.1v-18.4c0-0.3-0.2-0.5-0.5-0.5c-0.3,0-0.5,0.2-0.5,0.5v18.4
			c0,1.7-1.6,3-3.4,3c-1.8,0-3.2-1.4-3.3-3v-32.2c0-0.3-0.2-0.5-0.5-0.5s-0.5,0.2-0.5,0.5v13.4c0,1.1-1,2-2.2,2
			c-1.2,0-2.2-0.9-2.2-2v-16.4c0-2.7,2.4-4.9,5.4-4.9h14.6c3,0,5.4,2.2,5.4,4.9v16.4c0,1.1-1,2-2.2,2s-2.2-0.9-2.2-2v-13.4
			c0-0.3-0.2-0.5-0.5-0.5c-0.3,0-0.5,0.2-0.5,0.5v32.2C526.3,430.8,524.8,432.1,522.9,432.1z M519,409.4c0.8,0,1.4,0.6,1.4,1.3v18.4
			c0,1.3,1.2,2.2,2.5,2.2c1.3,0,2.4-1,2.4-2.2v-32.2c0-0.7,0.6-1.3,1.4-1.3c0.8,0,1.4,0.6,1.4,1.3v13.4c0,0.7,0.6,1.2,1.3,1.2
			c0.7,0,1.3-0.5,1.3-1.2v-16.4c0-2.3-2-4.1-4.5-4.1h-14.6c-2.5,0-4.5,1.8-4.5,4.1v16.4c0,0.7,0.6,1.2,1.3,1.2
			c0.7,0,1.3-0.5,1.3-1.2v-13.4c0-0.7,0.6-1.3,1.4-1.3c0.8,0,1.4,0.6,1.4,1.3v32.2c0,1.3,1.2,2.2,2.6,2.2c1.3,0,2.4-1,2.4-2.2v-18.4
			C517.6,410,518.3,409.4,519,409.4z"/>
		<path class="st3" d="M519,386.4c3.1,0,5.7-2.3,5.7-5.2c0-2.9-2.5-5.2-5.7-5.2c-3.1,0-5.7,2.3-5.7,5.2
			C513.4,384.1,515.9,386.4,519,386.4z"/>
		<path class="st3" d="M519,386.8c-3.4,0-6.1-2.5-6.1-5.6s2.7-5.6,6.1-5.6c3.4,0,6.1,2.5,6.1,5.6C525.2,384.3,522.4,386.8,519,386.8
			z M519,376.4c-2.9,0-5.2,2.1-5.2,4.8c0,2.6,2.3,4.8,5.2,4.8s5.2-2.1,5.2-4.8C524.3,378.6,521.9,376.4,519,376.4z"/>
	</g>
</g>
<g>
	<defs>
		<rect id="SVGID_7_" x="62.8" y="265" width="61.9" height="56.5"/>
	</defs>
	<clipPath id="SVGID_8_">
		<use xlink:href="#SVGID_7_"  style="overflow:visible;"/>
	</clipPath>
	<g class="st5">
		<path class="st3" d="M101,278.8H86.4c-2.7,0-4.9,2-5,4.5v16.4c0,0.9,0.8,1.6,1.7,1.6c1,0,1.7-0.7,1.7-1.6v-13.5
			c0-0.5,0.4-0.9,1-0.9s1,0.4,1,0.9v32.2c0.1,1.5,1.4,2.6,3,2.6c1.5,0,2.8-1.2,2.8-2.6v-18.4c0-0.5,0.4-0.9,1-0.9c0.5,0,1,0.4,1,0.9
			v18.4c0.1,1.5,1.4,2.6,3,2.6c1.5,0,2.8-1.2,2.8-2.6v-32.2c0-0.5,0.4-0.9,1-0.9c0.5,0,1,0.4,1,0.9v13.4c0,0.9,0.8,1.6,1.7,1.6
			c1,0,1.7-0.7,1.7-1.6v-16.4C106,280.8,103.7,278.8,101,278.8z"/>
		<path class="st3" d="M97.6,321.6c-1.9,0-3.4-1.4-3.4-3.1v-18.4c0-0.3-0.2-0.5-0.5-0.5c-0.3,0-0.5,0.2-0.5,0.5v18.4
			c0,1.7-1.6,3-3.4,3c-1.8,0-3.2-1.4-3.3-3v-32.2c0-0.3-0.2-0.5-0.5-0.5c-0.3,0-0.5,0.2-0.5,0.5v13.4c0,1.1-1,2-2.2,2
			c-1.2,0-2.2-0.9-2.2-2v-16.4c0-2.7,2.4-4.9,5.4-4.9H101c3,0,5.4,2.2,5.4,4.9v16.4c0,1.1-1,2-2.2,2c-1.2,0-2.2-0.9-2.2-2v-13.5
			c0-0.3-0.2-0.5-0.5-0.5s-0.5,0.2-0.5,0.5v32.2C101,320.2,99.5,321.6,97.6,321.6z M93.7,298.8c0.8,0,1.4,0.6,1.4,1.3v18.4
			c0,1.3,1.2,2.2,2.6,2.2c1.3,0,2.4-1,2.4-2.2v-32.2c0-0.7,0.6-1.3,1.4-1.3c0.8,0,1.4,0.6,1.4,1.3v13.4c0,0.7,0.6,1.2,1.3,1.2
			s1.3-0.5,1.3-1.2v-16.4c0-2.3-2-4.1-4.5-4.1H86.4c-2.5,0-4.5,1.8-4.5,4.1v16.4c0,0.7,0.6,1.2,1.3,1.2c0.7,0,1.3-0.5,1.3-1.2v-13.5
			c0-0.7,0.6-1.3,1.4-1.3c0.8,0,1.4,0.6,1.4,1.3v32.2c0,1.3,1.2,2.2,2.6,2.2c1.3,0,2.4-1,2.4-2.2v-18.4
			C92.3,299.4,93,298.8,93.7,298.8z"/>
		<path class="st3" d="M93.7,275.8c3.1,0,5.7-2.3,5.7-5.2c0-2.9-2.5-5.2-5.7-5.2c-3.1,0-5.7,2.3-5.7,5.2
			C88,273.5,90.6,275.8,93.7,275.8z"/>
		<path class="st3" d="M93.7,276.2c-3.4,0-6.1-2.5-6.1-5.6s2.7-5.6,6.1-5.6c3.4,0,6.1,2.5,6.1,5.6C99.8,273.7,97.1,276.2,93.7,276.2
			z M93.7,265.8c-2.9,0-5.2,2.1-5.2,4.8c0,2.6,2.3,4.8,5.2,4.8c2.9,0,5.2-2.1,5.2-4.8C99,268,96.6,265.8,93.7,265.8z"/>
	</g>
</g>
<g>
	<defs>
		<rect id="SVGID_9_" x="178.6" y="265" width="61.9" height="56.5"/>
	</defs>
	<clipPath id="SVGID_10_">
		<use xlink:href="#SVGID_9_"  style="overflow:visible;"/>
	</clipPath>
	<g class="st6">
		<path class="st7" d="M216.9,278.8h-14.6c-2.7,0-4.9,2-4.9,4.5v16.4c0,0.9,0.8,1.6,1.7,1.6s1.7-0.7,1.7-1.6v-13.5
			c0-0.5,0.4-0.9,1-0.9c0.5,0,1,0.4,1,0.9v32.2c0.1,1.5,1.4,2.6,3,2.6c1.5,0,2.8-1.2,2.8-2.6v-18.4c0-0.5,0.4-0.9,1-0.9
			c0.5,0,1,0.4,1,0.9v18.4c0.1,1.5,1.4,2.6,3,2.6c1.5,0,2.8-1.2,2.8-2.6v-32.2c0-0.5,0.4-0.9,1-0.9c0.5,0,1,0.4,1,0.9v13.4
			c0,0.9,0.8,1.6,1.7,1.6c1,0,1.7-0.7,1.7-1.6v-16.4C221.8,280.8,219.6,278.8,216.9,278.8z"/>
		<path class="st7" d="M213.5,321.6c-1.9,0-3.4-1.4-3.4-3.1v-18.4c0-0.3-0.2-0.5-0.5-0.5c-0.3,0-0.5,0.2-0.5,0.5v18.4
			c0,1.7-1.6,3-3.4,3c-1.8,0-3.2-1.4-3.3-3v-32.2c0-0.3-0.2-0.5-0.5-0.5c-0.3,0-0.5,0.2-0.5,0.5v13.4c0,1.1-1,2-2.2,2
			s-2.2-0.9-2.2-2v-16.4c0-2.7,2.4-4.9,5.4-4.9h14.6c3,0,5.4,2.2,5.4,4.9v16.4c0,1.1-1,2-2.2,2c-1.2,0-2.2-0.9-2.2-2v-13.5
			c0-0.3-0.2-0.5-0.5-0.5c-0.3,0-0.5,0.2-0.5,0.5v32.2C216.8,320.2,215.3,321.6,213.5,321.6z M209.6,298.8c0.8,0,1.4,0.6,1.4,1.3
			v18.4c0,1.3,1.2,2.2,2.6,2.2c1.3,0,2.4-1,2.4-2.2v-32.2c0-0.7,0.6-1.3,1.4-1.3s1.4,0.6,1.4,1.3v13.4c0,0.7,0.6,1.2,1.3,1.2
			s1.3-0.5,1.3-1.2v-16.4c0-2.3-2-4.1-4.5-4.1h-14.6c-2.5,0-4.5,1.8-4.5,4.1v16.4c0,0.7,0.6,1.2,1.3,1.2s1.3-0.5,1.3-1.2v-13.5
			c0-0.7,0.6-1.3,1.4-1.3s1.4,0.6,1.4,1.3v32.2c0,1.3,1.2,2.2,2.6,2.2c1.3,0,2.4-1,2.4-2.2v-18.4
			C208.2,299.4,208.8,298.8,209.6,298.8z"/>
		<path class="st7" d="M209.6,275.8c3.1,0,5.7-2.3,5.7-5.2c0-2.9-2.5-5.2-5.7-5.2c-3.1,0-5.7,2.3-5.7,5.2
			C203.9,273.5,206.4,275.8,209.6,275.8z"/>
		<path class="st7" d="M209.6,276.2c-3.4,0-6.1-2.5-6.1-5.6s2.7-5.6,6.1-5.6c3.4,0,6.1,2.5,6.1,5.6
			C215.7,273.7,212.9,276.2,209.6,276.2z M209.6,265.8c-2.9,0-5.2,2.1-5.2,4.8c0,2.6,2.3,4.8,5.2,4.8c2.9,0,5.2-2.1,5.2-4.8
			C214.8,268,212.5,265.8,209.6,265.8z"/>
	</g>
</g>
<line class="st8" x1="230.3" y1="292.5" x2="240.3" y2="292.5"/>
<line class="st8" x1="227.3" y1="182.5" x2="237.3" y2="182.5"/>
<line class="st8" x1="316.3" y1="292.5" x2="326.3" y2="292.5"/>
<line class="st8" x1="316.3" y1="182.5" x2="326.3" y2="182.5"/>
<g>
	<defs>
		<rect id="SVGID_11_" x="124.7" y="376" width="61.9" height="56.5"/>
	</defs>
	<clipPath id="SVGID_12_">
		<use xlink:href="#SVGID_11_"  style="overflow:visible;"/>
	</clipPath>
	<g class="st9">
		<path class="st7" d="M162.9,389.8h-14.6c-2.7,0-4.9,2-4.9,4.5v16.4c0,0.9,0.8,1.6,1.7,1.6s1.7-0.7,1.7-1.6v-13.5
			c0-0.5,0.4-0.9,1-0.9c0.5,0,1,0.4,1,0.9v32.2c0.1,1.5,1.4,2.6,3,2.6c1.5,0,2.8-1.2,2.8-2.6v-18.4c0-0.5,0.4-0.9,1-0.9
			c0.5,0,1,0.4,1,0.9v18.4c0.1,1.5,1.4,2.6,3,2.6c1.5,0,2.8-1.2,2.8-2.6v-32.2c0-0.5,0.4-0.9,1-0.9c0.5,0,1,0.4,1,0.9v13.4
			c0,0.9,0.8,1.6,1.7,1.6c1,0,1.7-0.7,1.7-1.6v-16.4C167.9,391.8,165.6,389.8,162.9,389.8z"/>
		<path class="st7" d="M159.5,432.6c-1.9,0-3.4-1.4-3.4-3.1v-18.4c0-0.3-0.2-0.5-0.5-0.5c-0.3,0-0.5,0.2-0.5,0.5v18.4
			c0,1.7-1.6,3-3.4,3c-1.8,0-3.2-1.4-3.3-3v-32.2c0-0.3-0.2-0.5-0.5-0.5c-0.3,0-0.5,0.2-0.5,0.5v13.4c0,1.1-1,2-2.2,2
			c-1.2,0-2.2-0.9-2.2-2v-16.4c0-2.7,2.4-4.9,5.4-4.9h14.6c3,0,5.4,2.2,5.4,4.9v16.4c0,1.1-1,2-2.2,2c-1.2,0-2.2-0.9-2.2-2v-13.5
			c0-0.3-0.2-0.5-0.5-0.5c-0.3,0-0.5,0.2-0.5,0.5v32.2C162.9,431.2,161.4,432.6,159.5,432.6z M155.6,409.8c0.8,0,1.4,0.6,1.4,1.3
			v18.4c0,1.3,1.2,2.2,2.6,2.2c1.3,0,2.4-1,2.4-2.2v-32.2c0-0.7,0.6-1.3,1.4-1.3c0.8,0,1.4,0.6,1.4,1.3v13.4c0,0.7,0.6,1.2,1.3,1.2
			s1.3-0.5,1.3-1.2v-16.4c0-2.3-2-4.1-4.5-4.1h-14.6c-2.5,0-4.5,1.8-4.5,4.1v16.4c0,0.7,0.6,1.2,1.3,1.2s1.3-0.5,1.3-1.2v-13.5
			c0-0.7,0.6-1.3,1.4-1.3s1.4,0.6,1.4,1.3v32.2c0,1.3,1.2,2.2,2.6,2.2c1.3,0,2.4-1,2.4-2.2v-18.4
			C154.2,410.4,154.8,409.8,155.6,409.8z"/>
		<path class="st7" d="M155.6,386.8c3.1,0,5.7-2.3,5.7-5.2c0-2.9-2.5-5.2-5.7-5.2c-3.1,0-5.7,2.3-5.7,5.2
			C149.9,384.5,152.5,386.8,155.6,386.8z"/>
		<path class="st7" d="M155.6,387.2c-3.4,0-6.1-2.5-6.1-5.6s2.7-5.6,6.1-5.6c3.4,0,6.1,2.5,6.1,5.6
			C161.7,384.7,159,387.2,155.6,387.2z M155.6,376.8c-2.9,0-5.2,2.1-5.2,4.8c0,2.6,2.3,4.8,5.2,4.8c2.9,0,5.2-2.1,5.2-4.8
			C160.9,379,158.5,376.8,155.6,376.8z"/>
	</g>
</g>
<g>
	<defs>
		<rect id="SVGID_13_" x="318.3" y="265" width="61.9" height="56.5"/>
	</defs>
	<clipPath id="SVGID_14_">
		<use xlink:href="#SVGID_13_"  style="overflow:visible;"/>
	</clipPath>
	<g class="st10">
		<path class="st7" d="M356.6,278.8H342c-2.7,0-4.9,2-5,4.5v16.4c0,0.9,0.8,1.6,1.7,1.6c1,0,1.7-0.7,1.7-1.6v-13.5
			c0-0.5,0.4-0.9,1-0.9c0.5,0,1,0.4,1,0.9v32.2c0.1,1.5,1.4,2.6,3,2.6c1.5,0,2.8-1.2,2.8-2.6v-18.4c0-0.5,0.4-0.9,1-0.9s1,0.4,1,0.9
			v18.4c0.1,1.5,1.4,2.6,3,2.6c1.5,0,2.8-1.2,2.8-2.6v-32.2c0-0.5,0.4-0.9,1-0.9c0.5,0,1,0.4,1,0.9v13.4c0,0.9,0.8,1.6,1.7,1.6
			c1,0,1.7-0.7,1.7-1.6v-16.4C361.5,280.8,359.3,278.8,356.6,278.8z"/>
		<path class="st7" d="M353.2,321.6c-1.9,0-3.4-1.4-3.4-3.1v-18.4c0-0.3-0.2-0.5-0.5-0.5c-0.3,0-0.5,0.2-0.5,0.5v18.4
			c0,1.7-1.6,3-3.4,3c-1.8,0-3.2-1.4-3.3-3v-32.2c0-0.3-0.2-0.5-0.5-0.5s-0.5,0.2-0.5,0.5v13.4c0,1.1-1,2-2.2,2s-2.2-0.9-2.2-2
			v-16.4c0-2.7,2.4-4.9,5.4-4.9h14.6c3,0,5.4,2.2,5.4,4.9v16.4c0,1.1-1,2-2.2,2c-1.2,0-2.2-0.9-2.2-2v-13.5c0-0.3-0.2-0.5-0.5-0.5
			s-0.5,0.2-0.5,0.5v32.2C356.5,320.2,355,321.6,353.2,321.6z M349.3,298.8c0.8,0,1.4,0.6,1.4,1.3v18.4c0,1.3,1.2,2.2,2.6,2.2
			c1.3,0,2.4-1,2.4-2.2v-32.2c0-0.7,0.6-1.3,1.4-1.3c0.8,0,1.4,0.6,1.4,1.3v13.4c0,0.7,0.6,1.2,1.3,1.2c0.7,0,1.3-0.5,1.3-1.2v-16.4
			c0-2.3-2-4.1-4.5-4.1H342c-2.5,0-4.5,1.8-4.5,4.1v16.4c0,0.7,0.6,1.2,1.3,1.2c0.7,0,1.3-0.5,1.3-1.2v-13.5c0-0.7,0.6-1.3,1.4-1.3
			c0.8,0,1.4,0.6,1.4,1.3v32.2c0,1.3,1.2,2.2,2.6,2.2c1.3,0,2.4-1,2.4-2.2v-18.4C347.9,299.4,348.5,298.8,349.3,298.8z"/>
		<path class="st7" d="M349.3,275.8c3.1,0,5.7-2.3,5.7-5.2c0-2.9-2.5-5.2-5.7-5.2s-5.7,2.3-5.7,5.2
			C343.6,273.5,346.1,275.8,349.3,275.8z"/>
		<path class="st7" d="M349.3,276.2c-3.4,0-6.1-2.5-6.1-5.6s2.7-5.6,6.1-5.6c3.4,0,6.1,2.5,6.1,5.6
			C355.4,273.7,352.7,276.2,349.3,276.2z M349.3,265.8c-2.9,0-5.2,2.1-5.2,4.8c0,2.6,2.3,4.8,5.2,4.8s5.2-2.1,5.2-4.8
			C354.5,268,352.2,265.8,349.3,265.8z"/>
	</g>
</g>
<g>
	<defs>
		<rect id="SVGID_15_" x="371.4" y="376" width="61.9" height="56.5"/>
	</defs>
	<clipPath id="SVGID_16_">
		<use xlink:href="#SVGID_15_"  style="overflow:visible;"/>
	</clipPath>
	<g class="st11">
		<path class="st7" d="M409.6,389.8H395c-2.7,0-4.9,2-5,4.5v16.4c0,0.9,0.8,1.6,1.7,1.6s1.7-0.7,1.7-1.6v-13.5c0-0.5,0.4-0.9,1-0.9
			s1,0.4,1,0.9v32.2c0.1,1.5,1.4,2.6,3,2.6c1.5,0,2.8-1.2,2.8-2.6v-18.4c0-0.5,0.4-0.9,1-0.9s1,0.4,1,0.9v18.4
			c0.1,1.5,1.4,2.6,3,2.6c1.5,0,2.8-1.2,2.8-2.6v-32.2c0-0.5,0.4-0.9,1-0.9c0.5,0,1,0.4,1,0.9v13.4c0,0.9,0.8,1.6,1.7,1.6
			c1,0,1.7-0.7,1.7-1.6v-16.4C414.6,391.8,412.3,389.8,409.6,389.8z"/>
		<path class="st7" d="M406.2,432.6c-1.9,0-3.4-1.4-3.4-3.1v-18.4c0-0.3-0.2-0.5-0.5-0.5c-0.3,0-0.5,0.2-0.5,0.5v18.4
			c0,1.7-1.6,3-3.4,3c-1.8,0-3.2-1.4-3.3-3v-32.2c0-0.3-0.2-0.5-0.5-0.5c-0.3,0-0.5,0.2-0.5,0.5v13.4c0,1.1-1,2-2.2,2
			c-1.2,0-2.2-0.9-2.2-2v-16.4c0-2.7,2.4-4.9,5.4-4.9h14.6c3,0,5.4,2.2,5.4,4.9v16.4c0,1.1-1,2-2.2,2c-1.2,0-2.2-0.9-2.2-2v-13.5
			c0-0.3-0.2-0.5-0.5-0.5c-0.3,0-0.5,0.2-0.5,0.5v32.2C409.6,431.2,408.1,432.6,406.2,432.6z M402.3,409.8c0.8,0,1.4,0.6,1.4,1.3
			v18.4c0,1.3,1.2,2.2,2.6,2.2c1.3,0,2.4-1,2.4-2.2v-32.2c0-0.7,0.6-1.3,1.4-1.3s1.4,0.6,1.4,1.3v13.4c0,0.7,0.6,1.2,1.3,1.2
			c0.7,0,1.3-0.5,1.3-1.2v-16.4c0-2.3-2-4.1-4.5-4.1H395c-2.5,0-4.5,1.8-4.5,4.1v16.4c0,0.7,0.6,1.2,1.3,1.2c0.7,0,1.3-0.5,1.3-1.2
			v-13.5c0-0.7,0.6-1.3,1.4-1.3c0.8,0,1.4,0.6,1.4,1.3v32.2c0,1.3,1.2,2.2,2.5,2.2c1.3,0,2.4-1,2.4-2.2v-18.4
			C400.9,410.4,401.6,409.8,402.3,409.8z"/>
		<path class="st7" d="M402.3,386.8c3.1,0,5.7-2.3,5.7-5.2c0-2.9-2.5-5.2-5.7-5.2c-3.1,0-5.7,2.3-5.7,5.2
			C396.6,384.5,399.2,386.8,402.3,386.8z"/>
		<path class="st7" d="M402.3,387.2c-3.4,0-6.1-2.5-6.1-5.6s2.7-5.6,6.1-5.6c3.4,0,6.1,2.5,6.1,5.6
			C408.4,384.7,405.7,387.2,402.3,387.2z M402.3,376.8c-2.9,0-5.2,2.1-5.2,4.8c0,2.6,2.3,4.8,5.2,4.8c2.9,0,5.2-2.1,5.2-4.8
			C407.6,379,405.2,376.8,402.3,376.8z"/>
	</g>
</g>
<g>
	<defs>
		<rect id="SVGID_17_" x="428" y="265" width="61.9" height="56.5"/>
	</defs>
	<clipPath id="SVGID_18_">
		<use xlink:href="#SVGID_17_"  style="overflow:visible;"/>
	</clipPath>
	<g class="st12">
		<path class="st3" d="M466.2,278.8h-14.6c-2.7,0-4.9,2-5,4.5v16.4c0,0.9,0.8,1.6,1.7,1.6c1,0,1.7-0.7,1.7-1.6v-13.5
			c0-0.5,0.4-0.9,1-0.9c0.5,0,1,0.4,1,0.9v32.2c0.1,1.5,1.4,2.6,3,2.6c1.5,0,2.8-1.2,2.8-2.6v-18.4c0-0.5,0.4-0.9,1-0.9s1,0.4,1,0.9
			v18.4c0.1,1.5,1.4,2.6,3,2.6c1.5,0,2.8-1.2,2.8-2.6v-32.2c0-0.5,0.4-0.9,1-0.9c0.5,0,1,0.4,1,0.9v13.4c0,0.9,0.8,1.6,1.7,1.6
			c1,0,1.7-0.7,1.7-1.6v-16.4C471.1,280.8,468.9,278.8,466.2,278.8z"/>
		<path class="st3" d="M462.8,321.6c-1.9,0-3.4-1.4-3.4-3.1v-18.4c0-0.3-0.2-0.5-0.5-0.5c-0.3,0-0.5,0.2-0.5,0.5v18.4
			c0,1.7-1.6,3-3.4,3c-1.8,0-3.2-1.4-3.3-3v-32.2c0-0.3-0.2-0.5-0.5-0.5s-0.5,0.2-0.5,0.5v13.4c0,1.1-1,2-2.2,2
			c-1.2,0-2.2-0.9-2.2-2v-16.4c0-2.7,2.4-4.9,5.4-4.9h14.6c3,0,5.4,2.2,5.4,4.9v16.4c0,1.1-1,2-2.2,2c-1.2,0-2.2-0.9-2.2-2v-13.5
			c0-0.3-0.2-0.5-0.5-0.5s-0.5,0.2-0.5,0.5v32.2C466.2,320.2,464.7,321.6,462.8,321.6z M458.9,298.8c0.8,0,1.4,0.6,1.4,1.3v18.4
			c0,1.3,1.2,2.2,2.6,2.2c1.3,0,2.4-1,2.4-2.2v-32.2c0-0.7,0.6-1.3,1.4-1.3c0.8,0,1.4,0.6,1.4,1.3v13.4c0,0.7,0.6,1.2,1.3,1.2
			c0.7,0,1.3-0.5,1.3-1.2v-16.4c0-2.3-2-4.1-4.5-4.1h-14.6c-2.5,0-4.5,1.8-4.5,4.1v16.4c0,0.7,0.6,1.2,1.3,1.2
			c0.7,0,1.3-0.5,1.3-1.2v-13.5c0-0.7,0.6-1.3,1.4-1.3c0.8,0,1.4,0.6,1.4,1.3v32.2c0,1.3,1.2,2.2,2.6,2.2c1.3,0,2.4-1,2.4-2.2v-18.4
			C457.5,299.4,458.1,298.8,458.9,298.8z"/>
		<path class="st3" d="M458.9,275.8c3.1,0,5.7-2.3,5.7-5.2c0-2.9-2.5-5.2-5.7-5.2c-3.1,0-5.7,2.3-5.7,5.2
			C453.2,273.5,455.8,275.8,458.9,275.8z"/>
		<path class="st3" d="M458.9,276.2c-3.4,0-6.1-2.5-6.1-5.6s2.7-5.6,6.1-5.6c3.4,0,6.1,2.5,6.1,5.6
			C465,273.7,462.3,276.2,458.9,276.2z M458.9,265.8c-2.9,0-5.2,2.1-5.2,4.8c0,2.6,2.3,4.8,5.2,4.8c2.9,0,5.2-2.1,5.2-4.8
			C464.2,268,461.8,265.8,458.9,265.8z"/>
	</g>
</g>
<g>
	<defs>
		<rect id="SVGID_19_" x="123.8" y="151" width="61.9" height="56.5"/>
	</defs>
	<clipPath id="SVGID_20_">
		<use xlink:href="#SVGID_19_"  style="overflow:visible;"/>
	</clipPath>
	<g class="st13">
		<path class="st3" d="M162,164.8h-14.6c-2.7,0-4.9,2-4.9,4.5v16.4c0,0.9,0.8,1.6,1.7,1.6s1.7-0.7,1.7-1.6v-13.5
			c0-0.5,0.4-0.9,1-0.9c0.5,0,1,0.4,1,0.9v32.2c0.1,1.5,1.4,2.6,3,2.6c1.5,0,2.8-1.2,2.8-2.6v-18.4c0-0.5,0.4-0.9,1-0.9
			c0.5,0,1,0.4,1,0.9v18.4c0.1,1.5,1.4,2.6,3,2.6c1.5,0,2.8-1.2,2.8-2.6v-32.2c0-0.5,0.4-0.9,1-0.9c0.5,0,1,0.4,1,0.9v13.4
			c0,0.9,0.8,1.6,1.7,1.6s1.7-0.7,1.7-1.6v-16.4C167,166.8,164.8,164.8,162,164.8z"/>
		<path class="st3" d="M158.6,207.6c-1.9,0-3.4-1.4-3.4-3.1v-18.4c0-0.3-0.2-0.5-0.5-0.5c-0.3,0-0.5,0.2-0.5,0.5v18.4
			c0,1.7-1.6,3-3.4,3c-1.8,0-3.2-1.4-3.3-3v-32.2c0-0.3-0.2-0.5-0.5-0.5c-0.3,0-0.5,0.2-0.5,0.5v13.4c0,1.1-1,2-2.2,2
			s-2.2-0.9-2.2-2v-16.4c0-2.7,2.4-4.9,5.4-4.9H162c3,0,5.4,2.2,5.4,4.9v16.4c0,1.1-1,2-2.2,2s-2.2-0.9-2.2-2v-13.5
			c0-0.3-0.2-0.5-0.5-0.5c-0.3,0-0.5,0.2-0.5,0.5v32.2C162,206.2,160.5,207.6,158.6,207.6z M154.7,184.8c0.8,0,1.4,0.6,1.4,1.3v18.4
			c0,1.3,1.2,2.2,2.6,2.2c1.3,0,2.4-1,2.4-2.2v-32.2c0-0.7,0.6-1.3,1.4-1.3c0.8,0,1.4,0.6,1.4,1.3v13.4c0,0.7,0.6,1.2,1.3,1.2
			s1.3-0.5,1.3-1.2v-16.4c0-2.3-2-4.1-4.5-4.1h-14.6c-2.5,0-4.5,1.8-4.5,4.1v16.4c0,0.7,0.6,1.2,1.3,1.2c0.7,0,1.3-0.5,1.3-1.2
			v-13.5c0-0.7,0.6-1.3,1.4-1.3c0.8,0,1.4,0.6,1.4,1.3v32.2c0,1.3,1.2,2.2,2.6,2.2c1.3,0,2.4-1,2.4-2.2v-18.4
			C153.3,185.4,154,184.8,154.7,184.8z"/>
		<path class="st3" d="M154.7,161.8c3.1,0,5.7-2.3,5.7-5.2c0-2.9-2.5-5.2-5.7-5.2c-3.1,0-5.7,2.3-5.7,5.2
			C149.1,159.5,151.6,161.8,154.7,161.8z"/>
		<path class="st3" d="M154.7,162.2c-3.4,0-6.1-2.5-6.1-5.6c0-3.1,2.7-5.6,6.1-5.6c3.4,0,6.1,2.5,6.1,5.6
			C160.9,159.7,158.1,162.2,154.7,162.2z M154.7,151.8c-2.9,0-5.2,2.1-5.2,4.8c0,2.6,2.3,4.8,5.2,4.8c2.9,0,5.2-2.1,5.2-4.8
			C160,154,157.6,151.8,154.7,151.8z"/>
	</g>
</g>
<g>
	<defs>
		<rect id="SVGID_21_" x="370.5" y="151" width="61.9" height="56.5"/>
	</defs>
	<clipPath id="SVGID_22_">
		<use xlink:href="#SVGID_21_"  style="overflow:visible;"/>
	</clipPath>
	<g class="st14">
		<path class="st3" d="M408.7,164.8h-14.6c-2.7,0-4.9,2-4.9,4.5v16.4c0,0.9,0.8,1.6,1.7,1.6c1,0,1.7-0.7,1.7-1.6v-13.5
			c0-0.5,0.4-0.9,1-0.9s1,0.4,1,0.9v32.2c0.1,1.5,1.4,2.6,3,2.6c1.5,0,2.8-1.2,2.8-2.6v-18.4c0-0.5,0.4-0.9,1-0.9c0.5,0,1,0.4,1,0.9
			v18.4c0.1,1.5,1.4,2.6,3,2.6c1.5,0,2.8-1.2,2.8-2.6v-32.2c0-0.5,0.4-0.9,1-0.9s1,0.4,1,0.9v13.4c0,0.9,0.8,1.6,1.7,1.6
			c1,0,1.7-0.7,1.7-1.6v-16.4C413.7,166.8,411.5,164.8,408.7,164.8z"/>
		<path class="st3" d="M405.3,207.6c-1.9,0-3.4-1.4-3.4-3.1v-18.4c0-0.3-0.2-0.5-0.5-0.5c-0.3,0-0.5,0.2-0.5,0.5v18.4
			c0,1.7-1.6,3-3.4,3c-1.8,0-3.2-1.4-3.3-3v-32.2c0-0.3-0.2-0.5-0.5-0.5c-0.3,0-0.5,0.2-0.5,0.5v13.4c0,1.1-1,2-2.2,2
			c-1.2,0-2.2-0.9-2.2-2v-16.4c0-2.7,2.4-4.9,5.4-4.9h14.6c3,0,5.4,2.2,5.4,4.9v16.4c0,1.1-1,2-2.2,2c-1.2,0-2.2-0.9-2.2-2v-13.5
			c0-0.3-0.2-0.5-0.5-0.5c-0.3,0-0.5,0.2-0.5,0.5v32.2C408.7,206.2,407.2,207.6,405.3,207.6z M401.4,184.8c0.8,0,1.4,0.6,1.4,1.3
			v18.4c0,1.3,1.2,2.2,2.6,2.2c1.3,0,2.4-1,2.4-2.2v-32.2c0-0.7,0.6-1.3,1.4-1.3s1.4,0.6,1.4,1.3v13.4c0,0.7,0.6,1.2,1.3,1.2
			c0.7,0,1.3-0.5,1.3-1.2v-16.4c0-2.3-2-4.1-4.5-4.1h-14.6c-2.5,0-4.5,1.8-4.5,4.1v16.4c0,0.7,0.6,1.2,1.3,1.2
			c0.7,0,1.3-0.5,1.3-1.2v-13.5c0-0.7,0.6-1.3,1.4-1.3s1.4,0.6,1.4,1.3v32.2c0,1.3,1.2,2.2,2.5,2.2c1.3,0,2.4-1,2.4-2.2v-18.4
			C400,185.4,400.7,184.8,401.4,184.8z"/>
		<path class="st3" d="M401.4,161.8c3.1,0,5.7-2.3,5.7-5.2c0-2.9-2.5-5.2-5.7-5.2c-3.1,0-5.7,2.3-5.7,5.2
			C395.8,159.5,398.3,161.8,401.4,161.8z"/>
		<path class="st3" d="M401.4,162.2c-3.4,0-6.1-2.5-6.1-5.6c0-3.1,2.7-5.6,6.1-5.6c3.4,0,6.1,2.5,6.1,5.6
			C407.6,159.7,404.8,162.2,401.4,162.2z M401.4,151.8c-2.9,0-5.2,2.1-5.2,4.8c0,2.6,2.3,4.8,5.2,4.8c2.9,0,5.2-2.1,5.2-4.8
			C406.7,154,404.3,151.8,401.4,151.8z"/>
	</g>
</g>
<line class="st8" x1="71.5" y1="328.3" x2="43.8" y2="374.7"/>
<line class="st8" x1="178.3" y1="403.5" x2="236.2" y2="403.5"/>
<line class="st8" x1="321.3" y1="403.5" x2="379.2" y2="403.5"/>
<line class="st8" x1="444.7" y1="328.3" x2="416.9" y2="374.7"/>
<line class="st8" x1="505.3" y1="374.7" x2="477.6" y2="328.3"/>
<line class="st8" x1="142.3" y1="374.7" x2="114.5" y2="328.3"/>
<line class="st8" x1="141.4" y1="216" x2="113.6" y2="262.4"/>
<line class="st8" x1="391.6" y1="216" x2="363.9" y2="262.4"/>
<line class="st8" x1="443.4" y1="262.4" x2="415.7" y2="216"/>
<line class="st8" x1="194.4" y1="264" x2="166.7" y2="217.6"/>
<line class="st8" x1="204.4" y1="94.6" x2="176.7" y2="141"/>
<line class="st8" x1="386.3" y1="141" x2="358.6" y2="94.6"/>
<circle class="st15" cx="137" cy="294" r="20"/>
<linearGradient id="SVGID_23_" gradientUnits="userSpaceOnUse" x1="116" y1="163.9245" x2="156" y2="123.9245" gradientTransform="matrix(1 0 0 -1 0 435.9592)">
	<stop  offset="0.2333" style="stop-color:#F9FFFE"/>
	<stop  offset="1" style="stop-color:#C0BFB5"/>
</linearGradient>
<circle class="st16" cx="136" cy="292" r="20"/>
<path d="M124.7,297v-7.3h-1.3v-2.1h3.8v9.3H124.7z M133.5,290c-0.2-0.2-0.5-0.3-0.7-0.3s-0.5,0.1-0.7,0.3c-0.2,0.2-0.4,0.6-0.6,1
	c-0.1,0.5-0.2,0.9-0.2,1.4c0,0.4,0.1,0.9,0.2,1.4c0.1,0.5,0.3,0.8,0.6,1.1c0.2,0.2,0.5,0.3,0.7,0.3s0.5-0.1,0.7-0.3
	c0.2-0.2,0.4-0.6,0.6-1c0.1-0.5,0.2-0.9,0.2-1.4s-0.1-0.9-0.2-1.4C133.9,290.5,133.7,290.2,133.5,290z M136.7,292.4
	c0,1.6-0.5,2.9-1.4,3.8c-0.7,0.7-1.6,1.1-2.6,1.1c-1,0-1.9-0.4-2.6-1.1c-0.9-0.9-1.4-2.2-1.4-3.8c0-1.6,0.5-2.9,1.4-3.8
	c0.7-0.7,1.6-1.1,2.6-1.1c1,0,1.9,0.4,2.6,1.1C136.3,289.5,136.7,290.7,136.7,292.4z M144,286.2h1.4v1.5c0.7,0,1.4,0.3,2.1,0.7
	l-0.9,1.8c-0.5-0.4-1-0.6-1.6-0.6c-0.4,0-0.7,0.1-0.8,0.3c-0.1,0.1-0.2,0.3-0.2,0.5c0,0.2,0.1,0.3,0.2,0.5c0.2,0.1,0.4,0.3,0.6,0.4
	l0.7,0.3c0.7,0.2,1.3,0.5,1.6,0.9c0.5,0.5,0.7,1,0.7,1.7c0,0.9-0.3,1.6-0.8,2.1c-0.4,0.4-1,0.7-1.7,0.9v1.6H144v-1.5
	c-0.5,0-1.1-0.1-1.6-0.3c-0.5-0.2-0.9-0.5-1.4-0.8l1-1.9c0.3,0.3,0.7,0.6,1,0.7c0.4,0.2,0.9,0.3,1.3,0.3c0.4,0,0.7-0.1,0.9-0.3
	c0.2-0.2,0.3-0.4,0.3-0.6c0-0.2-0.1-0.4-0.3-0.5c-0.1-0.1-0.3-0.2-0.6-0.3l-0.8-0.3c-0.7-0.2-1.2-0.5-1.5-0.9
	c-0.4-0.4-0.6-1-0.6-1.6c0-0.8,0.2-1.5,0.7-2c0.4-0.5,1-0.8,1.7-0.9V286.2z"/>
<circle class="st17" cx="278.5" cy="407.5" r="28.5"/>
<linearGradient id="SVGID_24_" gradientUnits="userSpaceOnUse" x1="248" y1="59.9245" x2="305" y2="2.9245" gradientTransform="matrix(1 0 0 -1 0 435.9592)">
	<stop  offset="0.2333" style="stop-color:#EECA48"/>
	<stop  offset="0.4927" style="stop-color:#E2B321"/>
	<stop  offset="1" style="stop-color:#F8F37F"/>
</linearGradient>
<circle class="st18" cx="276.5" cy="404.5" r="28.5"/>
<path d="M266.6,398.4v2.8h-4.4l-0.2,1.4c0.4-0.1,0.7-0.1,1-0.1c1.4,0,2.5,0.4,3.3,1.3c0.8,0.8,1.2,1.8,1.2,3c0,1.3-0.4,2.3-1.2,3.2
	c-0.9,1-2.2,1.4-4,1.4c-1.6,0-3.1-0.4-4.3-1.1l0.5-3.1c0.5,0.4,1,0.8,1.5,1c0.6,0.3,1.3,0.4,1.9,0.4c0.7,0,1.3-0.2,1.7-0.6
	c0.3-0.4,0.5-0.8,0.5-1.3c0-0.6-0.2-1-0.6-1.4c-0.5-0.4-1.2-0.6-2.3-0.6c-0.8,0-1.6,0.2-2.3,0.5l1.1-6.8H266.6z M275.3,401.4
	c-0.3-0.3-0.6-0.4-1-0.4c-0.4,0-0.7,0.1-1,0.4c-0.3,0.3-0.6,0.7-0.8,1.4c-0.2,0.6-0.3,1.3-0.3,1.9c0,0.6,0.1,1.2,0.3,1.9
	c0.2,0.7,0.5,1.1,0.8,1.4c0.3,0.3,0.6,0.4,1,0.4c0.4,0,0.7-0.1,1-0.4c0.3-0.3,0.6-0.8,0.8-1.4c0.2-0.7,0.3-1.3,0.3-1.9
	s-0.1-1.2-0.3-1.9C275.9,402.2,275.6,401.7,275.3,401.4z M279.7,404.7c0,2.2-0.6,3.9-1.9,5.2c-1,1-2.1,1.4-3.5,1.4
	c-1.4,0-2.5-0.5-3.5-1.4c-1.3-1.2-1.9-3-1.9-5.2c0-2.2,0.6-4,1.9-5.2c1-1,2.1-1.4,3.5-1.4c1.4,0,2.5,0.5,3.5,1.4
	C279,400.7,279.7,402.5,279.7,404.7z M289.5,396.3h1.9v2.1c0.9,0.1,1.9,0.4,2.9,1l-1.3,2.4c-0.7-0.5-1.4-0.8-2.1-0.8
	c-0.5,0-0.9,0.1-1.1,0.3c-0.2,0.2-0.3,0.4-0.3,0.6c0,0.2,0.1,0.5,0.3,0.6c0.2,0.2,0.5,0.3,0.9,0.5l1,0.3c1,0.3,1.7,0.7,2.2,1.2
	c0.6,0.6,0.9,1.4,0.9,2.3c0,1.2-0.4,2.1-1.1,2.9c-0.6,0.6-1.3,1-2.3,1.2v2.1h-1.9v-2.1c-0.7,0-1.4-0.2-2.1-0.5
	c-0.7-0.3-1.3-0.6-1.8-1.1l1.4-2.5c0.5,0.4,0.9,0.8,1.3,1c0.6,0.3,1.2,0.4,1.7,0.4c0.5,0,0.9-0.1,1.2-0.4c0.2-0.2,0.3-0.5,0.3-0.8
	c0-0.3-0.1-0.5-0.4-0.7c-0.2-0.1-0.5-0.3-0.9-0.4l-1.1-0.4c-1-0.3-1.7-0.7-2.1-1.2c-0.5-0.6-0.8-1.3-0.8-2.2c0-1.1,0.3-2,1-2.7
	c0.6-0.7,1.4-1.1,2.3-1.3V396.3z"/>
<path class="st19" d="M270.2,351c0-0.3-0.3-0.6-0.6-0.6c-0.3,0-0.6,0.3-0.6,0.6c0,0.3,0.3,0.6,0.6,0.6
	C270,351.6,270.2,351.3,270.2,351z"/>
<path class="st19" d="M272,351c0-0.3-0.3-0.6-0.6-0.6c-0.3,0-0.6,0.3-0.6,0.6c0,0.3,0.3,0.6,0.6,0.6C271.7,351.6,272,351.3,272,351z
	"/>
<path class="st19" d="M271.4,348.3c0.1,0,0.2,0,0.3,0.1c0.1,0.1,0.2,0.2,0.2,0.3c0,0.1,0.1,0.2,0,0.4c0,0.1-0.1,0.2-0.2,0.3
	c-0.1,0.1-0.2,0.1-0.3,0.2c-0.1,0-0.2,0-0.4,0c-0.1,0-0.2-0.1-0.3-0.2c-0.1-0.1-0.1-0.2-0.1-0.3c0-0.2,0.1-0.3,0.2-0.4
	C271.1,348.3,271.2,348.3,271.4,348.3z"/>
<path class="st19" d="M273.8,367.6c0-0.3-0.3-0.6-0.6-0.6s-0.6,0.3-0.6,0.6c0,0.3,0.3,0.6,0.6,0.6S273.8,367.9,273.8,367.6z"/>
<path class="st19" d="M273.8,365.5c0-0.3-0.3-0.6-0.6-0.6s-0.6,0.3-0.6,0.6c0,0.3,0.3,0.6,0.6,0.6S273.8,365.9,273.8,365.5z"/>
<path class="st19" d="M273.2,362.8c0.1,0,0.2,0,0.3,0.1c0.1,0.1,0.2,0.2,0.2,0.3c0,0.1,0.1,0.2,0,0.4c0,0.1-0.1,0.2-0.2,0.3
	c-0.1,0.1-0.2,0.1-0.3,0.2c-0.1,0-0.2,0-0.4,0c-0.1,0-0.2-0.1-0.3-0.2c-0.1-0.1-0.1-0.2-0.1-0.3c0-0.1,0-0.2,0-0.2
	c0-0.1,0.1-0.1,0.1-0.2c0.1-0.1,0.1-0.1,0.2-0.1C273,362.8,273.1,362.8,273.2,362.8z"/>
<path class="st19" d="M273.2,360.7c0.1,0,0.2,0,0.3,0.1c0.1,0.1,0.2,0.2,0.2,0.3c0,0.1,0.1,0.2,0,0.4c0,0.1-0.1,0.2-0.2,0.3
	c-0.1,0.1-0.2,0.1-0.3,0.2c-0.1,0-0.2,0-0.4,0c-0.1-0.1-0.2-0.1-0.3-0.2c-0.1-0.1-0.1-0.2-0.1-0.3c0-0.2,0.1-0.3,0.2-0.4
	C272.8,360.8,273,360.7,273.2,360.7z"/>
<path class="st19" d="M273.2,358.7c0.1,0,0.2,0,0.3,0.1c0.1,0.1,0.2,0.2,0.2,0.3c0,0.1,0.1,0.2,0,0.4c0,0.1-0.1,0.2-0.2,0.3
	c-0.1,0.1-0.2,0.1-0.3,0.2s-0.2,0-0.4,0s-0.2-0.1-0.3-0.2c-0.1-0.1-0.1-0.2-0.1-0.3c0-0.1,0-0.2,0-0.2c0-0.1,0.1-0.1,0.1-0.2
	c0.1-0.1,0.1-0.1,0.2-0.1C273,358.7,273.1,358.7,273.2,358.7z"/>
<path class="st19" d="M273.8,357.2c0-0.3-0.3-0.6-0.6-0.6s-0.6,0.3-0.6,0.6c0,0.3,0.3,0.6,0.6,0.6S273.8,357.5,273.8,357.2z"/>
<path class="st19" d="M273.8,355.1c0-0.3-0.3-0.6-0.6-0.6s-0.6,0.3-0.6,0.6s0.3,0.6,0.6,0.6S273.8,355.5,273.8,355.1z"/>
<path class="st19" d="M273.8,353c0-0.3-0.3-0.6-0.6-0.6s-0.6,0.3-0.6,0.6c0,0.3,0.3,0.6,0.6,0.6S273.8,353.4,273.8,353z"/>
<path class="st19" d="M273.8,351c0-0.3-0.3-0.6-0.6-0.6s-0.6,0.3-0.6,0.6c0,0.3,0.3,0.6,0.6,0.6S273.8,351.3,273.8,351z"/>
<path class="st19" d="M273.2,348.3c0.1,0,0.2,0,0.3,0.1c0.1,0.1,0.2,0.2,0.2,0.3c0,0.1,0.1,0.2,0,0.4c0,0.1-0.1,0.2-0.2,0.3
	c-0.1,0.1-0.2,0.1-0.3,0.2s-0.2,0-0.4,0c-0.1,0-0.2-0.1-0.3-0.2c-0.1-0.1-0.1-0.2-0.1-0.3c0-0.2,0.1-0.3,0.2-0.4
	S273,348.3,273.2,348.3z"/>
<path class="st19" d="M273.8,346.8c0-0.3-0.3-0.6-0.6-0.6s-0.6,0.3-0.6,0.6c0,0.3,0.3,0.6,0.6,0.6S273.8,347.1,273.8,346.8z"/>
<path class="st19" d="M275.5,367.6c0-0.3-0.3-0.6-0.6-0.6s-0.6,0.3-0.6,0.6c0,0.3,0.3,0.6,0.6,0.6S275.5,367.9,275.5,367.6z"/>
<path class="st19" d="M275.5,365.5c0-0.3-0.3-0.6-0.6-0.6s-0.6,0.3-0.6,0.6c0,0.3,0.3,0.6,0.6,0.6S275.5,365.9,275.5,365.5z"/>
<path class="st19" d="M274.9,362.8c0.1,0,0.2,0,0.3,0.1c0.1,0.1,0.2,0.2,0.2,0.3s0.1,0.2,0,0.4c0,0.1-0.1,0.2-0.2,0.3
	c-0.1,0.1-0.2,0.1-0.3,0.2c-0.1,0-0.2,0-0.4,0c-0.1,0-0.2-0.1-0.3-0.2c-0.1-0.1-0.1-0.2-0.1-0.3c0-0.1,0-0.2,0-0.2
	c0-0.1,0.1-0.1,0.1-0.2c0.1-0.1,0.1-0.1,0.2-0.1C274.8,362.8,274.9,362.8,274.9,362.8z"/>
<path class="st19" d="M274.9,360.7c0.1,0,0.2,0,0.3,0.1s0.2,0.2,0.2,0.3c0,0.1,0.1,0.2,0,0.4c0,0.1-0.1,0.2-0.2,0.3
	c-0.1,0.1-0.2,0.1-0.3,0.2c-0.1,0-0.2,0-0.4,0c-0.1-0.1-0.2-0.1-0.3-0.2c-0.1-0.1-0.1-0.2-0.1-0.3c0-0.2,0.1-0.3,0.2-0.4
	C274.6,360.8,274.8,360.7,274.9,360.7z"/>
<path class="st19" d="M274.9,358.7c0.1,0,0.2,0,0.3,0.1c0.1,0.1,0.2,0.2,0.2,0.3c0,0.1,0.1,0.2,0,0.4c0,0.1-0.1,0.2-0.2,0.3
	c-0.1,0.1-0.2,0.1-0.3,0.2c-0.1,0-0.2,0-0.4,0c-0.1,0-0.2-0.1-0.3-0.2c-0.1-0.1-0.1-0.2-0.1-0.3c0-0.1,0-0.2,0-0.2
	c0-0.1,0.1-0.1,0.1-0.2c0.1-0.1,0.1-0.1,0.2-0.1C274.8,358.7,274.9,358.7,274.9,358.7z"/>
<path class="st19" d="M275.5,357.2c0-0.3-0.3-0.6-0.6-0.6s-0.6,0.3-0.6,0.6c0,0.3,0.3,0.6,0.6,0.6S275.5,357.5,275.5,357.2z"/>
<path class="st19" d="M275.5,355.1c0-0.3-0.3-0.6-0.6-0.6s-0.6,0.3-0.6,0.6s0.3,0.6,0.6,0.6S275.5,355.5,275.5,355.1z"/>
<path class="st19" d="M275.5,353c0-0.3-0.3-0.6-0.6-0.6s-0.6,0.3-0.6,0.6c0,0.3,0.3,0.6,0.6,0.6S275.5,353.4,275.5,353z"/>
<path class="st19" d="M275.5,351c0-0.3-0.3-0.6-0.6-0.6s-0.6,0.3-0.6,0.6c0,0.3,0.3,0.6,0.6,0.6S275.5,351.3,275.5,351z"/>
<path class="st19" d="M274.9,348.3c0.1,0,0.2,0,0.3,0.1c0.1,0.1,0.2,0.2,0.2,0.3c0,0.1,0.1,0.2,0,0.4c0,0.1-0.1,0.2-0.2,0.3
	c-0.1,0.1-0.2,0.1-0.3,0.2s-0.2,0-0.4,0s-0.2-0.1-0.3-0.2c-0.1-0.1-0.1-0.2-0.1-0.3c0-0.2,0.1-0.3,0.2-0.4S274.8,348.3,274.9,348.3z
	"/>
<path class="st19" d="M275.5,346.8c0-0.3-0.3-0.6-0.6-0.6s-0.6,0.3-0.6,0.6c0,0.3,0.3,0.6,0.6,0.6S275.5,347.1,275.5,346.8z"/>
<path class="st19" d="M274.9,344.1c0.1,0,0.2,0,0.3,0.1c0.1,0.1,0.2,0.2,0.2,0.3c0,0.1,0.1,0.2,0,0.4c0,0.1-0.1,0.2-0.2,0.3
	s-0.2,0.1-0.3,0.2c-0.1,0-0.2,0-0.4,0c-0.1,0-0.2-0.1-0.3-0.2c-0.1-0.1-0.1-0.2-0.1-0.3c0-0.1,0-0.2,0-0.2c0-0.1,0.1-0.1,0.1-0.2
	c0.1-0.1,0.1-0.1,0.2-0.1C274.8,344.1,274.9,344.1,274.9,344.1z"/>
<path class="st19" d="M277.3,367.6c0-0.3-0.3-0.6-0.6-0.6s-0.6,0.3-0.6,0.6c0,0.3,0.3,0.6,0.6,0.6S277.3,367.9,277.3,367.6z"/>
<path class="st19" d="M277.3,365.5c0-0.3-0.3-0.6-0.6-0.6s-0.6,0.3-0.6,0.6c0,0.3,0.3,0.6,0.6,0.6S277.3,365.9,277.3,365.5z"/>
<path class="st19" d="M276.7,362.8c0.1,0,0.2,0,0.3,0.1c0.1,0.1,0.2,0.2,0.2,0.3s0.1,0.2,0,0.4c0,0.1-0.1,0.2-0.2,0.3
	c-0.1,0.1-0.2,0.1-0.3,0.2c-0.1,0-0.2,0-0.4,0c-0.1,0-0.2-0.1-0.3-0.2c-0.1-0.1-0.1-0.2-0.1-0.3c0-0.1,0-0.2,0-0.2
	c0-0.1,0.1-0.1,0.1-0.2c0.1-0.1,0.1-0.1,0.2-0.1C276.5,362.8,276.6,362.8,276.7,362.8z"/>
<path class="st19" d="M276.7,360.7c0.1,0,0.2,0,0.3,0.1s0.2,0.2,0.2,0.3c0,0.1,0.1,0.2,0,0.4c0,0.1-0.1,0.2-0.2,0.3
	c-0.1,0.1-0.2,0.1-0.3,0.2c-0.1,0-0.2,0-0.4,0c-0.1-0.1-0.2-0.1-0.3-0.2c-0.1-0.1-0.1-0.2-0.1-0.3c0-0.2,0.1-0.3,0.2-0.4
	C276.4,360.8,276.5,360.7,276.7,360.7z"/>
<path class="st19" d="M276.7,358.7c0.1,0,0.2,0,0.3,0.1c0.1,0.1,0.2,0.2,0.2,0.3c0,0.1,0.1,0.2,0,0.4c0,0.1-0.1,0.2-0.2,0.3
	c-0.1,0.1-0.2,0.1-0.3,0.2c-0.1,0-0.2,0-0.4,0c-0.1,0-0.2-0.1-0.3-0.2c-0.1-0.1-0.1-0.2-0.1-0.3c0-0.1,0-0.2,0-0.2
	c0-0.1,0.1-0.1,0.1-0.2c0.1-0.1,0.1-0.1,0.2-0.1C276.5,358.7,276.6,358.7,276.7,358.7z"/>
<path class="st19" d="M277.3,357.2c0-0.3-0.3-0.6-0.6-0.6s-0.6,0.3-0.6,0.6c0,0.3,0.3,0.6,0.6,0.6S277.3,357.5,277.3,357.2z"/>
<path class="st19" d="M277.3,355.1c0-0.3-0.3-0.6-0.6-0.6s-0.6,0.3-0.6,0.6s0.3,0.6,0.6,0.6S277.3,355.5,277.3,355.1z"/>
<path class="st19" d="M277.3,353c0-0.3-0.3-0.6-0.6-0.6s-0.6,0.3-0.6,0.6c0,0.3,0.3,0.6,0.6,0.6S277.3,353.4,277.3,353z"/>
<path class="st19" d="M277.3,351c0-0.3-0.3-0.6-0.6-0.6s-0.6,0.3-0.6,0.6c0,0.3,0.3,0.6,0.6,0.6S277.3,351.3,277.3,351z"/>
<path class="st19" d="M276.7,348.3c0.1,0,0.2,0,0.3,0.1c0.1,0.1,0.2,0.2,0.2,0.3c0,0.1,0.1,0.2,0,0.4c0,0.1-0.1,0.2-0.2,0.3
	c-0.1,0.1-0.2,0.1-0.3,0.2c-0.1,0-0.2,0-0.4,0s-0.2-0.1-0.3-0.2c-0.1-0.1-0.1-0.2-0.1-0.3c0-0.2,0.1-0.3,0.2-0.4
	C276.4,348.3,276.5,348.3,276.7,348.3z"/>
<path class="st19" d="M277.3,346.8c0-0.3-0.3-0.6-0.6-0.6s-0.6,0.3-0.6,0.6c0,0.3,0.3,0.6,0.6,0.6S277.3,347.1,277.3,346.8z"/>
<path class="st19" d="M276.7,344.1c0.1,0,0.2,0,0.3,0.1c0.1,0.1,0.2,0.2,0.2,0.3c0,0.1,0.1,0.2,0,0.4c0,0.1-0.1,0.2-0.2,0.3
	s-0.2,0.1-0.3,0.2c-0.1,0-0.2,0-0.4,0c-0.1,0-0.2-0.1-0.3-0.2c-0.1-0.1-0.1-0.2-0.1-0.3c0-0.1,0-0.2,0-0.2c0-0.1,0.1-0.1,0.1-0.2
	c0.1-0.1,0.1-0.1,0.2-0.1C276.5,344.1,276.6,344.1,276.7,344.1z"/>
<path class="st19" d="M277.3,342.6c0-0.3-0.3-0.6-0.6-0.6s-0.6,0.3-0.6,0.6c0,0.3,0.3,0.6,0.6,0.6S277.3,343,277.3,342.6z"/>
<path class="st19" d="M279.1,367.6c0-0.3-0.3-0.6-0.6-0.6c-0.3,0-0.6,0.3-0.6,0.6c0,0.3,0.3,0.6,0.6,0.6
	C278.8,368.2,279.1,367.9,279.1,367.6z"/>
<path class="st19" d="M279.1,365.5c0-0.3-0.3-0.6-0.6-0.6c-0.3,0-0.6,0.3-0.6,0.6c0,0.3,0.3,0.6,0.6,0.6
	C278.8,366.1,279.1,365.9,279.1,365.5z"/>
<path class="st19" d="M278.5,362.8c0.1,0,0.2,0,0.3,0.1c0.1,0.1,0.2,0.2,0.2,0.3c0,0.1,0.1,0.2,0,0.4c0,0.1-0.1,0.2-0.2,0.3
	c-0.1,0.1-0.2,0.1-0.3,0.2c-0.1,0-0.2,0-0.4,0c-0.1,0-0.2-0.1-0.3-0.2c-0.1-0.1-0.1-0.2-0.1-0.3c0-0.1,0-0.2,0-0.2
	c0-0.1,0.1-0.1,0.1-0.2c0.1-0.1,0.1-0.1,0.2-0.1C278.3,362.8,278.4,362.8,278.5,362.8z"/>
<path class="st19" d="M278.5,360.7c0.2,0,0.3,0.1,0.4,0.2c0.1,0.1,0.2,0.3,0.2,0.4c0,0.2-0.1,0.3-0.2,0.4c-0.1,0.1-0.2,0.2-0.4,0.2
	c-0.1,0-0.2,0-0.3,0c-0.1,0-0.2-0.1-0.2-0.1c-0.1-0.1-0.1-0.1-0.1-0.2s-0.1-0.2-0.1-0.2c0-0.1,0-0.2,0.1-0.2s0.1-0.1,0.1-0.2
	c0.1-0.1,0.1-0.1,0.2-0.1C278.3,360.8,278.4,360.7,278.5,360.7z"/>
<path class="st19" d="M278.5,358.7c0.1,0,0.2,0,0.3,0.1c0.1,0.1,0.2,0.2,0.2,0.3c0,0.1,0.1,0.2,0,0.4c0,0.1-0.1,0.2-0.2,0.3
	c-0.1,0.1-0.2,0.1-0.3,0.2c-0.1,0-0.2,0-0.4,0c-0.1,0-0.2-0.1-0.3-0.2c-0.1-0.1-0.1-0.2-0.1-0.3c0-0.1,0-0.2,0-0.2
	c0-0.1,0.1-0.1,0.1-0.2c0.1-0.1,0.1-0.1,0.2-0.1C278.3,358.7,278.4,358.7,278.5,358.7z"/>
<path class="st19" d="M279.1,357.2c0-0.3-0.3-0.6-0.6-0.6c-0.3,0-0.6,0.3-0.6,0.6c0,0.3,0.3,0.6,0.6,0.6
	C278.8,357.8,279.1,357.5,279.1,357.2z"/>
<path class="st19" d="M279.1,355.1c0-0.3-0.3-0.6-0.6-0.6c-0.3,0-0.6,0.3-0.6,0.6s0.3,0.6,0.6,0.6
	C278.8,355.7,279.1,355.5,279.1,355.1z"/>
<path class="st19" d="M279.1,353c0-0.3-0.3-0.6-0.6-0.6c-0.3,0-0.6,0.3-0.6,0.6c0,0.3,0.3,0.6,0.6,0.6
	C278.8,353.7,279.1,353.4,279.1,353z"/>
<path class="st19" d="M279.1,351c0-0.3-0.3-0.6-0.6-0.6c-0.3,0-0.6,0.3-0.6,0.6c0,0.3,0.3,0.6,0.6,0.6
	C278.8,351.6,279.1,351.3,279.1,351z"/>
<path class="st19" d="M278.5,348.3c0.1,0,0.2,0,0.3,0.1c0.1,0.1,0.2,0.2,0.2,0.3c0,0.1,0.1,0.2,0,0.4c0,0.1-0.1,0.2-0.2,0.3
	c-0.1,0.1-0.2,0.1-0.3,0.2c-0.1,0-0.2,0-0.4,0s-0.2-0.1-0.3-0.2c-0.1-0.1-0.1-0.2-0.1-0.3c0-0.2,0.1-0.3,0.2-0.4
	S278.3,348.3,278.5,348.3z"/>
<path class="st19" d="M279.1,346.8c0-0.3-0.3-0.6-0.6-0.6c-0.3,0-0.6,0.3-0.6,0.6c0,0.3,0.3,0.6,0.6,0.6
	C278.8,347.4,279.1,347.1,279.1,346.8z"/>
<path class="st19" d="M278.5,344.1c0.2,0,0.3,0.1,0.4,0.2c0.1,0.1,0.2,0.3,0.2,0.4c0,0.2-0.1,0.3-0.2,0.4c-0.1,0.1-0.2,0.2-0.4,0.2
	c-0.1,0-0.2,0-0.3,0c-0.1,0-0.2-0.1-0.2-0.1c-0.1-0.1-0.1-0.1-0.1-0.2c0-0.1-0.1-0.2-0.1-0.2c0-0.1,0-0.2,0.1-0.2s0.1-0.1,0.1-0.2
	c0.1-0.1,0.1-0.1,0.2-0.1C278.3,344.1,278.4,344.1,278.5,344.1z"/>
<path class="st19" d="M280.9,367.6c0-0.3-0.3-0.6-0.6-0.6c-0.3,0-0.6,0.3-0.6,0.6c0,0.3,0.3,0.6,0.6,0.6
	C280.6,368.2,280.9,367.9,280.9,367.6z"/>
<path class="st19" d="M280.9,365.5c0-0.3-0.3-0.6-0.6-0.6c-0.3,0-0.6,0.3-0.6,0.6c0,0.3,0.3,0.6,0.6,0.6
	C280.6,366.1,280.9,365.9,280.9,365.5z"/>
<path class="st19" d="M280.2,362.8c0.1,0,0.2,0,0.3,0.1c0.1,0.1,0.2,0.2,0.2,0.3c0,0.1,0.1,0.2,0,0.4c0,0.1-0.1,0.2-0.2,0.3
	c-0.1,0.1-0.2,0.1-0.3,0.2c-0.1,0-0.2,0-0.4,0c-0.1,0-0.2-0.1-0.3-0.2c-0.1-0.1-0.1-0.2-0.1-0.3c0-0.1,0-0.2,0-0.2
	c0-0.1,0.1-0.1,0.1-0.2c0.1-0.1,0.1-0.1,0.2-0.1C280.1,362.8,280.2,362.8,280.2,362.8z"/>
<path class="st19" d="M280.2,360.7c0.2,0,0.3,0.1,0.4,0.2c0.1,0.1,0.2,0.3,0.2,0.4c0,0.2-0.1,0.3-0.2,0.4c-0.1,0.1-0.2,0.2-0.4,0.2
	c-0.1,0-0.2,0-0.3,0c-0.1,0-0.2-0.1-0.2-0.1c-0.1-0.1-0.1-0.1-0.1-0.2s-0.1-0.2-0.1-0.2c0-0.1,0-0.2,0.1-0.2s0.1-0.1,0.1-0.2
	c0.1-0.1,0.1-0.1,0.2-0.1C280.1,360.8,280.2,360.7,280.2,360.7z"/>
<path class="st19" d="M280.2,358.7c0.1,0,0.2,0,0.3,0.1c0.1,0.1,0.2,0.2,0.2,0.3c0,0.1,0.1,0.2,0,0.4c0,0.1-0.1,0.2-0.2,0.3
	c-0.1,0.1-0.2,0.1-0.3,0.2c-0.1,0-0.2,0-0.4,0c-0.1,0-0.2-0.1-0.3-0.2c-0.1-0.1-0.1-0.2-0.1-0.3c0-0.1,0-0.2,0-0.2
	c0-0.1,0.1-0.1,0.1-0.2c0.1-0.1,0.1-0.1,0.2-0.1C280.1,358.7,280.2,358.7,280.2,358.7z"/>
<path class="st19" d="M280.9,357.2c0-0.3-0.3-0.6-0.6-0.6c-0.3,0-0.6,0.3-0.6,0.6c0,0.3,0.3,0.6,0.6,0.6
	C280.6,357.8,280.9,357.5,280.9,357.2z"/>
<path class="st19" d="M280.9,355.1c0-0.3-0.3-0.6-0.6-0.6c-0.3,0-0.6,0.3-0.6,0.6s0.3,0.6,0.6,0.6
	C280.6,355.7,280.9,355.5,280.9,355.1z"/>
<path class="st19" d="M280.9,353c0-0.3-0.3-0.6-0.6-0.6c-0.3,0-0.6,0.3-0.6,0.6c0,0.3,0.3,0.6,0.6,0.6
	C280.6,353.7,280.9,353.4,280.9,353z"/>
<path class="st19" d="M280.9,351c0-0.3-0.3-0.6-0.6-0.6c-0.3,0-0.6,0.3-0.6,0.6c0,0.3,0.3,0.6,0.6,0.6
	C280.6,351.6,280.9,351.3,280.9,351z"/>
<path class="st19" d="M280.2,348.3c0.1,0,0.2,0,0.3,0.1c0.1,0.1,0.2,0.2,0.2,0.3c0,0.1,0.1,0.2,0,0.4c0,0.1-0.1,0.2-0.2,0.3
	c-0.1,0.1-0.2,0.1-0.3,0.2c-0.1,0-0.2,0-0.4,0c-0.1,0-0.2-0.1-0.3-0.2c-0.1-0.1-0.1-0.2-0.1-0.3c0-0.2,0.1-0.3,0.2-0.4
	S280.1,348.3,280.2,348.3z"/>
<path class="st19" d="M280.9,346.8c0-0.3-0.3-0.6-0.6-0.6c-0.3,0-0.6,0.3-0.6,0.6c0,0.3,0.3,0.6,0.6,0.6
	C280.6,347.4,280.9,347.1,280.9,346.8z"/>
<path class="st19" d="M282.6,351c0-0.3-0.3-0.6-0.6-0.6c-0.3,0-0.6,0.3-0.6,0.6c0,0.3,0.3,0.6,0.6,0.6
	C282.4,351.6,282.6,351.3,282.6,351z"/>
<path class="st19" d="M282,348.3c0.1,0,0.2,0,0.3,0.1s0.2,0.2,0.2,0.3c0,0.1,0.1,0.2,0,0.4c0,0.1-0.1,0.2-0.2,0.3
	c-0.1,0.1-0.2,0.1-0.3,0.2s-0.2,0-0.4,0c-0.1,0-0.2-0.1-0.3-0.2c-0.1-0.1-0.1-0.2-0.1-0.3c0-0.2,0.1-0.3,0.2-0.4
	C281.7,348.3,281.9,348.3,282,348.3z"/>
<path class="st19" d="M284.4,351c0-0.3-0.3-0.6-0.6-0.6c-0.3,0-0.6,0.3-0.6,0.6c0,0.3,0.3,0.6,0.6,0.6
	C284.1,351.6,284.4,351.3,284.4,351z"/>
<path class="st19" d="M270.2,240c0-0.3-0.3-0.6-0.6-0.6c-0.3,0-0.6,0.3-0.6,0.6c0,0.3,0.3,0.6,0.6,0.6
	C270,240.6,270.2,240.3,270.2,240z"/>
<path class="st19" d="M272,240c0-0.3-0.3-0.6-0.6-0.6c-0.3,0-0.6,0.3-0.6,0.6c0,0.3,0.3,0.6,0.6,0.6C271.7,240.6,272,240.3,272,240z
	"/>
<path class="st19" d="M271.4,237.3c0.1,0,0.2,0,0.3,0.1c0.1,0.1,0.2,0.2,0.2,0.3c0,0.1,0.1,0.2,0,0.4c0,0.1-0.1,0.2-0.2,0.3
	c-0.1,0.1-0.2,0.1-0.3,0.2c-0.1,0-0.2,0-0.4,0c-0.1,0-0.2-0.1-0.3-0.2c-0.1-0.1-0.1-0.2-0.1-0.3c0-0.2,0.1-0.3,0.2-0.4
	C271.1,237.3,271.2,237.3,271.4,237.3z"/>
<path class="st19" d="M273.8,256.6c0-0.3-0.3-0.6-0.6-0.6s-0.6,0.3-0.6,0.6c0,0.3,0.3,0.6,0.6,0.6S273.8,256.9,273.8,256.6z"/>
<path class="st19" d="M273.8,254.5c0-0.3-0.3-0.6-0.6-0.6s-0.6,0.3-0.6,0.6c0,0.3,0.3,0.6,0.6,0.6S273.8,254.9,273.8,254.5z"/>
<path class="st19" d="M273.2,251.8c0.1,0,0.2,0,0.3,0.1c0.1,0.1,0.2,0.2,0.2,0.3c0,0.1,0.1,0.2,0,0.4c0,0.1-0.1,0.2-0.2,0.3
	c-0.1,0.1-0.2,0.1-0.3,0.2c-0.1,0-0.2,0-0.4,0c-0.1,0-0.2-0.1-0.3-0.2c-0.1-0.1-0.1-0.2-0.1-0.3c0-0.1,0-0.2,0-0.2
	c0-0.1,0.1-0.1,0.1-0.2c0.1-0.1,0.1-0.1,0.2-0.1C273,251.8,273.1,251.8,273.2,251.8z"/>
<path class="st19" d="M273.2,249.7c0.1,0,0.2,0,0.3,0.1c0.1,0.1,0.2,0.2,0.2,0.3c0,0.1,0.1,0.2,0,0.4c0,0.1-0.1,0.2-0.2,0.3
	c-0.1,0.1-0.2,0.1-0.3,0.2c-0.1,0-0.2,0-0.4,0s-0.2-0.1-0.3-0.2c-0.1-0.1-0.1-0.2-0.1-0.3c0-0.2,0.1-0.3,0.2-0.4
	C272.8,249.8,273,249.7,273.2,249.7z"/>
<path class="st19" d="M273.2,247.7c0.1,0,0.2,0,0.3,0.1c0.1,0.1,0.2,0.2,0.2,0.3c0,0.1,0.1,0.2,0,0.4c0,0.1-0.1,0.2-0.2,0.3
	c-0.1,0.1-0.2,0.1-0.3,0.2c-0.1,0-0.2,0-0.4,0s-0.2-0.1-0.3-0.2c-0.1-0.1-0.1-0.2-0.1-0.3c0-0.1,0-0.2,0-0.2c0-0.1,0.1-0.1,0.1-0.2
	c0.1-0.1,0.1-0.1,0.2-0.1C273,247.7,273.1,247.7,273.2,247.7z"/>
<path class="st19" d="M273.8,246.2c0-0.3-0.3-0.6-0.6-0.6s-0.6,0.3-0.6,0.6c0,0.3,0.3,0.6,0.6,0.6S273.8,246.5,273.8,246.2z"/>
<path class="st19" d="M273.8,244.1c0-0.3-0.3-0.6-0.6-0.6s-0.6,0.3-0.6,0.6c0,0.3,0.3,0.6,0.6,0.6S273.8,244.5,273.8,244.1z"/>
<path class="st19" d="M273.8,242c0-0.3-0.3-0.6-0.6-0.6s-0.6,0.3-0.6,0.6s0.3,0.6,0.6,0.6S273.8,242.4,273.8,242z"/>
<path class="st19" d="M273.8,240c0-0.3-0.3-0.6-0.6-0.6s-0.6,0.3-0.6,0.6c0,0.3,0.3,0.6,0.6,0.6S273.8,240.3,273.8,240z"/>
<path class="st19" d="M273.2,237.3c0.1,0,0.2,0,0.3,0.1c0.1,0.1,0.2,0.2,0.2,0.3c0,0.1,0.1,0.2,0,0.4c0,0.1-0.1,0.2-0.2,0.3
	c-0.1,0.1-0.2,0.1-0.3,0.2s-0.2,0-0.4,0c-0.1,0-0.2-0.1-0.3-0.2c-0.1-0.1-0.1-0.2-0.1-0.3c0-0.2,0.1-0.3,0.2-0.4
	S273,237.3,273.2,237.3z"/>
<path class="st19" d="M273.8,235.8c0-0.3-0.3-0.6-0.6-0.6s-0.6,0.3-0.6,0.6c0,0.3,0.3,0.6,0.6,0.6S273.8,236.1,273.8,235.8z"/>
<path class="st19" d="M275.5,256.6c0-0.3-0.3-0.6-0.6-0.6s-0.6,0.3-0.6,0.6c0,0.3,0.3,0.6,0.6,0.6S275.5,256.9,275.5,256.6z"/>
<path class="st19" d="M275.5,254.5c0-0.3-0.3-0.6-0.6-0.6s-0.6,0.3-0.6,0.6c0,0.3,0.3,0.6,0.6,0.6S275.5,254.9,275.5,254.5z"/>
<path class="st19" d="M274.9,251.8c0.1,0,0.2,0,0.3,0.1c0.1,0.1,0.2,0.2,0.2,0.3s0.1,0.2,0,0.4c0,0.1-0.1,0.2-0.2,0.3
	c-0.1,0.1-0.2,0.1-0.3,0.2c-0.1,0-0.2,0-0.4,0c-0.1,0-0.2-0.1-0.3-0.2c-0.1-0.1-0.1-0.2-0.1-0.3c0-0.1,0-0.2,0-0.2
	c0-0.1,0.1-0.1,0.1-0.2c0.1-0.1,0.1-0.1,0.2-0.1C274.8,251.8,274.9,251.8,274.9,251.8z"/>
<path class="st19" d="M274.9,249.7c0.1,0,0.2,0,0.3,0.1s0.2,0.2,0.2,0.3c0,0.1,0.1,0.2,0,0.4c0,0.1-0.1,0.2-0.2,0.3
	c-0.1,0.1-0.2,0.1-0.3,0.2c-0.1,0-0.2,0-0.4,0c-0.1-0.1-0.2-0.1-0.3-0.2c-0.1-0.1-0.1-0.2-0.1-0.3c0-0.2,0.1-0.3,0.2-0.4
	C274.6,249.8,274.8,249.7,274.9,249.7z"/>
<path class="st19" d="M274.9,247.7c0.1,0,0.2,0,0.3,0.1c0.1,0.1,0.2,0.2,0.2,0.3c0,0.1,0.1,0.2,0,0.4c0,0.1-0.1,0.2-0.2,0.3
	c-0.1,0.1-0.2,0.1-0.3,0.2c-0.1,0-0.2,0-0.4,0c-0.1,0-0.2-0.1-0.3-0.2c-0.1-0.1-0.1-0.2-0.1-0.3c0-0.1,0-0.2,0-0.2s0.1-0.1,0.1-0.2
	c0.1-0.1,0.1-0.1,0.2-0.1C274.8,247.7,274.9,247.7,274.9,247.7z"/>
<path class="st19" d="M275.5,246.2c0-0.3-0.3-0.6-0.6-0.6s-0.6,0.3-0.6,0.6c0,0.3,0.3,0.6,0.6,0.6S275.5,246.5,275.5,246.2z"/>
<path class="st19" d="M275.5,244.1c0-0.3-0.3-0.6-0.6-0.6s-0.6,0.3-0.6,0.6c0,0.3,0.3,0.6,0.6,0.6S275.5,244.5,275.5,244.1z"/>
<path class="st19" d="M275.5,242c0-0.3-0.3-0.6-0.6-0.6s-0.6,0.3-0.6,0.6s0.3,0.6,0.6,0.6S275.5,242.4,275.5,242z"/>
<path class="st19" d="M275.5,240c0-0.3-0.3-0.6-0.6-0.6s-0.6,0.3-0.6,0.6c0,0.3,0.3,0.6,0.6,0.6S275.5,240.3,275.5,240z"/>
<path class="st19" d="M274.9,237.3c0.1,0,0.2,0,0.3,0.1c0.1,0.1,0.2,0.2,0.2,0.3c0,0.1,0.1,0.2,0,0.4c0,0.1-0.1,0.2-0.2,0.3
	c-0.1,0.1-0.2,0.1-0.3,0.2s-0.2,0-0.4,0c-0.1,0-0.2-0.1-0.3-0.2c-0.1-0.1-0.1-0.2-0.1-0.3c0-0.2,0.1-0.3,0.2-0.4
	S274.8,237.3,274.9,237.3z"/>
<path class="st19" d="M275.5,235.8c0-0.3-0.3-0.6-0.6-0.6s-0.6,0.3-0.6,0.6c0,0.3,0.3,0.6,0.6,0.6S275.5,236.1,275.5,235.8z"/>
<path class="st19" d="M274.9,233.1c0.1,0,0.2,0,0.3,0.1c0.1,0.1,0.2,0.2,0.2,0.3c0,0.1,0.1,0.2,0,0.4c0,0.1-0.1,0.2-0.2,0.3
	c-0.1,0.1-0.2,0.1-0.3,0.2c-0.1,0-0.2,0-0.4,0c-0.1,0-0.2-0.1-0.3-0.2c-0.1-0.1-0.1-0.2-0.1-0.3c0-0.1,0-0.2,0-0.2
	c0-0.1,0.1-0.1,0.1-0.2c0.1-0.1,0.1-0.1,0.2-0.1C274.8,233.1,274.9,233.1,274.9,233.1z"/>
<path class="st19" d="M277.3,256.6c0-0.3-0.3-0.6-0.6-0.6s-0.6,0.3-0.6,0.6c0,0.3,0.3,0.6,0.6,0.6S277.3,256.9,277.3,256.6z"/>
<path class="st19" d="M277.3,254.5c0-0.3-0.3-0.6-0.6-0.6s-0.6,0.3-0.6,0.6c0,0.3,0.3,0.6,0.6,0.6S277.3,254.9,277.3,254.5z"/>
<path class="st19" d="M276.7,251.8c0.1,0,0.2,0,0.3,0.1c0.1,0.1,0.2,0.2,0.2,0.3s0.1,0.2,0,0.4c0,0.1-0.1,0.2-0.2,0.3
	c-0.1,0.1-0.2,0.1-0.3,0.2c-0.1,0-0.2,0-0.4,0c-0.1,0-0.2-0.1-0.3-0.2c-0.1-0.1-0.1-0.2-0.1-0.3c0-0.1,0-0.2,0-0.2
	c0-0.1,0.1-0.1,0.1-0.2c0.1-0.1,0.1-0.1,0.2-0.1C276.5,251.8,276.6,251.8,276.7,251.8z"/>
<path class="st19" d="M276.7,249.7c0.1,0,0.2,0,0.3,0.1s0.2,0.2,0.2,0.3c0,0.1,0.1,0.2,0,0.4c0,0.1-0.1,0.2-0.2,0.3
	c-0.1,0.1-0.2,0.1-0.3,0.2c-0.1,0-0.2,0-0.4,0c-0.1-0.1-0.2-0.1-0.3-0.2c-0.1-0.1-0.1-0.2-0.1-0.3c0-0.2,0.1-0.3,0.2-0.4
	C276.4,249.8,276.5,249.7,276.7,249.7z"/>
<path class="st19" d="M276.7,247.7c0.1,0,0.2,0,0.3,0.1c0.1,0.1,0.2,0.2,0.2,0.3c0,0.1,0.1,0.2,0,0.4c0,0.1-0.1,0.2-0.2,0.3
	c-0.1,0.1-0.2,0.1-0.3,0.2c-0.1,0-0.2,0-0.4,0c-0.1,0-0.2-0.1-0.3-0.2c-0.1-0.1-0.1-0.2-0.1-0.3c0-0.1,0-0.2,0-0.2s0.1-0.1,0.1-0.2
	c0.1-0.1,0.1-0.1,0.2-0.1C276.5,247.7,276.6,247.7,276.7,247.7z"/>
<path class="st19" d="M277.3,246.2c0-0.3-0.3-0.6-0.6-0.6s-0.6,0.3-0.6,0.6c0,0.3,0.3,0.6,0.6,0.6S277.3,246.5,277.3,246.2z"/>
<path class="st19" d="M277.3,244.1c0-0.3-0.3-0.6-0.6-0.6s-0.6,0.3-0.6,0.6c0,0.3,0.3,0.6,0.6,0.6S277.3,244.5,277.3,244.1z"/>
<path class="st19" d="M277.3,242c0-0.3-0.3-0.6-0.6-0.6s-0.6,0.3-0.6,0.6s0.3,0.6,0.6,0.6S277.3,242.4,277.3,242z"/>
<path class="st19" d="M277.3,240c0-0.3-0.3-0.6-0.6-0.6s-0.6,0.3-0.6,0.6c0,0.3,0.3,0.6,0.6,0.6S277.3,240.3,277.3,240z"/>
<path class="st19" d="M276.7,237.3c0.1,0,0.2,0,0.3,0.1c0.1,0.1,0.2,0.2,0.2,0.3c0,0.1,0.1,0.2,0,0.4c0,0.1-0.1,0.2-0.2,0.3
	c-0.1,0.1-0.2,0.1-0.3,0.2c-0.1,0-0.2,0-0.4,0c-0.1,0-0.2-0.1-0.3-0.2c-0.1-0.1-0.1-0.2-0.1-0.3c0-0.2,0.1-0.3,0.2-0.4
	C276.4,237.3,276.5,237.3,276.7,237.3z"/>
<path class="st19" d="M277.3,235.8c0-0.3-0.3-0.6-0.6-0.6s-0.6,0.3-0.6,0.6c0,0.3,0.3,0.6,0.6,0.6S277.3,236.1,277.3,235.8z"/>
<path class="st19" d="M276.7,233.1c0.1,0,0.2,0,0.3,0.1c0.1,0.1,0.2,0.2,0.2,0.3c0,0.1,0.1,0.2,0,0.4c0,0.1-0.1,0.2-0.2,0.3
	c-0.1,0.1-0.2,0.1-0.3,0.2c-0.1,0-0.2,0-0.4,0c-0.1,0-0.2-0.1-0.3-0.2c-0.1-0.1-0.1-0.2-0.1-0.3c0-0.1,0-0.2,0-0.2
	c0-0.1,0.1-0.1,0.1-0.2c0.1-0.1,0.1-0.1,0.2-0.1C276.5,233.1,276.6,233.1,276.7,233.1z"/>
<path class="st19" d="M277.3,231.6c0-0.3-0.3-0.6-0.6-0.6s-0.6,0.3-0.6,0.6c0,0.3,0.3,0.6,0.6,0.6S277.3,232,277.3,231.6z"/>
<path class="st19" d="M279.1,256.6c0-0.3-0.3-0.6-0.6-0.6c-0.3,0-0.6,0.3-0.6,0.6c0,0.3,0.3,0.6,0.6,0.6
	C278.8,257.2,279.1,256.9,279.1,256.6z"/>
<path class="st19" d="M279.1,254.5c0-0.3-0.3-0.6-0.6-0.6c-0.3,0-0.6,0.3-0.6,0.6c0,0.3,0.3,0.6,0.6,0.6
	C278.8,255.1,279.1,254.9,279.1,254.5z"/>
<path class="st19" d="M278.5,251.8c0.1,0,0.2,0,0.3,0.1c0.1,0.1,0.2,0.2,0.2,0.3c0,0.1,0.1,0.2,0,0.4c0,0.1-0.1,0.2-0.2,0.3
	c-0.1,0.1-0.2,0.1-0.3,0.2c-0.1,0-0.2,0-0.4,0c-0.1,0-0.2-0.1-0.3-0.2c-0.1-0.1-0.1-0.2-0.1-0.3c0-0.1,0-0.2,0-0.2
	c0-0.1,0.1-0.1,0.1-0.2c0.1-0.1,0.1-0.1,0.2-0.1C278.3,251.8,278.4,251.8,278.5,251.8z"/>
<path class="st19" d="M278.5,249.7c0.2,0,0.3,0.1,0.4,0.2c0.1,0.1,0.2,0.3,0.2,0.4c0,0.2-0.1,0.3-0.2,0.4c-0.1,0.1-0.2,0.2-0.4,0.2
	c-0.1,0-0.2,0-0.3,0c-0.1,0-0.2-0.1-0.2-0.1c-0.1-0.1-0.1-0.1-0.1-0.2s-0.1-0.2-0.1-0.2c0-0.1,0-0.2,0.1-0.2s0.1-0.1,0.1-0.2
	c0.1-0.1,0.1-0.1,0.2-0.1C278.3,249.8,278.4,249.7,278.5,249.7z"/>
<path class="st19" d="M278.5,247.7c0.1,0,0.2,0,0.3,0.1c0.1,0.1,0.2,0.2,0.2,0.3c0,0.1,0.1,0.2,0,0.4c0,0.1-0.1,0.2-0.2,0.3
	c-0.1,0.1-0.2,0.1-0.3,0.2c-0.1,0-0.2,0-0.4,0c-0.1,0-0.2-0.1-0.3-0.2c-0.1-0.1-0.1-0.2-0.1-0.3c0-0.1,0-0.2,0-0.2
	c0-0.1,0.1-0.1,0.1-0.2c0.1-0.1,0.1-0.1,0.2-0.1C278.3,247.7,278.4,247.7,278.5,247.7z"/>
<path class="st19" d="M279.1,246.2c0-0.3-0.3-0.6-0.6-0.6c-0.3,0-0.6,0.3-0.6,0.6c0,0.3,0.3,0.6,0.6,0.6
	C278.8,246.8,279.1,246.5,279.1,246.2z"/>
<path class="st19" d="M279.1,244.1c0-0.3-0.3-0.6-0.6-0.6c-0.3,0-0.6,0.3-0.6,0.6c0,0.3,0.3,0.6,0.6,0.6
	C278.8,244.7,279.1,244.5,279.1,244.1z"/>
<path class="st19" d="M279.1,242c0-0.3-0.3-0.6-0.6-0.6c-0.3,0-0.6,0.3-0.6,0.6s0.3,0.6,0.6,0.6C278.8,242.7,279.1,242.4,279.1,242z
	"/>
<path class="st19" d="M279.1,240c0-0.3-0.3-0.6-0.6-0.6c-0.3,0-0.6,0.3-0.6,0.6c0,0.3,0.3,0.6,0.6,0.6
	C278.8,240.6,279.1,240.3,279.1,240z"/>
<path class="st19" d="M278.5,237.3c0.1,0,0.2,0,0.3,0.1c0.1,0.1,0.2,0.2,0.2,0.3c0,0.1,0.1,0.2,0,0.4c0,0.1-0.1,0.2-0.2,0.3
	c-0.1,0.1-0.2,0.1-0.3,0.2c-0.1,0-0.2,0-0.4,0c-0.1,0-0.2-0.1-0.3-0.2c-0.1-0.1-0.1-0.2-0.1-0.3c0-0.2,0.1-0.3,0.2-0.4
	S278.3,237.3,278.5,237.3z"/>
<path class="st19" d="M279.1,235.8c0-0.3-0.3-0.6-0.6-0.6c-0.3,0-0.6,0.3-0.6,0.6c0,0.3,0.3,0.6,0.6,0.6
	C278.8,236.4,279.1,236.1,279.1,235.8z"/>
<path class="st19" d="M278.5,233.1c0.2,0,0.3,0.1,0.4,0.2c0.1,0.1,0.2,0.3,0.2,0.4c0,0.2-0.1,0.3-0.2,0.4c-0.1,0.1-0.2,0.2-0.4,0.2
	c-0.1,0-0.2,0-0.3,0c-0.1,0-0.2-0.1-0.2-0.1c-0.1-0.1-0.1-0.1-0.1-0.2c0-0.1-0.1-0.2-0.1-0.2c0-0.1,0-0.2,0.1-0.2
	c0-0.1,0.1-0.1,0.1-0.2c0.1-0.1,0.1-0.1,0.2-0.1C278.3,233.1,278.4,233.1,278.5,233.1z"/>
<path class="st19" d="M280.9,256.6c0-0.3-0.3-0.6-0.6-0.6c-0.3,0-0.6,0.3-0.6,0.6c0,0.3,0.3,0.6,0.6,0.6
	C280.6,257.2,280.9,256.9,280.9,256.6z"/>
<path class="st19" d="M280.9,254.5c0-0.3-0.3-0.6-0.6-0.6c-0.3,0-0.6,0.3-0.6,0.6c0,0.3,0.3,0.6,0.6,0.6
	C280.6,255.1,280.9,254.9,280.9,254.5z"/>
<path class="st19" d="M280.2,251.8c0.1,0,0.2,0,0.3,0.1c0.1,0.1,0.2,0.2,0.2,0.3c0,0.1,0.1,0.2,0,0.4c0,0.1-0.1,0.2-0.2,0.3
	c-0.1,0.1-0.2,0.1-0.3,0.2c-0.1,0-0.2,0-0.4,0c-0.1,0-0.2-0.1-0.3-0.2c-0.1-0.1-0.1-0.2-0.1-0.3c0-0.1,0-0.2,0-0.2
	c0-0.1,0.1-0.1,0.1-0.2c0.1-0.1,0.1-0.1,0.2-0.1C280.1,251.8,280.2,251.8,280.2,251.8z"/>
<path class="st19" d="M280.2,249.7c0.2,0,0.3,0.1,0.4,0.2c0.1,0.1,0.2,0.3,0.2,0.4c0,0.2-0.1,0.3-0.2,0.4c-0.1,0.1-0.2,0.2-0.4,0.2
	c-0.1,0-0.2,0-0.3,0c-0.1,0-0.2-0.1-0.2-0.1c-0.1-0.1-0.1-0.1-0.1-0.2s-0.1-0.2-0.1-0.2c0-0.1,0-0.2,0.1-0.2s0.1-0.1,0.1-0.2
	c0.1-0.1,0.1-0.1,0.2-0.1C280.1,249.8,280.2,249.7,280.2,249.7z"/>
<path class="st19" d="M280.2,247.7c0.1,0,0.2,0,0.3,0.1c0.1,0.1,0.2,0.2,0.2,0.3c0,0.1,0.1,0.2,0,0.4c0,0.1-0.1,0.2-0.2,0.3
	c-0.1,0.1-0.2,0.1-0.3,0.2c-0.1,0-0.2,0-0.4,0c-0.1,0-0.2-0.1-0.3-0.2c-0.1-0.1-0.1-0.2-0.1-0.3c0-0.1,0-0.2,0-0.2
	c0-0.1,0.1-0.1,0.1-0.2c0.1-0.1,0.1-0.1,0.2-0.1C280.1,247.7,280.2,247.7,280.2,247.7z"/>
<path class="st19" d="M280.9,246.2c0-0.3-0.3-0.6-0.6-0.6c-0.3,0-0.6,0.3-0.6,0.6c0,0.3,0.3,0.6,0.6,0.6
	C280.6,246.8,280.9,246.5,280.9,246.2z"/>
<path class="st19" d="M280.9,244.1c0-0.3-0.3-0.6-0.6-0.6c-0.3,0-0.6,0.3-0.6,0.6c0,0.3,0.3,0.6,0.6,0.6
	C280.6,244.7,280.9,244.5,280.9,244.1z"/>
<path class="st19" d="M280.9,242c0-0.3-0.3-0.6-0.6-0.6c-0.3,0-0.6,0.3-0.6,0.6s0.3,0.6,0.6,0.6C280.6,242.7,280.9,242.4,280.9,242z
	"/>
<path class="st19" d="M280.9,240c0-0.3-0.3-0.6-0.6-0.6c-0.3,0-0.6,0.3-0.6,0.6c0,0.3,0.3,0.6,0.6,0.6
	C280.6,240.6,280.9,240.3,280.9,240z"/>
<path class="st19" d="M280.2,237.3c0.1,0,0.2,0,0.3,0.1c0.1,0.1,0.2,0.2,0.2,0.3c0,0.1,0.1,0.2,0,0.4c0,0.1-0.1,0.2-0.2,0.3
	c-0.1,0.1-0.2,0.1-0.3,0.2c-0.1,0-0.2,0-0.4,0c-0.1,0-0.2-0.1-0.3-0.2c-0.1-0.1-0.1-0.2-0.1-0.3c0-0.2,0.1-0.3,0.2-0.4
	S280.1,237.3,280.2,237.3z"/>
<path class="st19" d="M280.9,235.8c0-0.3-0.3-0.6-0.6-0.6c-0.3,0-0.6,0.3-0.6,0.6c0,0.3,0.3,0.6,0.6,0.6
	C280.6,236.4,280.9,236.1,280.9,235.8z"/>
<path class="st19" d="M282.6,240c0-0.3-0.3-0.6-0.6-0.6c-0.3,0-0.6,0.3-0.6,0.6c0,0.3,0.3,0.6,0.6,0.6
	C282.4,240.6,282.6,240.3,282.6,240z"/>
<path class="st19" d="M282,237.3c0.1,0,0.2,0,0.3,0.1c0.1,0.1,0.2,0.2,0.2,0.3c0,0.1,0.1,0.2,0,0.4c0,0.1-0.1,0.2-0.2,0.3
	c-0.1,0.1-0.2,0.1-0.3,0.2s-0.2,0-0.4,0c-0.1,0-0.2-0.1-0.3-0.2c-0.1-0.1-0.1-0.2-0.1-0.3c0-0.2,0.1-0.3,0.2-0.4
	C281.7,237.3,281.9,237.3,282,237.3z"/>
<path class="st19" d="M284.4,240c0-0.3-0.3-0.6-0.6-0.6c-0.3,0-0.6,0.3-0.6,0.6c0,0.3,0.3,0.6,0.6,0.6
	C284.1,240.6,284.4,240.3,284.4,240z"/>
<path class="st19" d="M270.2,129c0-0.3-0.3-0.6-0.6-0.6c-0.3,0-0.6,0.3-0.6,0.6c0,0.3,0.3,0.6,0.6,0.6
	C270,129.6,270.2,129.3,270.2,129z"/>
<path class="st19" d="M272,129c0-0.3-0.3-0.6-0.6-0.6c-0.3,0-0.6,0.3-0.6,0.6c0,0.3,0.3,0.6,0.6,0.6C271.7,129.6,272,129.3,272,129z
	"/>
<path class="st19" d="M271.4,126.3c0.1,0,0.2,0,0.3,0.1c0.1,0.1,0.2,0.2,0.2,0.3c0,0.1,0.1,0.2,0,0.4c0,0.1-0.1,0.2-0.2,0.3
	c-0.1,0.1-0.2,0.1-0.3,0.2c-0.1,0-0.2,0-0.4,0c-0.1,0-0.2-0.1-0.3-0.2c-0.1-0.1-0.1-0.2-0.1-0.3c0-0.2,0.1-0.3,0.2-0.4
	C271.1,126.3,271.2,126.3,271.4,126.3z"/>
<path class="st19" d="M273.8,145.6c0-0.3-0.3-0.6-0.6-0.6s-0.6,0.3-0.6,0.6c0,0.3,0.3,0.6,0.6,0.6S273.8,145.9,273.8,145.6z"/>
<path class="st19" d="M273.8,143.5c0-0.3-0.3-0.6-0.6-0.6s-0.6,0.3-0.6,0.6c0,0.3,0.3,0.6,0.6,0.6S273.8,143.9,273.8,143.5z"/>
<path class="st19" d="M273.2,140.8c0.1,0,0.2,0,0.3,0.1c0.1,0.1,0.2,0.2,0.2,0.3c0,0.1,0.1,0.2,0,0.4c0,0.1-0.1,0.2-0.2,0.3
	c-0.1,0.1-0.2,0.1-0.3,0.2c-0.1,0-0.2,0-0.4,0c-0.1,0-0.2-0.1-0.3-0.2c-0.1-0.1-0.1-0.2-0.1-0.3c0-0.1,0-0.2,0-0.2
	c0-0.1,0.1-0.1,0.1-0.2c0.1-0.1,0.1-0.1,0.2-0.1C273,140.8,273.1,140.8,273.2,140.8z"/>
<path class="st19" d="M273.2,138.7c0.1,0,0.2,0,0.3,0.1c0.1,0.1,0.2,0.2,0.2,0.3c0,0.1,0.1,0.2,0,0.4c0,0.1-0.1,0.2-0.2,0.3
	c-0.1,0.1-0.2,0.1-0.3,0.2c-0.1,0-0.2,0-0.4,0s-0.2-0.1-0.3-0.2c-0.1-0.1-0.1-0.2-0.1-0.3c0-0.2,0.1-0.3,0.2-0.4
	C272.8,138.8,273,138.7,273.2,138.7z"/>
<path class="st19" d="M273.2,136.7c0.1,0,0.2,0,0.3,0.1c0.1,0.1,0.2,0.2,0.2,0.3c0,0.1,0.1,0.2,0,0.4c0,0.1-0.1,0.2-0.2,0.3
	c-0.1,0.1-0.2,0.1-0.3,0.2c-0.1,0-0.2,0-0.4,0s-0.2-0.1-0.3-0.2c-0.1-0.1-0.1-0.2-0.1-0.3c0-0.1,0-0.2,0-0.2c0-0.1,0.1-0.1,0.1-0.2
	c0.1-0.1,0.1-0.1,0.2-0.1C273,136.7,273.1,136.7,273.2,136.7z"/>
<path class="st19" d="M273.8,135.2c0-0.3-0.3-0.6-0.6-0.6s-0.6,0.3-0.6,0.6c0,0.3,0.3,0.6,0.6,0.6S273.8,135.5,273.8,135.2z"/>
<path class="st19" d="M273.8,133.1c0-0.3-0.3-0.6-0.6-0.6s-0.6,0.3-0.6,0.6c0,0.3,0.3,0.6,0.6,0.6S273.8,133.5,273.8,133.1z"/>
<path class="st19" d="M273.8,131c0-0.3-0.3-0.6-0.6-0.6s-0.6,0.3-0.6,0.6s0.3,0.6,0.6,0.6S273.8,131.4,273.8,131z"/>
<path class="st19" d="M273.8,129c0-0.3-0.3-0.6-0.6-0.6s-0.6,0.3-0.6,0.6c0,0.3,0.3,0.6,0.6,0.6S273.8,129.3,273.8,129z"/>
<path class="st19" d="M273.2,126.3c0.1,0,0.2,0,0.3,0.1c0.1,0.1,0.2,0.2,0.2,0.3c0,0.1,0.1,0.2,0,0.4c0,0.1-0.1,0.2-0.2,0.3
	c-0.1,0.1-0.2,0.1-0.3,0.2s-0.2,0-0.4,0c-0.1,0-0.2-0.1-0.3-0.2c-0.1-0.1-0.1-0.2-0.1-0.3c0-0.2,0.1-0.3,0.2-0.4
	S273,126.3,273.2,126.3z"/>
<path class="st19" d="M273.8,124.8c0-0.3-0.3-0.6-0.6-0.6s-0.6,0.3-0.6,0.6c0,0.3,0.3,0.6,0.6,0.6S273.8,125.1,273.8,124.8z"/>
<path class="st19" d="M275.5,145.6c0-0.3-0.3-0.6-0.6-0.6s-0.6,0.3-0.6,0.6c0,0.3,0.3,0.6,0.6,0.6S275.5,145.9,275.5,145.6z"/>
<path class="st19" d="M275.5,143.5c0-0.3-0.3-0.6-0.6-0.6s-0.6,0.3-0.6,0.6c0,0.3,0.3,0.6,0.6,0.6S275.5,143.9,275.5,143.5z"/>
<path class="st19" d="M274.9,140.8c0.1,0,0.2,0,0.3,0.1c0.1,0.1,0.2,0.2,0.2,0.3s0.1,0.2,0,0.4c0,0.1-0.1,0.2-0.2,0.3
	c-0.1,0.1-0.2,0.1-0.3,0.2c-0.1,0-0.2,0-0.4,0c-0.1,0-0.2-0.1-0.3-0.2c-0.1-0.1-0.1-0.2-0.1-0.3c0-0.1,0-0.2,0-0.2
	c0-0.1,0.1-0.1,0.1-0.2c0.1-0.1,0.1-0.1,0.2-0.1C274.8,140.8,274.9,140.8,274.9,140.8z"/>
<path class="st19" d="M274.9,138.7c0.1,0,0.2,0,0.3,0.1s0.2,0.2,0.2,0.3c0,0.1,0.1,0.2,0,0.4c0,0.1-0.1,0.2-0.2,0.3
	c-0.1,0.1-0.2,0.1-0.3,0.2c-0.1,0-0.2,0-0.4,0c-0.1-0.1-0.2-0.1-0.3-0.2c-0.1-0.1-0.1-0.2-0.1-0.3c0-0.2,0.1-0.3,0.2-0.4
	C274.6,138.8,274.8,138.7,274.9,138.7z"/>
<path class="st19" d="M274.9,136.7c0.1,0,0.2,0,0.3,0.1c0.1,0.1,0.2,0.2,0.2,0.3c0,0.1,0.1,0.2,0,0.4c0,0.1-0.1,0.2-0.2,0.3
	c-0.1,0.1-0.2,0.1-0.3,0.2c-0.1,0-0.2,0-0.4,0c-0.1,0-0.2-0.1-0.3-0.2c-0.1-0.1-0.1-0.2-0.1-0.3c0-0.1,0-0.2,0-0.2s0.1-0.1,0.1-0.2
	c0.1-0.1,0.1-0.1,0.2-0.1C274.8,136.7,274.9,136.7,274.9,136.7z"/>
<path class="st19" d="M275.5,135.2c0-0.3-0.3-0.6-0.6-0.6s-0.6,0.3-0.6,0.6c0,0.3,0.3,0.6,0.6,0.6S275.5,135.5,275.5,135.2z"/>
<path class="st19" d="M275.5,133.1c0-0.3-0.3-0.6-0.6-0.6s-0.6,0.3-0.6,0.6c0,0.3,0.3,0.6,0.6,0.6S275.5,133.5,275.5,133.1z"/>
<path class="st19" d="M275.5,131c0-0.3-0.3-0.6-0.6-0.6s-0.6,0.3-0.6,0.6s0.3,0.6,0.6,0.6S275.5,131.4,275.5,131z"/>
<path class="st19" d="M275.5,129c0-0.3-0.3-0.6-0.6-0.6s-0.6,0.3-0.6,0.6c0,0.3,0.3,0.6,0.6,0.6S275.5,129.3,275.5,129z"/>
<path class="st19" d="M274.9,126.3c0.1,0,0.2,0,0.3,0.1c0.1,0.1,0.2,0.2,0.2,0.3c0,0.1,0.1,0.2,0,0.4c0,0.1-0.1,0.2-0.2,0.3
	c-0.1,0.1-0.2,0.1-0.3,0.2s-0.2,0-0.4,0c-0.1,0-0.2-0.1-0.3-0.2c-0.1-0.1-0.1-0.2-0.1-0.3c0-0.2,0.1-0.3,0.2-0.4
	S274.8,126.3,274.9,126.3z"/>
<path class="st19" d="M275.5,124.8c0-0.3-0.3-0.6-0.6-0.6s-0.6,0.3-0.6,0.6c0,0.3,0.3,0.6,0.6,0.6S275.5,125.1,275.5,124.8z"/>
<path class="st19" d="M274.9,122.1c0.1,0,0.2,0,0.3,0.1c0.1,0.1,0.2,0.2,0.2,0.3c0,0.1,0.1,0.2,0,0.4c0,0.1-0.1,0.2-0.2,0.3
	s-0.2,0.1-0.3,0.2c-0.1,0-0.2,0-0.4,0c-0.1,0-0.2-0.1-0.3-0.2c-0.1-0.1-0.1-0.2-0.1-0.3c0-0.1,0-0.2,0-0.2c0-0.1,0.1-0.1,0.1-0.2
	c0.1-0.1,0.1-0.1,0.2-0.1C274.8,122.1,274.9,122.1,274.9,122.1z"/>
<path class="st19" d="M277.3,145.6c0-0.3-0.3-0.6-0.6-0.6s-0.6,0.3-0.6,0.6c0,0.3,0.3,0.6,0.6,0.6S277.3,145.9,277.3,145.6z"/>
<path class="st19" d="M277.3,143.5c0-0.3-0.3-0.6-0.6-0.6s-0.6,0.3-0.6,0.6c0,0.3,0.3,0.6,0.6,0.6S277.3,143.9,277.3,143.5z"/>
<path class="st19" d="M276.7,140.8c0.1,0,0.2,0,0.3,0.1c0.1,0.1,0.2,0.2,0.2,0.3s0.1,0.2,0,0.4c0,0.1-0.1,0.2-0.2,0.3
	c-0.1,0.1-0.2,0.1-0.3,0.2c-0.1,0-0.2,0-0.4,0c-0.1,0-0.2-0.1-0.3-0.2c-0.1-0.1-0.1-0.2-0.1-0.3c0-0.1,0-0.2,0-0.2
	c0-0.1,0.1-0.1,0.1-0.2c0.1-0.1,0.1-0.1,0.2-0.1C276.5,140.8,276.6,140.8,276.7,140.8z"/>
<path class="st19" d="M276.7,138.7c0.1,0,0.2,0,0.3,0.1s0.2,0.2,0.2,0.3c0,0.1,0.1,0.2,0,0.4c0,0.1-0.1,0.2-0.2,0.3
	c-0.1,0.1-0.2,0.1-0.3,0.2c-0.1,0-0.2,0-0.4,0c-0.1-0.1-0.2-0.1-0.3-0.2c-0.1-0.1-0.1-0.2-0.1-0.3c0-0.2,0.1-0.3,0.2-0.4
	C276.4,138.8,276.5,138.7,276.7,138.7z"/>
<path class="st19" d="M276.7,136.7c0.1,0,0.2,0,0.3,0.1c0.1,0.1,0.2,0.2,0.2,0.3c0,0.1,0.1,0.2,0,0.4c0,0.1-0.1,0.2-0.2,0.3
	c-0.1,0.1-0.2,0.1-0.3,0.2c-0.1,0-0.2,0-0.4,0c-0.1,0-0.2-0.1-0.3-0.2c-0.1-0.1-0.1-0.2-0.1-0.3c0-0.1,0-0.2,0-0.2s0.1-0.1,0.1-0.2
	c0.1-0.1,0.1-0.1,0.2-0.1C276.5,136.7,276.6,136.7,276.7,136.7z"/>
<path class="st19" d="M277.3,135.2c0-0.3-0.3-0.6-0.6-0.6s-0.6,0.3-0.6,0.6c0,0.3,0.3,0.6,0.6,0.6S277.3,135.5,277.3,135.2z"/>
<path class="st19" d="M277.3,133.1c0-0.3-0.3-0.6-0.6-0.6s-0.6,0.3-0.6,0.6c0,0.3,0.3,0.6,0.6,0.6S277.3,133.5,277.3,133.1z"/>
<path class="st19" d="M277.3,131c0-0.3-0.3-0.6-0.6-0.6s-0.6,0.3-0.6,0.6s0.3,0.6,0.6,0.6S277.3,131.4,277.3,131z"/>
<path class="st19" d="M277.3,129c0-0.3-0.3-0.6-0.6-0.6s-0.6,0.3-0.6,0.6c0,0.3,0.3,0.6,0.6,0.6S277.3,129.3,277.3,129z"/>
<path class="st19" d="M276.7,126.3c0.1,0,0.2,0,0.3,0.1c0.1,0.1,0.2,0.2,0.2,0.3c0,0.1,0.1,0.2,0,0.4c0,0.1-0.1,0.2-0.2,0.3
	c-0.1,0.1-0.2,0.1-0.3,0.2c-0.1,0-0.2,0-0.4,0c-0.1,0-0.2-0.1-0.3-0.2c-0.1-0.1-0.1-0.2-0.1-0.3c0-0.2,0.1-0.3,0.2-0.4
	C276.4,126.3,276.5,126.3,276.7,126.3z"/>
<path class="st19" d="M277.3,124.8c0-0.3-0.3-0.6-0.6-0.6s-0.6,0.3-0.6,0.6c0,0.3,0.3,0.6,0.6,0.6S277.3,125.1,277.3,124.8z"/>
<path class="st19" d="M276.7,122.1c0.1,0,0.2,0,0.3,0.1c0.1,0.1,0.2,0.2,0.2,0.3c0,0.1,0.1,0.2,0,0.4c0,0.1-0.1,0.2-0.2,0.3
	s-0.2,0.1-0.3,0.2c-0.1,0-0.2,0-0.4,0c-0.1,0-0.2-0.1-0.3-0.2c-0.1-0.1-0.1-0.2-0.1-0.3c0-0.1,0-0.2,0-0.2c0-0.1,0.1-0.1,0.1-0.2
	c0.1-0.1,0.1-0.1,0.2-0.1C276.5,122.1,276.6,122.1,276.7,122.1z"/>
<path class="st19" d="M277.3,120.6c0-0.3-0.3-0.6-0.6-0.6s-0.6,0.3-0.6,0.6c0,0.3,0.3,0.6,0.6,0.6S277.3,121,277.3,120.6z"/>
<path class="st19" d="M279.1,145.6c0-0.3-0.3-0.6-0.6-0.6c-0.3,0-0.6,0.3-0.6,0.6c0,0.3,0.3,0.6,0.6,0.6
	C278.8,146.2,279.1,145.9,279.1,145.6z"/>
<path class="st19" d="M279.1,143.5c0-0.3-0.3-0.6-0.6-0.6c-0.3,0-0.6,0.3-0.6,0.6c0,0.3,0.3,0.6,0.6,0.6
	C278.8,144.1,279.1,143.9,279.1,143.5z"/>
<path class="st19" d="M278.5,140.8c0.1,0,0.2,0,0.3,0.1c0.1,0.1,0.2,0.2,0.2,0.3c0,0.1,0.1,0.2,0,0.4c0,0.1-0.1,0.2-0.2,0.3
	c-0.1,0.1-0.2,0.1-0.3,0.2c-0.1,0-0.2,0-0.4,0c-0.1,0-0.2-0.1-0.3-0.2c-0.1-0.1-0.1-0.2-0.1-0.3c0-0.1,0-0.2,0-0.2
	c0-0.1,0.1-0.1,0.1-0.2c0.1-0.1,0.1-0.1,0.2-0.1C278.3,140.8,278.4,140.8,278.5,140.8z"/>
<path class="st19" d="M278.5,138.7c0.2,0,0.3,0.1,0.4,0.2c0.1,0.1,0.2,0.3,0.2,0.4c0,0.2-0.1,0.3-0.2,0.4c-0.1,0.1-0.2,0.2-0.4,0.2
	c-0.1,0-0.2,0-0.3,0c-0.1,0-0.2-0.1-0.2-0.1c-0.1-0.1-0.1-0.1-0.1-0.2s-0.1-0.2-0.1-0.2c0-0.1,0-0.2,0.1-0.2s0.1-0.1,0.1-0.2
	c0.1-0.1,0.1-0.1,0.2-0.1C278.3,138.8,278.4,138.7,278.5,138.7z"/>
<path class="st19" d="M278.5,136.7c0.1,0,0.2,0,0.3,0.1c0.1,0.1,0.2,0.2,0.2,0.3c0,0.1,0.1,0.2,0,0.4c0,0.1-0.1,0.2-0.2,0.3
	c-0.1,0.1-0.2,0.1-0.3,0.2c-0.1,0-0.2,0-0.4,0c-0.1,0-0.2-0.1-0.3-0.2c-0.1-0.1-0.1-0.2-0.1-0.3c0-0.1,0-0.2,0-0.2
	c0-0.1,0.1-0.1,0.1-0.2c0.1-0.1,0.1-0.1,0.2-0.1C278.3,136.7,278.4,136.7,278.5,136.7z"/>
<path class="st19" d="M279.1,135.2c0-0.3-0.3-0.6-0.6-0.6c-0.3,0-0.6,0.3-0.6,0.6c0,0.3,0.3,0.6,0.6,0.6
	C278.8,135.8,279.1,135.5,279.1,135.2z"/>
<path class="st19" d="M279.1,133.1c0-0.3-0.3-0.6-0.6-0.6c-0.3,0-0.6,0.3-0.6,0.6c0,0.3,0.3,0.6,0.6,0.6
	C278.8,133.7,279.1,133.5,279.1,133.1z"/>
<path class="st19" d="M279.1,131c0-0.3-0.3-0.6-0.6-0.6c-0.3,0-0.6,0.3-0.6,0.6s0.3,0.6,0.6,0.6C278.8,131.7,279.1,131.4,279.1,131z
	"/>
<path class="st19" d="M279.1,129c0-0.3-0.3-0.6-0.6-0.6c-0.3,0-0.6,0.3-0.6,0.6c0,0.3,0.3,0.6,0.6,0.6
	C278.8,129.6,279.1,129.3,279.1,129z"/>
<path class="st19" d="M278.5,126.3c0.1,0,0.2,0,0.3,0.1c0.1,0.1,0.2,0.2,0.2,0.3c0,0.1,0.1,0.2,0,0.4c0,0.1-0.1,0.2-0.2,0.3
	c-0.1,0.1-0.2,0.1-0.3,0.2c-0.1,0-0.2,0-0.4,0c-0.1,0-0.2-0.1-0.3-0.2c-0.1-0.1-0.1-0.2-0.1-0.3c0-0.2,0.1-0.3,0.2-0.4
	S278.3,126.3,278.5,126.3z"/>
<path class="st19" d="M279.1,124.8c0-0.3-0.3-0.6-0.6-0.6c-0.3,0-0.6,0.3-0.6,0.6c0,0.3,0.3,0.6,0.6,0.6
	C278.8,125.4,279.1,125.1,279.1,124.8z"/>
<path class="st19" d="M278.5,122.1c0.2,0,0.3,0.1,0.4,0.2c0.1,0.1,0.2,0.3,0.2,0.4c0,0.2-0.1,0.3-0.2,0.4c-0.1,0.1-0.2,0.2-0.4,0.2
	c-0.1,0-0.2,0-0.3,0c-0.1,0-0.2-0.1-0.2-0.1c-0.1-0.1-0.1-0.1-0.1-0.2c0-0.1-0.1-0.2-0.1-0.2c0-0.1,0-0.2,0.1-0.2
	c0-0.1,0.1-0.1,0.1-0.2c0.1-0.1,0.1-0.1,0.2-0.1C278.3,122.1,278.4,122.1,278.5,122.1z"/>
<path class="st19" d="M280.9,145.6c0-0.3-0.3-0.6-0.6-0.6c-0.3,0-0.6,0.3-0.6,0.6c0,0.3,0.3,0.6,0.6,0.6
	C280.6,146.2,280.9,145.9,280.9,145.6z"/>
<path class="st19" d="M280.9,143.5c0-0.3-0.3-0.6-0.6-0.6c-0.3,0-0.6,0.3-0.6,0.6c0,0.3,0.3,0.6,0.6,0.6
	C280.6,144.1,280.9,143.9,280.9,143.5z"/>
<path class="st19" d="M280.2,140.8c0.1,0,0.2,0,0.3,0.1c0.1,0.1,0.2,0.2,0.2,0.3c0,0.1,0.1,0.2,0,0.4c0,0.1-0.1,0.2-0.2,0.3
	c-0.1,0.1-0.2,0.1-0.3,0.2c-0.1,0-0.2,0-0.4,0c-0.1,0-0.2-0.1-0.3-0.2c-0.1-0.1-0.1-0.2-0.1-0.3c0-0.1,0-0.2,0-0.2
	c0-0.1,0.1-0.1,0.1-0.2c0.1-0.1,0.1-0.1,0.2-0.1C280.1,140.8,280.2,140.8,280.2,140.8z"/>
<path class="st19" d="M280.2,138.7c0.2,0,0.3,0.1,0.4,0.2c0.1,0.1,0.2,0.3,0.2,0.4c0,0.2-0.1,0.3-0.2,0.4c-0.1,0.1-0.2,0.2-0.4,0.2
	c-0.1,0-0.2,0-0.3,0c-0.1,0-0.2-0.1-0.2-0.1c-0.1-0.1-0.1-0.1-0.1-0.2s-0.1-0.2-0.1-0.2c0-0.1,0-0.2,0.1-0.2s0.1-0.1,0.1-0.2
	c0.1-0.1,0.1-0.1,0.2-0.1C280.1,138.8,280.2,138.7,280.2,138.7z"/>
<path class="st19" d="M280.2,136.7c0.1,0,0.2,0,0.3,0.1c0.1,0.1,0.2,0.2,0.2,0.3c0,0.1,0.1,0.2,0,0.4c0,0.1-0.1,0.2-0.2,0.3
	c-0.1,0.1-0.2,0.1-0.3,0.2c-0.1,0-0.2,0-0.4,0c-0.1,0-0.2-0.1-0.3-0.2c-0.1-0.1-0.1-0.2-0.1-0.3c0-0.1,0-0.2,0-0.2
	c0-0.1,0.1-0.1,0.1-0.2c0.1-0.1,0.1-0.1,0.2-0.1C280.1,136.7,280.2,136.7,280.2,136.7z"/>
<path class="st19" d="M280.9,135.2c0-0.3-0.3-0.6-0.6-0.6c-0.3,0-0.6,0.3-0.6,0.6c0,0.3,0.3,0.6,0.6,0.6
	C280.6,135.8,280.9,135.5,280.9,135.2z"/>
<path class="st19" d="M280.9,133.1c0-0.3-0.3-0.6-0.6-0.6c-0.3,0-0.6,0.3-0.6,0.6c0,0.3,0.3,0.6,0.6,0.6
	C280.6,133.7,280.9,133.5,280.9,133.1z"/>
<path class="st19" d="M280.9,131c0-0.3-0.3-0.6-0.6-0.6c-0.3,0-0.6,0.3-0.6,0.6s0.3,0.6,0.6,0.6C280.6,131.7,280.9,131.4,280.9,131z
	"/>
<path class="st19" d="M280.9,129c0-0.3-0.3-0.6-0.6-0.6c-0.3,0-0.6,0.3-0.6,0.6c0,0.3,0.3,0.6,0.6,0.6
	C280.6,129.6,280.9,129.3,280.9,129z"/>
<path class="st19" d="M280.2,126.3c0.1,0,0.2,0,0.3,0.1c0.1,0.1,0.2,0.2,0.2,0.3c0,0.1,0.1,0.2,0,0.4c0,0.1-0.1,0.2-0.2,0.3
	c-0.1,0.1-0.2,0.1-0.3,0.2c-0.1,0-0.2,0-0.4,0c-0.1,0-0.2-0.1-0.3-0.2c-0.1-0.1-0.1-0.2-0.1-0.3c0-0.2,0.1-0.3,0.2-0.4
	S280.1,126.3,280.2,126.3z"/>
<path class="st19" d="M280.9,124.8c0-0.3-0.3-0.6-0.6-0.6c-0.3,0-0.6,0.3-0.6,0.6c0,0.3,0.3,0.6,0.6,0.6
	C280.6,125.4,280.9,125.1,280.9,124.8z"/>
<path class="st19" d="M282.6,129c0-0.3-0.3-0.6-0.6-0.6c-0.3,0-0.6,0.3-0.6,0.6c0,0.3,0.3,0.6,0.6,0.6
	C282.4,129.6,282.6,129.3,282.6,129z"/>
<path class="st19" d="M282,126.3c0.1,0,0.2,0,0.3,0.1c0.1,0.1,0.2,0.2,0.2,0.3c0,0.1,0.1,0.2,0,0.4c0,0.1-0.1,0.2-0.2,0.3
	c-0.1,0.1-0.2,0.1-0.3,0.2s-0.2,0-0.4,0c-0.1,0-0.2-0.1-0.3-0.2c-0.1-0.1-0.1-0.2-0.1-0.3c0-0.2,0.1-0.3,0.2-0.4
	C281.7,126.3,281.9,126.3,282,126.3z"/>
<path class="st19" d="M284.4,129c0-0.3-0.3-0.6-0.6-0.6c-0.3,0-0.6,0.3-0.6,0.6c0,0.3,0.3,0.6,0.6,0.6
	C284.1,129.6,284.4,129.3,284.4,129z"/>
<circle class="st17" cx="278.5" cy="296.5" r="28.5"/>
<linearGradient id="SVGID_25_" gradientUnits="userSpaceOnUse" x1="248" y1="170.9245" x2="305" y2="113.9245" gradientTransform="matrix(1 0 0 -1 0 435.9592)">
	<stop  offset="0.2333" style="stop-color:#EECA48"/>
	<stop  offset="0.4927" style="stop-color:#E2B321"/>
	<stop  offset="1" style="stop-color:#F8F37F"/>
</linearGradient>
<circle class="st20" cx="276.5" cy="293.5" r="28.5"/>
<path d="M271.8,287.4v2.8h-4.4l-0.2,1.4c0.4-0.1,0.7-0.1,1-0.1c1.4,0,2.5,0.4,3.3,1.3c0.8,0.8,1.2,1.8,1.2,3c0,1.3-0.4,2.3-1.2,3.2
	c-0.9,1-2.2,1.4-4,1.4c-1.6,0-3.1-0.4-4.3-1.1l0.5-3.1c0.5,0.4,1,0.8,1.5,1c0.6,0.3,1.3,0.4,1.9,0.4c0.7,0,1.3-0.2,1.7-0.6
	c0.3-0.4,0.5-0.8,0.5-1.3c0-0.6-0.2-1-0.6-1.4c-0.5-0.4-1.2-0.6-2.3-0.6c-0.8,0-1.6,0.2-2.3,0.5l1.1-6.8H271.8z M283.3,285.3h1.9
	v2.1c0.9,0.1,1.9,0.4,2.9,1l-1.3,2.4c-0.7-0.5-1.4-0.8-2.1-0.8c-0.5,0-0.9,0.1-1.1,0.3c-0.2,0.2-0.3,0.4-0.3,0.6
	c0,0.2,0.1,0.5,0.3,0.6c0.2,0.2,0.5,0.3,0.9,0.5l1,0.3c1,0.3,1.7,0.7,2.2,1.2c0.6,0.6,0.9,1.4,0.9,2.3c0,1.2-0.4,2.1-1.1,2.9
	c-0.6,0.6-1.3,1-2.3,1.2v2.1h-1.9v-2.1c-0.7,0-1.4-0.2-2.1-0.5c-0.7-0.3-1.3-0.6-1.8-1.1l1.4-2.5c0.5,0.4,0.9,0.8,1.3,1
	c0.6,0.3,1.2,0.4,1.7,0.4c0.5,0,0.9-0.1,1.2-0.4c0.2-0.2,0.3-0.5,0.3-0.8c0-0.3-0.1-0.5-0.4-0.7c-0.2-0.1-0.5-0.3-0.9-0.4l-1.1-0.4
	c-1-0.3-1.7-0.7-2.1-1.2c-0.5-0.6-0.8-1.3-0.8-2.2c0-1.1,0.3-2,0.9-2.7c0.6-0.7,1.4-1.1,2.3-1.3V285.3z"/>
<circle class="st17" cx="278.5" cy="185.5" r="28.5"/>
<linearGradient id="SVGID_26_" gradientUnits="userSpaceOnUse" x1="248" y1="281.9245" x2="305" y2="224.9245" gradientTransform="matrix(1 0 0 -1 0 435.9592)">
	<stop  offset="0.2333" style="stop-color:#EECA48"/>
	<stop  offset="0.4927" style="stop-color:#E2B321"/>
	<stop  offset="1" style="stop-color:#F8F37F"/>
</linearGradient>
<circle class="st21" cx="276.5" cy="182.5" r="28.5"/>
<path d="M261,179.4c-0.3-0.3-0.6-0.4-1-0.4s-0.7,0.1-1,0.4c-0.3,0.3-0.6,0.7-0.8,1.4c-0.2,0.6-0.3,1.3-0.3,1.9
	c0,0.6,0.1,1.2,0.3,1.9c0.2,0.7,0.5,1.1,0.8,1.4c0.3,0.3,0.6,0.4,1,0.4s0.7-0.1,1-0.4c0.3-0.3,0.6-0.8,0.8-1.4
	c0.2-0.7,0.3-1.3,0.3-1.9s-0.1-1.2-0.3-1.9C261.6,180.2,261.3,179.7,261,179.4z M265.4,182.7c0,2.2-0.6,3.9-1.9,5.2
	c-1,1-2.1,1.4-3.5,1.4c-1.4,0-2.5-0.5-3.5-1.4c-1.3-1.2-1.9-3-1.9-5.2c0-2.2,0.6-4,1.9-5.2c1-1,2.1-1.4,3.5-1.4
	c1.4,0,2.5,0.5,3.5,1.4C264.8,178.7,265.4,180.5,265.4,182.7z M270,188.8c-0.4,0.4-0.9,0.6-1.4,0.6c-0.5,0-1-0.2-1.4-0.6
	c-0.4-0.4-0.6-0.9-0.6-1.4c0-0.5,0.2-1,0.6-1.4c0.4-0.4,0.9-0.6,1.4-0.6c0.5,0,1,0.2,1.4,0.6c0.4,0.4,0.6,0.8,0.6,1.4
	S270.4,188.4,270,188.8z M280.9,176.4v2.8h-4.4l-0.2,1.4c0.4-0.1,0.7-0.1,1-0.1c1.4,0,2.5,0.4,3.3,1.3c0.8,0.8,1.2,1.8,1.2,3
	c0,1.3-0.4,2.3-1.2,3.2c-0.9,0.9-2.2,1.4-4,1.4c-1.6,0-3.1-0.4-4.3-1.1l0.5-3.1c0.5,0.4,1,0.8,1.5,1c0.6,0.3,1.3,0.4,1.9,0.4
	c0.7,0,1.3-0.2,1.7-0.6c0.3-0.4,0.5-0.8,0.5-1.3c0-0.6-0.2-1-0.6-1.4c-0.5-0.4-1.2-0.6-2.3-0.6c-0.8,0-1.6,0.2-2.3,0.5l1.1-6.8
	H280.9z M292.4,174.3h1.9v2.1c0.9,0.1,1.9,0.4,2.9,1l-1.3,2.4c-0.7-0.5-1.4-0.8-2.1-0.8c-0.5,0-0.9,0.1-1.1,0.3
	c-0.2,0.2-0.3,0.4-0.3,0.6c0,0.2,0.1,0.4,0.3,0.6c0.2,0.2,0.5,0.3,0.9,0.5l1,0.3c1,0.3,1.7,0.7,2.2,1.2c0.6,0.6,0.9,1.4,0.9,2.3
	c0,1.2-0.4,2.1-1.1,2.9c-0.6,0.6-1.3,1-2.3,1.2v2.1h-1.9v-2.1c-0.7,0-1.4-0.2-2.1-0.5c-0.7-0.3-1.3-0.6-1.8-1.1l1.4-2.5
	c0.5,0.4,0.9,0.8,1.3,1c0.6,0.3,1.2,0.4,1.7,0.4c0.5,0,0.9-0.1,1.2-0.4c0.2-0.2,0.3-0.5,0.3-0.8c0-0.3-0.1-0.5-0.4-0.7
	c-0.2-0.1-0.5-0.3-0.9-0.4l-1.1-0.4c-1-0.3-1.7-0.7-2.1-1.2c-0.5-0.6-0.8-1.3-0.8-2.2c0-1.1,0.3-2,1-2.7c0.6-0.7,1.4-1.1,2.3-1.3
	V174.3z"/>
<circle class="st15" cx="419" cy="294" r="20"/>
<linearGradient id="SVGID_27_" gradientUnits="userSpaceOnUse" x1="398" y1="163.9245" x2="438" y2="123.9245" gradientTransform="matrix(1 0 0 -1 0 435.9592)">
	<stop  offset="0.2333" style="stop-color:#F9FFFE"/>
	<stop  offset="1" style="stop-color:#C0BFB5"/>
</linearGradient>
<circle class="st22" cx="418" cy="292" r="20"/>
<path d="M406.7,297v-7.3h-1.3v-2.1h3.8v9.3H406.7z M415.5,290c-0.2-0.2-0.5-0.3-0.7-0.3s-0.5,0.1-0.7,0.3c-0.2,0.2-0.4,0.6-0.6,1
	c-0.1,0.5-0.2,0.9-0.2,1.4c0,0.4,0.1,0.9,0.2,1.4c0.1,0.5,0.4,0.8,0.6,1.1c0.2,0.2,0.5,0.3,0.7,0.3s0.5-0.1,0.7-0.3
	c0.2-0.2,0.4-0.6,0.6-1c0.1-0.5,0.2-0.9,0.2-1.4s-0.1-0.9-0.2-1.4C415.9,290.5,415.7,290.2,415.5,290z M418.7,292.4
	c0,1.6-0.5,2.9-1.4,3.8c-0.7,0.7-1.6,1.1-2.6,1.1c-1,0-1.9-0.4-2.6-1.1c-0.9-0.9-1.4-2.2-1.4-3.8c0-1.6,0.5-2.9,1.4-3.8
	c0.7-0.7,1.6-1.1,2.6-1.1c1,0,1.9,0.4,2.6,1.1C418.3,289.5,418.7,290.7,418.7,292.4z M426,286.2h1.4v1.5c0.7,0,1.4,0.3,2.1,0.7
	l-0.9,1.8c-0.5-0.4-1-0.6-1.6-0.6c-0.4,0-0.7,0.1-0.8,0.3c-0.1,0.1-0.2,0.3-0.2,0.5c0,0.2,0.1,0.3,0.2,0.5c0.2,0.1,0.4,0.3,0.6,0.4
	l0.7,0.3c0.7,0.2,1.3,0.5,1.6,0.9c0.5,0.5,0.7,1,0.7,1.7c0,0.9-0.3,1.6-0.8,2.1c-0.4,0.4-1,0.7-1.7,0.9v1.6H426v-1.5
	c-0.5,0-1.1-0.1-1.6-0.3c-0.5-0.2-0.9-0.5-1.4-0.8l1-1.9c0.3,0.3,0.7,0.6,1,0.7c0.4,0.2,0.9,0.3,1.3,0.3c0.4,0,0.7-0.1,0.9-0.3
	c0.2-0.2,0.3-0.4,0.3-0.6c0-0.2-0.1-0.4-0.3-0.5c-0.1-0.1-0.3-0.2-0.6-0.3l-0.8-0.3c-0.7-0.2-1.2-0.5-1.5-0.9
	c-0.4-0.4-0.6-1-0.6-1.6c0-0.8,0.2-1.5,0.7-2c0.4-0.5,1-0.8,1.7-0.9V286.2z"/>
<circle class="st15" cx="75" cy="405" r="20"/>
<linearGradient id="SVGID_28_" gradientUnits="userSpaceOnUse" x1="54" y1="52.9245" x2="94" y2="12.9245" gradientTransform="matrix(1 0 0 -1 0 435.9592)">
	<stop  offset="0.2333" style="stop-color:#F9FFFE"/>
	<stop  offset="1" style="stop-color:#C0BFB5"/>
</linearGradient>
<circle class="st23" cx="74" cy="403" r="20"/>
<path d="M58.5,408v-7.3h-1.3v-2.1h3.8v9.3H58.5z M67.3,401c-0.2-0.2-0.5-0.3-0.7-0.3s-0.5,0.1-0.7,0.3c-0.2,0.2-0.4,0.6-0.6,1
	c-0.1,0.5-0.2,0.9-0.2,1.4c0,0.4,0.1,0.9,0.2,1.4c0.1,0.5,0.3,0.8,0.6,1.1c0.2,0.2,0.5,0.3,0.7,0.3s0.5-0.1,0.7-0.3
	c0.2-0.2,0.4-0.6,0.6-1c0.1-0.5,0.2-0.9,0.2-1.4s-0.1-0.9-0.2-1.4C67.7,401.5,67.5,401.2,67.3,401z M70.5,403.4
	c0,1.6-0.5,2.9-1.4,3.8c-0.7,0.7-1.6,1.1-2.6,1.1c-1,0-1.9-0.4-2.6-1.1c-0.9-0.9-1.4-2.2-1.4-3.8c0-1.6,0.5-2.9,1.4-3.8
	c0.7-0.7,1.6-1.1,2.6-1.1c1,0,1.9,0.4,2.6,1.1C70.1,400.5,70.5,401.7,70.5,403.4z M75.7,401c-0.2-0.2-0.5-0.3-0.7-0.3
	s-0.5,0.1-0.7,0.3c-0.2,0.2-0.4,0.6-0.6,1c-0.1,0.5-0.2,0.9-0.2,1.4c0,0.4,0.1,0.9,0.2,1.4c0.1,0.5,0.3,0.8,0.6,1.1
	c0.2,0.2,0.5,0.3,0.7,0.3s0.5-0.1,0.7-0.3c0.2-0.2,0.4-0.6,0.6-1c0.1-0.5,0.2-0.9,0.2-1.4s-0.1-0.9-0.2-1.4
	C76.1,401.5,75.9,401.2,75.7,401z M78.9,403.4c0,1.6-0.5,2.9-1.4,3.8c-0.7,0.7-1.6,1.1-2.6,1.1c-1,0-1.9-0.4-2.6-1.1
	c-0.9-0.9-1.4-2.2-1.4-3.8c0-1.6,0.5-2.9,1.4-3.8c0.7-0.7,1.6-1.1,2.6-1.1c1,0,1.9,0.4,2.6,1.1C78.5,400.5,78.9,401.7,78.9,403.4z
	 M86.2,397.2h1.4v1.5c0.7,0,1.4,0.3,2.1,0.7l-0.9,1.8c-0.5-0.4-1-0.6-1.6-0.6c-0.4,0-0.7,0.1-0.8,0.3c-0.1,0.1-0.2,0.3-0.2,0.5
	c0,0.2,0.1,0.3,0.2,0.5c0.2,0.1,0.4,0.3,0.6,0.4l0.7,0.3c0.7,0.2,1.3,0.5,1.6,0.9c0.5,0.5,0.7,1,0.7,1.7c0,0.9-0.3,1.6-0.8,2.1
	c-0.4,0.4-1,0.7-1.7,0.9v1.6h-1.4v-1.5c-0.5,0-1.1-0.1-1.6-0.3c-0.5-0.2-0.9-0.5-1.4-0.8l1-1.9c0.3,0.3,0.7,0.6,1,0.7
	c0.4,0.2,0.9,0.3,1.3,0.3c0.4,0,0.7-0.1,0.9-0.3c0.2-0.2,0.3-0.4,0.3-0.6c0-0.2-0.1-0.4-0.3-0.5c-0.1-0.1-0.3-0.2-0.6-0.3l-0.8-0.3
	c-0.7-0.2-1.2-0.5-1.5-0.9c-0.4-0.4-0.6-1-0.6-1.6c0-0.8,0.2-1.5,0.7-2c0.4-0.5,1-0.8,1.7-0.9V397.2z"/>
<circle class="st15" cx="480" cy="405" r="20"/>
<linearGradient id="SVGID_29_" gradientUnits="userSpaceOnUse" x1="459" y1="52.9245" x2="499" y2="12.9245" gradientTransform="matrix(1 0 0 -1 0 435.9592)">
	<stop  offset="0.2333" style="stop-color:#F9FFFE"/>
	<stop  offset="1" style="stop-color:#C0BFB5"/>
</linearGradient>
<circle class="st24" cx="479" cy="403" r="20"/>
<path d="M463.5,408v-7.3h-1.3v-2.1h3.8v9.3H463.5z M472.3,401c-0.2-0.2-0.5-0.3-0.7-0.3s-0.5,0.1-0.7,0.3c-0.2,0.2-0.4,0.6-0.6,1
	c-0.1,0.5-0.2,0.9-0.2,1.4c0,0.4,0.1,0.9,0.2,1.4c0.1,0.5,0.4,0.8,0.6,1.1c0.2,0.2,0.5,0.3,0.7,0.3s0.5-0.1,0.7-0.3
	c0.2-0.2,0.4-0.6,0.6-1c0.1-0.5,0.2-0.9,0.2-1.4s-0.1-0.9-0.2-1.4C472.7,401.5,472.5,401.2,472.3,401z M475.5,403.4
	c0,1.6-0.5,2.9-1.4,3.8c-0.7,0.7-1.6,1.1-2.6,1.1c-1,0-1.9-0.4-2.6-1.1c-0.9-0.9-1.4-2.2-1.4-3.8c0-1.6,0.5-2.9,1.4-3.8
	c0.7-0.7,1.6-1.1,2.6-1.1c1,0,1.9,0.4,2.6,1.1C475.1,400.5,475.5,401.7,475.5,403.4z M480.7,401c-0.2-0.2-0.5-0.3-0.7-0.3
	s-0.5,0.1-0.7,0.3c-0.2,0.2-0.4,0.6-0.6,1c-0.1,0.5-0.2,0.9-0.2,1.4c0,0.4,0.1,0.9,0.2,1.4c0.1,0.5,0.3,0.8,0.6,1.1
	c0.2,0.2,0.5,0.3,0.7,0.3s0.5-0.1,0.7-0.3c0.2-0.2,0.4-0.6,0.6-1c0.1-0.5,0.2-0.9,0.2-1.4s-0.1-0.9-0.2-1.4
	C481.1,401.5,480.9,401.2,480.7,401z M483.9,403.4c0,1.6-0.5,2.9-1.4,3.8c-0.7,0.7-1.6,1.1-2.6,1.1c-1,0-1.9-0.4-2.6-1.1
	c-0.9-0.9-1.4-2.2-1.4-3.8c0-1.6,0.5-2.9,1.4-3.8c0.7-0.7,1.6-1.1,2.6-1.1c1,0,1.9,0.4,2.6,1.1C483.5,400.5,483.9,401.7,483.9,403.4
	z M491.2,397.2h1.4v1.5c0.7,0,1.4,0.3,2.1,0.7l-0.9,1.8c-0.5-0.4-1-0.6-1.6-0.6c-0.4,0-0.7,0.1-0.8,0.3c-0.1,0.1-0.2,0.3-0.2,0.5
	c0,0.2,0.1,0.3,0.2,0.5c0.2,0.1,0.4,0.3,0.6,0.4l0.7,0.3c0.7,0.2,1.3,0.5,1.6,0.9c0.5,0.5,0.7,1,0.7,1.7c0,0.9-0.3,1.6-0.8,2.1
	c-0.4,0.4-1,0.7-1.7,0.9v1.6h-1.4v-1.5c-0.5,0-1.1-0.1-1.6-0.3c-0.5-0.2-0.9-0.5-1.4-0.8l1-1.9c0.3,0.3,0.7,0.6,1,0.7
	c0.4,0.2,0.9,0.3,1.3,0.3c0.4,0,0.7-0.1,0.9-0.3c0.2-0.2,0.3-0.4,0.3-0.6c0-0.2-0.1-0.4-0.3-0.5c-0.1-0.1-0.3-0.2-0.6-0.3l-0.8-0.3
	c-0.7-0.2-1.2-0.5-1.5-0.9c-0.4-0.4-0.6-1-0.6-1.6c0-0.8,0.2-1.5,0.7-2c0.4-0.5,1-0.8,1.7-0.9V397.2z"/>
<circle class="st15" cx="200" cy="181" r="20"/>
<linearGradient id="SVGID_30_" gradientUnits="userSpaceOnUse" x1="179" y1="276.9245" x2="219" y2="236.9245" gradientTransform="matrix(1 0 0 -1 0 435.9592)">
	<stop  offset="0.2333" style="stop-color:#F9FFFE"/>
	<stop  offset="1" style="stop-color:#C0BFB5"/>
</linearGradient>
<circle class="st25" cx="199" cy="179" r="20"/>
<path d="M193.4,184v-7.3h-1.3v-2.1h3.8v9.3H193.4z M202.2,173.2h1.4v1.5c0.7,0,1.4,0.3,2.1,0.7l-0.9,1.8c-0.5-0.4-1-0.6-1.6-0.6
	c-0.4,0-0.7,0.1-0.8,0.3c-0.1,0.1-0.2,0.3-0.2,0.5c0,0.2,0.1,0.3,0.2,0.5c0.2,0.1,0.4,0.3,0.6,0.3l0.7,0.3c0.7,0.2,1.3,0.5,1.6,0.9
	c0.5,0.5,0.7,1,0.7,1.7c0,0.9-0.3,1.6-0.8,2.1c-0.4,0.4-1,0.7-1.7,0.9v1.6h-1.4v-1.5c-0.5,0-1.1-0.1-1.6-0.3
	c-0.5-0.2-0.9-0.5-1.4-0.8l1-1.9c0.3,0.3,0.7,0.6,1,0.7c0.4,0.2,0.9,0.3,1.3,0.3c0.4,0,0.7-0.1,0.9-0.3c0.2-0.2,0.3-0.4,0.3-0.6
	c0-0.2-0.1-0.4-0.3-0.5c-0.1-0.1-0.3-0.2-0.6-0.3l-0.8-0.3c-0.7-0.2-1.2-0.5-1.5-0.9c-0.4-0.4-0.6-1-0.6-1.6c0-0.8,0.2-1.5,0.7-2
	c0.4-0.5,1-0.8,1.7-0.9V173.2z"/>
<circle class="st15" cx="360" cy="181" r="20"/>
<linearGradient id="SVGID_31_" gradientUnits="userSpaceOnUse" x1="339" y1="276.9245" x2="379" y2="236.9245" gradientTransform="matrix(1 0 0 -1 0 435.9592)">
	<stop  offset="0.2333" style="stop-color:#F9FFFE"/>
	<stop  offset="1" style="stop-color:#C0BFB5"/>
</linearGradient>
<circle class="st26" cx="359" cy="179" r="20"/>
<path d="M353.4,184v-7.3h-1.3v-2.1h3.8v9.3H353.4z M362.2,173.2h1.4v1.5c0.7,0,1.4,0.3,2.1,0.7l-0.9,1.8c-0.5-0.4-1-0.6-1.6-0.6
	c-0.4,0-0.7,0.1-0.8,0.3c-0.1,0.1-0.2,0.3-0.2,0.5c0,0.2,0.1,0.3,0.2,0.5c0.2,0.1,0.4,0.3,0.6,0.3l0.7,0.3c0.7,0.2,1.3,0.5,1.6,0.9
	c0.5,0.5,0.7,1,0.7,1.7c0,0.9-0.3,1.6-0.8,2.1c-0.4,0.4-1,0.7-1.7,0.9v1.6h-1.4v-1.5c-0.5,0-1.1-0.1-1.6-0.3
	c-0.5-0.2-0.9-0.5-1.4-0.8l1-1.9c0.3,0.3,0.7,0.6,1,0.7c0.4,0.2,0.9,0.3,1.3,0.3c0.4,0,0.7-0.1,0.9-0.3c0.2-0.2,0.3-0.4,0.3-0.6
	c0-0.2-0.1-0.4-0.3-0.5c-0.1-0.1-0.3-0.2-0.6-0.3l-0.8-0.3c-0.7-0.2-1.2-0.5-1.5-0.9c-0.4-0.4-0.6-1-0.6-1.6c0-0.8,0.2-1.5,0.7-2
	c0.4-0.5,1-0.8,1.7-0.9V173.2z"/>
</svg>
