<?xml version="1.0" encoding="utf-8"?>
<!-- Generator: Adobe Illustrator 25.2.1, SVG Export Plug-In . SVG Version: 6.00 Build 0)  -->
<svg version="1.1" id="Слой_1" xmlns="http://www.w3.org/2000/svg" xmlns:xlink="http://www.w3.org/1999/xlink" x="0px" y="0px"
	 width="1387.9px" height="1786.2px" viewBox="0 0 1387.9 1786.2" style="enable-background:new 0 0 1387.9 1786.2;"
	 xml:space="preserve">
<style type="text/css">
	.st0{fill:#FFFFFF;}
	.st1{opacity:0.28;}
	.st2{opacity:0.73;}
	.st3{opacity:0.32;}
	.st4{opacity:0.36;}
	.st5{opacity:0.41;}
	.st6{opacity:0.47;}
</style>
<g>
	<g>
		<path class="st0" d="M516.2,1461.6l0.2,1.3l0.1-1.3l1.6-0.2l-1.6-0.1l-0.2-1.3l-0.1,1.3l-1.6,0.2L516.2,1461.6z"/>
	</g>
	<g>
		<path class="st0" d="M516.4,1461.6l2.1,1.3l-1.9-1.5l2.1-2l-2.3,1.9l-2.4-1.7l2.2,1.8l-1.8,1.7L516.4,1461.6z"/>
	</g>
	<g>
		<path class="st0" d="M294,1571.9l1.6,1l-1.3-1.2l1.2-1.3l-1.5,1.1l-1.6-1l1.3,1.2l-1.2,1.3L294,1571.9z"/>
	</g>
	<g class="st1">
		<g class="st1">
			<path class="st0" d="M496.2,1531.9l2.6,1.6l-2.1-2l1.9-2.1l-2.5,1.7l-2.6-1.6l2.1,2l-1.9,2.1L496.2,1531.9z"/>
		</g>
	</g>
	<g>
		<path class="st0" d="M237.5,1611.1l1.9,1.1l-1.5-1.4l1.4-1.5l-1.8,1.2l-1.9-1.1l1.5,1.4l-1.4,1.5L237.5,1611.1z"/>
	</g>
	<g class="st2">
		<g class="st2">
			<path class="st0" d="M170.2,1609.1l2.6,1.6l-2.1-2l1.9-2.1l-2.5,1.7l-2.6-1.6l2.1,2l-1.9,2.1L170.2,1609.1z"/>
		</g>
	</g>
	<g class="st3">
		<g class="st3">
			<path class="st0" d="M436,1476.2l2.6,1.6l-2.1-2l2-2.1l-2.5,1.7l-2.6-1.6l2.1,2l-1.9,2.1L436,1476.2z"/>
		</g>
	</g>
	<g class="st4">
		<g class="st4">
			<path class="st0" d="M432.9,1410.7l1.9,1.1l-1.5-1.4l1.4-1.5l-1.8,1.2l-1.9-1.1l1.5,1.4l-1.4,1.5L432.9,1410.7z"/>
		</g>
	</g>
	<g>
		<path class="st0" d="M381.3,1365.2l0.9,0.6l-0.8-0.7l0.7-0.8l-0.9,0.6l-0.9-0.6l0.8,0.7l-0.7,0.8L381.3,1365.2z"/>
	</g>
	<g class="st1">
		<g class="st1">
			<path class="st0" d="M419.1,1485.1l1,0.6l-0.8-0.8l0.8-0.8l-1,0.7l-1-0.6l0.8,0.8l-0.8,0.8L419.1,1485.1z"/>
		</g>
	</g>
	<g class="st3">
		<g class="st3">
			<path class="st0" d="M361.5,1592.5l1.9,1.1l-1.5-1.4l1.4-1.5l-1.8,1.2l-1.9-1.1l1.5,1.4l-1.4,1.5L361.5,1592.5z"/>
		</g>
	</g>
	<g>
		<path class="st0" d="M448,1522.5l1.9,1.1l-1.5-1.4l1.4-1.5l-1.8,1.2l-1.9-1.1l1.5,1.4l-1.4,1.5L448,1522.5z"/>
	</g>
	<g>
		<path class="st0" d="M231.3,1496.2l1,0.6l-0.8-0.8l0.8-0.8l-1,0.7l-1-0.6l0.8,0.8l-0.8,0.8L231.3,1496.2z"/>
	</g>
	<g>
		<path class="st0" d="M220.2,1539.9l1.9,1.1l-1.5-1.4l1.4-1.5l-1.8,1.2l-1.9-1.1l1.5,1.4l-1.4,1.5L220.2,1539.9z"/>
	</g>
	<g class="st1">
		<g class="st1">
			<path class="st0" d="M387.1,1621.3l1.9,1.1l-1.5-1.4l1.4-1.5l-1.8,1.2l-1.9-1.1l1.5,1.4l-1.4,1.5L387.1,1621.3z"/>
		</g>
	</g>
	<g>
		<path class="st0" d="M370,1523.4l1.8,1.1l-1.5-1.4l1.3-1.5l-1.7,1.2l-1.8-1.1l1.5,1.4l-1.4,1.5L370,1523.4z"/>
	</g>
	<g>
		<path class="st0" d="M431.2,1575.4l1,0.6l-0.8-0.8l0.8-0.8l-1,0.7l-1-0.6l0.8,0.8l-0.8,0.8L431.2,1575.4z"/>
	</g>
	<g>
		<path class="st0" d="M327.9,1468.3l1.2,0.7l-1-0.9l0.9-1l-1.2,0.8l-1.2-0.7l1,0.9l-0.9,1L327.9,1468.3z"/>
	</g>
	<g>
		<path class="st0" d="M325.3,1631.4l2.6,1.6l-2.1-2l1.9-2.1l-2.5,1.7l-2.6-1.6l2.1,2l-1.9,2.1L325.3,1631.4z"/>
	</g>
	<g>
		<path class="st0" d="M453.5,1341.2l1.9,1.1l-1.5-1.4l1.4-1.5l-1.8,1.2l-1.9-1.1l1.5,1.4l-1.4,1.5L453.5,1341.2z"/>
	</g>
	<g>
		<path class="st0" d="M591.9,1491.3l2.1,1.3l-1.7-1.6l1.6-1.7l-2,1.4l-2.1-1.3l1.7,1.6l-1.6,1.7L591.9,1491.3z"/>
	</g>
	<g>
		<path class="st0" d="M297.7,1513.3l2.1,1.3l-1.7-1.6l1.6-1.7l-2,1.4l-2.1-1.3l1.7,1.6l-1.6,1.7L297.7,1513.3z"/>
	</g>
	<g>
		<path class="st0" d="M221.8,1676.6l1,0.6l-0.8-0.8l0.8-0.8l-1,0.7l-1-0.6l0.8,0.8l-0.8,0.8L221.8,1676.6z"/>
	</g>
	<g class="st1">
		<g class="st1">
			<path class="st0" d="M276.2,1692.5l1.9,1.1l-1.5-1.4l1.4-1.5l-1.8,1.2l-1.9-1.1l1.5,1.4l-1.4,1.5L276.2,1692.5z"/>
		</g>
	</g>
	<g>
		<path class="st0" d="M195.5,1671.3l1.9,1.1l-1.5-1.4l1.4-1.5l-1.8,1.2l-1.9-1.1l1.5,1.4l-1.4,1.5L195.5,1671.3z"/>
	</g>
	<g class="st1">
		<g class="st1">
			<path class="st0" d="M458.5,1277.8l0.6,3.3l0.4-3.3l4.1-0.5l-4.1-0.3l-0.6-3.3l-0.3,3.3l-4.1,0.5L458.5,1277.8z"/>
		</g>
		<g class="st1">
			<path class="st0" d="M459,1278.3l5.8,3.5l-4.7-4.4l4.3-4.7l-5.5,3.8l-5.8-3.5l4.7,4.4l-4.3,4.7L459,1278.3z"/>
		</g>
	</g>
	<g class="st1">
		<g class="st1">
			<path class="st0" d="M348.1,1490.5l1.9,1.1l-1.5-1.4l1.4-1.5l-1.8,1.2l-1.9-1.1l1.5,1.4l-1.4,1.5L348.1,1490.5z"/>
		</g>
	</g>
	<g>
		<path class="st0" d="M223,1770.1l1.9,1.1l-1.5-1.4l1.4-1.5l-1.8,1.2l-1.9-1.1l1.5,1.4l-1.4,1.5L223,1770.1z"/>
	</g>
	<g class="st5">
		<g class="st5">
			<path class="st0" d="M510.1,1353.7l1,0.6l-0.8-0.8l0.8-0.8l-1,0.7l-1-0.6l0.8,0.8l-0.8,0.8L510.1,1353.7z"/>
		</g>
	</g>
	<g>
		<path class="st0" d="M138.5,1724.8l0.9,0.6l-0.8-0.7l0.7-0.8l-0.9,0.6l-0.9-0.6l0.8,0.7l-0.7,0.8L138.5,1724.8z"/>
	</g>
	<g class="st6">
		<path class="st0" d="M68.5,1753.1l1.8,1.1l-1.5-1.4l1.4-1.4l-1.7,1.2l-1.8-1.1l1.5,1.4l-1.4,1.5L68.5,1753.1z"/>
	</g>
	<g class="st1">
		<g class="st1">
			<path class="st0" d="M177.5,1764.3l0.6,3.3l0.4-3.3l4.1-0.5l-4.1-0.3l-0.6-3.3l-0.4,3.3l-4.1,0.5L177.5,1764.3z"/>
		</g>
	</g>
	<g class="st1">
		<g class="st1">
			<path class="st0" d="M333.5,1311.7l0.6,3.3l0.4-3.3l4.1-0.5l-4.1-0.3l-0.6-3.3l-0.4,3.3l-4.1,0.5L333.5,1311.7z"/>
		</g>
	</g>
	<g>
		<path class="st0" d="M55.6,1674.1l1.6,1l-1.3-1.2l1.2-1.3l-1.5,1l-1.6-1l1.3,1.2l-1.2,1.3L55.6,1674.1z"/>
	</g>
	<g class="st3">
		<g class="st3">
			<path class="st0" d="M140.5,1665.9l2.6,1.6l-2.1-2l1.9-2.1l-2.5,1.7l-2.6-1.6l2.1,2l-1.9,2.1L140.5,1665.9z"/>
		</g>
	</g>
	<g class="st1">
		<g class="st1">
			<path class="st0" d="M123.6,1674.8l1,0.6l-0.8-0.8l0.8-0.8l-1,0.7l-1-0.6l0.8,0.8l-0.8,0.8L123.6,1674.8z"/>
		</g>
	</g>
	<g>
		<path class="st0" d="M74.5,1713.1l1.8,1.1l-1.5-1.4l1.4-1.5l-1.7,1.2l-1.8-1.1l1.5,1.4l-1.4,1.5L74.5,1713.1z"/>
	</g>
	<g>
		<path class="st0" d="M121.6,1785l1.9,1.1l-1.5-1.4l1.4-1.5l-1.8,1.2l-1.9-1.1l1.5,1.4l-1.4,1.5L121.6,1785z"/>
	</g>
	<g class="st5">
		<g class="st5">
			<path class="st0" d="M2.1,1703l2.1,1.3l-1.7-1.6l1.6-1.7l-2,1.4l-2.1-1.3l1.7,1.6l-1.6,1.7L2.1,1703z"/>
		</g>
	</g>
</g>
<g>
	<g class="st4">
		<g class="st4">
			<path class="st0" d="M568.9,1740.1l-1.9-1.1l1.5,1.4l-1.4,1.5l1.8-1.2l1.9,1.1l-1.5-1.4l1.4-1.5L568.9,1740.1z"/>
		</g>
	</g>
</g>
<g>
	<g>
		<path class="st0" d="M900.2,1556.3l-1.6,0.2l1.6,0.1l0.2,1.3l0.2-1.3l1.6-0.2l-1.6-0.1l-0.2-1.3L900.2,1556.3z"/>
	</g>
	<g>
		<path class="st0" d="M900.3,1556.5l-1.6,1.7l1.8-1.5l2.5,1.7l-2.3-1.9l2.1-1.9l-2.3,1.8l-2.2-1.5L900.3,1556.5z"/>
	</g>
	<g>
		<path class="st0" d="M763.2,1377.4l-1.2,1.3l1.5-1l1.6,1l-1.3-1.2l1.2-1.3l-1.5,1.1l-1.6-1L763.2,1377.4z"/>
	</g>
	<g class="st1">
		<g class="st1">
			<path class="st0" d="M812.9,1540.2l-1.9,2.1l2.5-1.7l2.6,1.6l-2.1-2l1.9-2.1l-2.5,1.7l-2.6-1.6L812.9,1540.2z"/>
		</g>
	</g>
	<g>
		<path class="st0" d="M714.6,1331.8l-1.4,1.5l1.8-1.2l1.9,1.1l-1.5-1.4l1.4-1.5l-1.8,1.2l-1.9-1.1L714.6,1331.8z"/>
	</g>
	<g class="st2">
		<g class="st2">
			<path class="st0" d="M717.1,1277.6l-1.9,2.1l2.5-1.7l2.6,1.6l-2.1-2l1.9-2.1l-2.5,1.7l-2.6-1.6L717.1,1277.6z"/>
		</g>
	</g>
	<g class="st3">
		<g class="st3">
			<path class="st0" d="M882,1491.7l-1.9,2.1l2.5-1.7l2.6,1.6l-2.1-2l2-2.1l-2.5,1.7l-2.6-1.6L882,1491.7z"/>
		</g>
	</g>
	<g class="st4">
		<g class="st4">
			<path class="st0" d="M963.4,1489.2l-1.4,1.5l1.8-1.2l1.9,1.1l-1.5-1.4l1.4-1.5l-1.8,1.2l-1.9-1.1L963.4,1489.2z"/>
		</g>
	</g>
	<g>
		<path class="st0" d="M960.7,1405.3l-0.7,0.8l0.9-0.6l1,0.6l-0.8-0.7l0.7-0.8l-0.9,0.6l-0.9-0.6L960.7,1405.3z"/>
	</g>
	<g class="st1">
		<g class="st1">
			<path class="st0" d="M871,1478.1l-0.8,0.8l1-0.7l1,0.6l-0.8-0.8l0.8-0.8l-1,0.7l-1-0.6L871,1478.1z"/>
		</g>
	</g>
	<g class="st3">
		<g class="st3">
			<path class="st0" d="M737.7,1431.7l-1.4,1.5l1.8-1.2l1.9,1.1l-1.5-1.4l1.4-1.5l-1.8,1.2l-1.9-1.1L737.7,1431.7z"/>
		</g>
	</g>
	<g>
		<path class="st0" d="M824.6,1501.4l-1.4,1.5l1.8-1.2l1.9,1.1l-1.5-1.4l1.4-1.5l-1.8,1.2l-1.9-1.1L824.6,1501.4z"/>
	</g>
	<g>
		<path class="st0" d="M857.2,1326.9l-0.8,0.8l1-0.7l1,0.6l-0.8-0.8l0.8-0.8l-1,0.7l-1-0.6L857.2,1326.9z"/>
	</g>
	<g>
		<path class="st0" d="M803,1317.9l-1.4,1.5l1.8-1.2l1.9,1.1l-1.5-1.4l1.4-1.5l-1.8,1.2l-1.9-1.1L803,1317.9z"/>
	</g>
	<g class="st1">
		<g class="st1">
			<path class="st0" d="M702,1452.3l-1.4,1.5l1.8-1.2l1.9,1.1l-1.5-1.4l1.4-1.5l-1.8,1.2l-1.9-1.1L702,1452.3z"/>
		</g>
	</g>
	<g>
		<path class="st0" d="M823.5,1438.5l-1.4,1.5l1.7-1.2l1.8,1.1l-1.5-1.4l1.4-1.4l-1.7,1.2l-1.8-1.1L823.5,1438.5z"/>
	</g>
	<g>
		<path class="st0" d="M758.9,1487.9l-0.8,0.8l1-0.7l1,0.6l-0.8-0.8l0.8-0.8l-1,0.7l-1-0.6L758.9,1487.9z"/>
	</g>
	<g>
		<path class="st0" d="M891.9,1404.7l-0.9,1l1.2-0.8l1.2,0.7l-1-0.9l0.9-1l-1.2,0.8l-1.2-0.7L891.9,1404.7z"/>
	</g>
	<g>
		<path class="st0" d="M689.4,1402.6l-1.9,2.1l2.5-1.7l2.6,1.6l-2.1-2l1.9-2.1l-2.5,1.7l-2.6-1.6L689.4,1402.6z"/>
	</g>
	<g>
		<path class="st0" d="M1049.7,1505.8l-1.4,1.5l1.8-1.2l1.9,1.1l-1.5-1.4l1.4-1.5l-1.8,1.2l-1.9-1.1L1049.7,1505.8z"/>
	</g>
	<g>
		<path class="st0" d="M964.4,1530.9l-1.6,1.7l2-1.4l2.1,1.3l-1.7-1.6l1.6-1.7l-2,1.4l-2.1-1.3L964.4,1530.9z"/>
	</g>
	<g>
		<path class="st0" d="M836,1380.3l-1.6,1.7l2-1.4l2.1,1.3l-1.7-1.6l1.6-1.7l-2,1.4l-2.1-1.3L836,1380.3z"/>
	</g>
	<g>
		<path class="st0" d="M633.3,1319.2l-0.8,0.8l1-0.7l1,0.6l-0.8-0.8l0.8-0.8l-1,0.7l-1-0.6L633.3,1319.2z"/>
	</g>
	<g class="st1">
		<g class="st1">
			<path class="st0" d="M613.6,1363l-1.4,1.5l1.8-1.2l1.9,1.1l-1.5-1.4l1.4-1.5l-1.8,1.2l-1.9-1.1L613.6,1363z"/>
		</g>
	</g>
	<g>
		<path class="st0" d="M639.8,1298l-1.4,1.5l1.8-1.2l1.9,1.1l-1.5-1.4l1.4-1.5l-1.8,1.2l-1.8-1.1L639.8,1298z"/>
	</g>
	<g class="st1">
		<g class="st1">
			<path class="st0" d="M1143.5,1570.8l-4.1,0.5l4.1,0.3l0.6,3.3l0.4-3.3l4.1-0.5l-4.1-0.3l-0.7-3.3L1143.5,1570.8z"/>
		</g>
		<g class="st1">
			<path class="st0" d="M1143,1571.2l-4.3,4.7l5.5-3.8l5.8,3.5l-4.7-4.4l4.3-4.7l-5.5,3.8l-5.8-3.5L1143,1571.2z"/>
		</g>
	</g>
	<g class="st1">
		<g class="st1">
			<path class="st0" d="M864.3,1420.9l-1.4,1.5l1.8-1.2l1.9,1.1l-1.5-1.4l1.4-1.5l-1.8,1.2l-1.9-1.1L864.3,1420.9z"/>
		</g>
	</g>
	<g>
		<path class="st0" d="M517.2,1320.1l-1.4,1.5l1.8-1.2l1.9,1.1l-1.5-1.4l1.4-1.5l-1.8,1.2l-1.9-1.1L517.2,1320.1z"/>
	</g>
	<g class="st5">
		<g class="st5">
			<path class="st0" d="M1034.1,1551.4l-0.8,0.8l1-0.7l1,0.6l-0.8-0.8l0.8-0.8l-0.9,0.7l-1-0.6L1034.1,1551.4z"/>
		</g>
	</g>
	<g>
		<path class="st0" d="M573.4,1252.1l-0.7,0.8l0.9-0.6l0.9,0.6l-0.8-0.7l0.7-0.8l-0.9,0.6l-0.9-0.6L573.4,1252.1z"/>
	</g>
	<g class="st6">
		<path class="st0" d="M538.4,1195.7l-1.4,1.4l1.7-1.2l1.8,1.1l-1.5-1.4l1.4-1.5l-1.7,1.2l-1.8-1.1L538.4,1195.7z"/>
	</g>
	<g class="st1">
		<g class="st1">
			<path class="st0" d="M524.4,1283.5l-4.1,0.5l4.1,0.3l0.6,3.3l0.4-3.3l4.1-0.5l-4.1-0.3l-0.6-3.3L524.4,1283.5z"/>
		</g>
	</g>
	<g class="st1">
		<g class="st1">
			<path class="st0" d="M1002.7,1446.5l-4.1,0.5l4.1,0.3l0.7,3.3l0.4-3.3l4.1-0.5l-4.1-0.3l-0.6-3.3L1002.7,1446.5z"/>
		</g>
	</g>
	<g>
		<path class="st0" d="M636.4,1185.3l-1.2,1.3l1.5-1l1.6,1l-1.3-1.2l1.2-1.3l-1.5,1.1l-1.6-1L636.4,1185.3z"/>
	</g>
	<g class="st3">
		<g class="st3">
			<path class="st0" d="M646.5,1253.7l-1.9,2.1l2.5-1.7l2.6,1.6l-2.1-2l1.9-2.1l-2.5,1.7l-2.6-1.6L646.5,1253.7z"/>
		</g>
	</g>
	<g class="st1">
		<g class="st1">
			<path class="st0" d="M635.5,1240.1l-0.8,0.8l1-0.7l1,0.6l-0.8-0.8l0.8-0.8l-1,0.7l-1-0.6L635.5,1240.1z"/>
		</g>
	</g>
	<g>
		<path class="st0" d="M588,1200.5l-1.4,1.5l1.7-1.2l1.8,1.1l-1.5-1.4l1.3-1.5l-1.7,1.2l-1.8-1.1L588,1200.5z"/>
	</g>
	<g>
		<path class="st0" d="M498.7,1238.5l-1.4,1.5l1.8-1.2l1.9,1.1l-1.5-1.4l1.4-1.5l-1.8,1.2l-1.9-1.1L498.7,1238.5z"/>
	</g>
	<g class="st5">
		<g class="st5">
			<path class="st0" d="M600.5,1142.3l-1.6,1.7l2-1.4l2.1,1.3l-1.7-1.6l1.6-1.7l-2,1.4l-2.1-1.3L600.5,1142.3z"/>
		</g>
	</g>
</g>
<g>
	<g class="st4">
		<g class="st4">
			<path class="st0" d="M328.9,1653.1l-1.9-1.1l1.5,1.4l-1.4,1.5l1.8-1.2l1.9,1.1l-1.5-1.4l1.4-1.5L328.9,1653.1z"/>
		</g>
	</g>
</g>
<g>
	<g>
		<path class="st0" d="M660.2,1469.3l-1.6,0.2l1.6,0.1l0.2,1.3l0.1-1.3l1.6-0.2l-1.6-0.1l-0.2-1.3L660.2,1469.3z"/>
	</g>
	<g>
		<path class="st0" d="M660.3,1469.5l-1.6,1.7l1.8-1.5l2.5,1.7l-2.3-1.9l2.1-1.9l-2.3,1.8l-2.1-1.5L660.3,1469.5z"/>
	</g>
	<g>
		<path class="st0" d="M523.2,1290.4l-1.2,1.3l1.5-1l1.6,1l-1.3-1.2l1.2-1.3l-1.5,1.1l-1.6-1L523.2,1290.4z"/>
	</g>
	<g class="st1">
		<g class="st1">
			<path class="st0" d="M572.9,1453.2l-1.9,2.1l2.5-1.7l2.6,1.6l-2.1-2l1.9-2.1l-2.5,1.7l-2.6-1.6L572.9,1453.2z"/>
		</g>
	</g>
	<g>
		<path class="st0" d="M474.6,1244.8l-1.4,1.5l1.8-1.2l1.9,1.1l-1.5-1.4l1.4-1.5l-1.8,1.2l-1.9-1.1L474.6,1244.8z"/>
	</g>
	<g class="st2">
		<g class="st2">
			<path class="st0" d="M477.1,1190.6l-1.9,2.1l2.5-1.7l2.6,1.6l-2.1-2l1.9-2.1l-2.5,1.7l-2.6-1.6L477.1,1190.6z"/>
		</g>
	</g>
	<g class="st3">
		<g class="st3">
			<path class="st0" d="M642,1404.7l-1.9,2.1l2.5-1.7l2.6,1.6l-2.1-2l2-2.1l-2.5,1.7l-2.6-1.6L642,1404.7z"/>
		</g>
	</g>
	<g class="st4">
		<g class="st4">
			<path class="st0" d="M723.4,1402.2l-1.4,1.5l1.8-1.2l1.9,1.1l-1.5-1.4l1.4-1.5l-1.8,1.2l-1.9-1.1L723.4,1402.2z"/>
		</g>
	</g>
	<g>
		<path class="st0" d="M720.7,1318.3l-0.7,0.8l0.9-0.6l0.9,0.6l-0.8-0.7l0.7-0.8l-0.9,0.6l-0.9-0.6L720.7,1318.3z"/>
	</g>
	<g class="st1">
		<g class="st1">
			<path class="st0" d="M631,1391.1l-0.8,0.8l1-0.7l1,0.6l-0.8-0.8l0.8-0.8l-1,0.7l-1-0.6L631,1391.1z"/>
		</g>
	</g>
	<g class="st3">
		<g class="st3">
			<path class="st0" d="M497.7,1344.7l-1.4,1.5l1.8-1.2l1.9,1.1l-1.5-1.4l1.4-1.5l-1.8,1.2l-1.9-1.1L497.7,1344.7z"/>
		</g>
	</g>
	<g>
		<path class="st0" d="M584.6,1414.4l-1.4,1.5l1.8-1.2l1.9,1.1l-1.5-1.4l1.4-1.5l-1.8,1.2l-1.9-1.1L584.6,1414.4z"/>
	</g>
	<g>
		<path class="st0" d="M617.2,1239.9l-0.8,0.8l1-0.7l1,0.6l-0.8-0.8l0.8-0.8l-1,0.7l-1-0.6L617.2,1239.9z"/>
	</g>
	<g>
		<path class="st0" d="M563,1230.9l-1.4,1.5l1.8-1.2l1.9,1.1l-1.5-1.4l1.4-1.5l-1.8,1.2l-1.9-1.1L563,1230.9z"/>
	</g>
	<g class="st1">
		<g class="st1">
			<path class="st0" d="M462,1365.3l-1.4,1.5l1.8-1.2l1.9,1.1l-1.5-1.4l1.4-1.5l-1.8,1.2l-1.9-1.1L462,1365.3z"/>
		</g>
	</g>
	<g>
		<path class="st0" d="M583.5,1351.5l-1.4,1.5l1.7-1.2l1.8,1.1l-1.5-1.4l1.4-1.4l-1.7,1.2l-1.8-1.1L583.5,1351.5z"/>
	</g>
	<g>
		<path class="st0" d="M518.9,1400.9l-0.8,0.8l1-0.7l1,0.6l-0.8-0.8l0.8-0.8l-1,0.7l-1-0.6L518.9,1400.9z"/>
	</g>
	<g>
		<path class="st0" d="M651.9,1317.7l-0.9,1l1.2-0.8l1.2,0.7l-1-0.9l0.9-1l-1.2,0.8l-1.2-0.7L651.9,1317.7z"/>
	</g>
	<g>
		<path class="st0" d="M449.4,1315.6l-2,2.1l2.5-1.7l2.6,1.6l-2.1-2l1.9-2.1l-2.5,1.7l-2.6-1.6L449.4,1315.6z"/>
	</g>
	<g>
		<path class="st0" d="M809.7,1418.8l-1.4,1.5l1.8-1.2l1.9,1.1l-1.5-1.4l1.4-1.5l-1.8,1.2l-1.9-1.1L809.7,1418.8z"/>
	</g>
	<g>
		<path class="st0" d="M724.4,1443.9l-1.6,1.7l2-1.4l2.1,1.3l-1.7-1.6l1.6-1.7l-2,1.4l-2.1-1.3L724.4,1443.9z"/>
	</g>
	<g>
		<path class="st0" d="M596,1293.3l-1.6,1.7l2-1.4l2.1,1.3l-1.7-1.6l1.6-1.7l-2,1.4l-2.1-1.3L596,1293.3z"/>
	</g>
	<g>
		<path class="st0" d="M393.3,1232.2l-0.8,0.8l1-0.7l1,0.6l-0.8-0.8l0.8-0.8l-1,0.7l-1-0.6L393.3,1232.2z"/>
	</g>
	<g class="st1">
		<g class="st1">
			<path class="st0" d="M373.6,1276l-1.4,1.5l1.8-1.2l1.9,1.1l-1.5-1.4l1.4-1.5l-1.8,1.2l-1.9-1.1L373.6,1276z"/>
		</g>
	</g>
	<g>
		<path class="st0" d="M399.9,1211l-1.4,1.5l1.8-1.2l1.9,1.1l-1.5-1.4l1.4-1.5l-1.8,1.2l-1.8-1.1L399.9,1211z"/>
	</g>
	<g class="st1">
		<g class="st1">
			<path class="st0" d="M903.5,1483.8l-4.1,0.5l4.1,0.3l0.6,3.3l0.4-3.3l4.1-0.5l-4.1-0.3l-0.7-3.3L903.5,1483.8z"/>
		</g>
		<g class="st1">
			<path class="st0" d="M903,1484.2l-4.3,4.7l5.5-3.8l5.8,3.5l-4.7-4.4l4.3-4.7l-5.5,3.8l-5.8-3.5L903,1484.2z"/>
		</g>
	</g>
	<g class="st1">
		<g class="st1">
			<path class="st0" d="M624.3,1333.9l-1.4,1.5l1.8-1.2l1.9,1.1l-1.5-1.4l1.4-1.5l-1.8,1.2l-1.9-1.1L624.3,1333.9z"/>
		</g>
	</g>
	<g>
		<path class="st0" d="M277.2,1233.1l-1.4,1.5l1.8-1.2l1.9,1.1l-1.5-1.4l1.4-1.5l-1.8,1.2l-1.9-1.1L277.2,1233.1z"/>
	</g>
	<g class="st5">
		<g class="st5">
			<path class="st0" d="M794.1,1464.4l-0.8,0.8l1-0.7l1,0.6l-0.8-0.8l0.8-0.8l-1,0.7l-1-0.6L794.1,1464.4z"/>
		</g>
	</g>
	<g>
		<path class="st0" d="M333.4,1165.1l-0.7,0.8l0.9-0.6l0.9,0.6l-0.8-0.7l0.7-0.8l-0.9,0.6l-0.9-0.6L333.4,1165.1z"/>
	</g>
	<g class="st6">
		<path class="st0" d="M298.4,1108.7l-1.4,1.4l1.7-1.2l1.8,1.1l-1.5-1.4l1.4-1.5l-1.7,1.2l-1.8-1.1L298.4,1108.7z"/>
	</g>
	<g class="st1">
		<g class="st1">
			<path class="st0" d="M284.4,1196.5l-4.1,0.5l4.1,0.3l0.6,3.3l0.4-3.3l4.1-0.5l-4.1-0.3l-0.6-3.3L284.4,1196.5z"/>
		</g>
	</g>
	<g class="st1">
		<g class="st1">
			<path class="st0" d="M762.7,1359.5l-4.1,0.5l4.1,0.3l0.6,3.3l0.4-3.3l4.1-0.5l-4.1-0.3l-0.6-3.3L762.7,1359.5z"/>
		</g>
	</g>
	<g>
		<path class="st0" d="M396.4,1098.3l-1.2,1.3l1.5-1l1.6,1l-1.3-1.2l1.2-1.3l-1.5,1.1l-1.6-1L396.4,1098.3z"/>
	</g>
	<g class="st3">
		<g class="st3">
			<path class="st0" d="M406.5,1166.7l-1.9,2.1l2.5-1.7l2.6,1.6l-2.1-2l1.9-2.1l-2.5,1.7l-2.6-1.6L406.5,1166.7z"/>
		</g>
	</g>
	<g class="st1">
		<g class="st1">
			<path class="st0" d="M395.5,1153.1l-0.8,0.8l1-0.7l1,0.6l-0.8-0.8l0.8-0.8l-1,0.7l-1-0.6L395.5,1153.1z"/>
		</g>
	</g>
	<g>
		<path class="st0" d="M348,1113.5l-1.4,1.5l1.7-1.2l1.8,1.1l-1.5-1.4l1.3-1.5l-1.7,1.2l-1.8-1.1L348,1113.5z"/>
	</g>
	<g>
		<path class="st0" d="M258.7,1151.5l-1.4,1.5l1.8-1.2l1.9,1.1l-1.5-1.4l1.4-1.5l-1.8,1.2l-1.9-1.1L258.7,1151.5z"/>
	</g>
	<g class="st5">
		<g class="st5">
			<path class="st0" d="M360.5,1055.3l-1.6,1.7l2-1.4l2.1,1.3l-1.7-1.6l1.6-1.7l-2,1.4l-2.1-1.3L360.5,1055.3z"/>
		</g>
	</g>
</g>
<g>
	<g class="st4">
		<g class="st4">
			<path class="st0" d="M1210.6,1078.7l-1.9-1.1l1.5,1.4l-1.4,1.5l1.8-1.2l1.9,1.1l-1.5-1.4l1.4-1.5L1210.6,1078.7z"/>
		</g>
	</g>
</g>
<g>
	<g class="st4">
		<g class="st4">
			<path class="st0" d="M115.2,757.5l1.9,1.1l-1.5-1.4l1.4-1.5l-1.8,1.2l-1.9-1.1l1.5,1.4l-1.4,1.5L115.2,757.5z"/>
		</g>
	</g>
</g>
<g>
	<g>
		<path class="st0" d="M516.2,628.6l0.2,1.3l0.1-1.3l1.6-0.2l-1.6-0.1l-0.2-1.3l-0.1,1.3l-1.6,0.2L516.2,628.6z"/>
	</g>
	<g>
		<path class="st0" d="M516.4,628.6l2.1,1.3l-1.9-1.5l2.1-2l-2.3,1.9l-2.4-1.7l2.2,1.8l-1.8,1.7L516.4,628.6z"/>
	</g>
	<g>
		<path class="st0" d="M294,738.9l1.6,1l-1.3-1.2l1.2-1.3l-1.5,1l-1.6-1l1.3,1.2l-1.2,1.3L294,738.9z"/>
	</g>
	<g class="st1">
		<g class="st1">
			<path class="st0" d="M496.2,698.9l2.6,1.6l-2.1-2l1.9-2.1l-2.5,1.7l-2.6-1.6l2.1,2l-1.9,2.1L496.2,698.9z"/>
		</g>
	</g>
	<g>
		<path class="st0" d="M237.5,778.1l1.9,1.1l-1.5-1.4l1.4-1.5l-1.8,1.2l-1.9-1.1l1.5,1.4l-1.4,1.5L237.5,778.1z"/>
	</g>
	<g class="st2">
		<g class="st2">
			<path class="st0" d="M170.2,776.1l2.6,1.6l-2.1-2l1.9-2.1l-2.5,1.7l-2.6-1.6l2.1,2l-1.9,2.1L170.2,776.1z"/>
		</g>
	</g>
	<g class="st3">
		<g class="st3">
			<path class="st0" d="M436,643.2l2.6,1.6l-2.1-2l2-2.1l-2.5,1.7l-2.6-1.6l2.1,2l-1.9,2.1L436,643.2z"/>
		</g>
	</g>
	<g class="st4">
		<g class="st4">
			<path class="st0" d="M432.9,577.7l1.9,1.1l-1.5-1.4l1.4-1.5l-1.8,1.2L431,576l1.5,1.4l-1.4,1.5L432.9,577.7z"/>
		</g>
	</g>
	<g>
		<path class="st0" d="M381.3,532.2l0.9,0.6l-0.8-0.7l0.7-0.8l-0.9,0.6l-0.9-0.6l0.8,0.7l-0.7,0.8L381.3,532.2z"/>
	</g>
	<g class="st1">
		<g class="st1">
			<path class="st0" d="M419.1,652.1l1,0.6l-0.8-0.8l0.8-0.8l-1,0.7l-1-0.6l0.8,0.8l-0.8,0.8L419.1,652.1z"/>
		</g>
	</g>
	<g class="st3">
		<g class="st3">
			<path class="st0" d="M361.5,759.5l1.9,1.1l-1.5-1.4l1.4-1.5l-1.8,1.2l-1.9-1.1l1.5,1.4l-1.4,1.5L361.5,759.5z"/>
		</g>
	</g>
	<g>
		<path class="st0" d="M448,689.5l1.9,1.1l-1.5-1.4l1.4-1.5l-1.8,1.2l-1.9-1.1l1.5,1.4l-1.4,1.5L448,689.5z"/>
	</g>
	<g>
		<path class="st0" d="M231.3,663.2l1,0.6l-0.8-0.8l0.8-0.8l-1,0.7l-1-0.6l0.8,0.8l-0.8,0.8L231.3,663.2z"/>
	</g>
	<g>
		<path class="st0" d="M220.2,706.9l1.9,1.1l-1.5-1.4l1.4-1.5l-1.8,1.2l-1.9-1.1l1.5,1.4l-1.4,1.5L220.2,706.9z"/>
	</g>
	<g class="st1">
		<g class="st1">
			<path class="st0" d="M387.1,788.3l1.9,1.1l-1.5-1.4l1.4-1.5l-1.8,1.2l-1.9-1.1l1.5,1.4l-1.4,1.5L387.1,788.3z"/>
		</g>
	</g>
	<g>
		<path class="st0" d="M370,690.4l1.8,1.1l-1.5-1.4l1.3-1.5l-1.7,1.2l-1.8-1.1l1.5,1.4l-1.4,1.4L370,690.4z"/>
	</g>
	<g>
		<path class="st0" d="M431.2,742.4l1,0.6l-0.8-0.8l0.8-0.8l-1,0.7l-1-0.6l0.8,0.8l-0.8,0.8L431.2,742.4z"/>
	</g>
	<g>
		<path class="st0" d="M327.9,635.3l1.2,0.7l-1-0.9l0.9-1l-1.2,0.8l-1.2-0.7l1,0.9l-0.9,1L327.9,635.3z"/>
	</g>
	<g>
		<path class="st0" d="M325.3,798.4l2.6,1.6l-2.1-2l1.9-2.1l-2.5,1.7l-2.6-1.6l2.1,2l-1.9,2.1L325.3,798.4z"/>
	</g>
	<g>
		<path class="st0" d="M453.5,508.2l1.9,1.1l-1.5-1.4l1.4-1.5l-1.8,1.2l-1.9-1.1l1.5,1.4l-1.4,1.5L453.5,508.2z"/>
	</g>
	<g>
		<path class="st0" d="M591.9,658.3l2.1,1.3l-1.7-1.6l1.6-1.7l-2,1.4l-2.1-1.3l1.7,1.6l-1.6,1.7L591.9,658.3z"/>
	</g>
	<g>
		<path class="st0" d="M297.7,680.3l2.1,1.3l-1.7-1.6l1.6-1.7l-2,1.4l-2.1-1.3l1.7,1.6l-1.6,1.7L297.7,680.3z"/>
	</g>
	<g>
		<path class="st0" d="M221.8,843.6l1,0.6l-0.8-0.8l0.8-0.8l-1,0.7l-1-0.6l0.8,0.8l-0.8,0.8L221.8,843.6z"/>
	</g>
	<g class="st1">
		<g class="st1">
			<path class="st0" d="M276.2,859.5l1.9,1.1l-1.5-1.4l1.4-1.5l-1.8,1.2l-1.9-1.1l1.5,1.4l-1.4,1.5L276.2,859.5z"/>
		</g>
	</g>
	<g>
		<path class="st0" d="M195.5,838.3l1.9,1.1l-1.5-1.4l1.4-1.5l-1.8,1.2l-1.9-1.1l1.5,1.4l-1.4,1.5L195.5,838.3z"/>
	</g>
	<g class="st1">
		<g class="st1">
			<path class="st0" d="M458.5,444.8l0.6,3.3l0.4-3.3l4.1-0.5l-4.1-0.3l-0.6-3.3l-0.3,3.3l-4.1,0.5L458.5,444.8z"/>
		</g>
		<g class="st1">
			<path class="st0" d="M459,445.3l5.8,3.5l-4.7-4.4l4.3-4.7l-5.5,3.8l-5.8-3.5l4.7,4.4l-4.3,4.7L459,445.3z"/>
		</g>
	</g>
	<g class="st1">
		<g class="st1">
			<path class="st0" d="M348.1,657.5l1.9,1.1l-1.5-1.4l1.4-1.5L348,657l-1.9-1.1l1.5,1.4l-1.4,1.5L348.1,657.5z"/>
		</g>
	</g>
	<g>
		<path class="st0" d="M223,937.1l1.9,1.1l-1.5-1.4l1.4-1.5l-1.8,1.2l-1.9-1.1l1.5,1.4l-1.4,1.5L223,937.1z"/>
	</g>
	<g class="st5">
		<g class="st5">
			<path class="st0" d="M510.1,520.7l1,0.6l-0.8-0.8l0.8-0.8l-1,0.7l-1-0.6l0.8,0.8l-0.8,0.8L510.1,520.7z"/>
		</g>
	</g>
	<g>
		<path class="st0" d="M138.5,891.8l0.9,0.6l-0.8-0.7l0.7-0.8l-0.9,0.6l-0.9-0.6l0.8,0.7l-0.7,0.8L138.5,891.8z"/>
	</g>
	<g class="st6">
		<path class="st0" d="M68.5,920.1l1.8,1.1l-1.5-1.4l1.4-1.4l-1.7,1.2l-1.8-1.1l1.5,1.4l-1.4,1.5L68.5,920.1z"/>
	</g>
	<g class="st1">
		<g class="st1">
			<path class="st0" d="M177.5,931.3l0.6,3.3l0.4-3.3l4.1-0.5l-4.1-0.3l-0.6-3.3l-0.4,3.3l-4.1,0.5L177.5,931.3z"/>
		</g>
	</g>
	<g class="st1">
		<g class="st1">
			<path class="st0" d="M333.5,478.7l0.6,3.3l0.4-3.3l4.1-0.5l-4.1-0.3l-0.6-3.3l-0.4,3.3l-4.1,0.5L333.5,478.7z"/>
		</g>
	</g>
	<g>
		<path class="st0" d="M55.6,841.1l1.6,1l-1.3-1.2l1.2-1.3l-1.5,1l-1.6-0.9l1.3,1.2l-1.2,1.3L55.6,841.1z"/>
	</g>
	<g class="st3">
		<g class="st3">
			<path class="st0" d="M140.5,832.9l2.6,1.6l-2.1-2l1.9-2.1l-2.5,1.7l-2.6-1.6l2.1,2l-1.9,2.1L140.5,832.9z"/>
		</g>
	</g>
	<g class="st1">
		<g class="st1">
			<path class="st0" d="M123.6,841.8l1,0.6l-0.8-0.8l0.8-0.8l-1,0.7l-1-0.6l0.8,0.8l-0.8,0.8L123.6,841.8z"/>
		</g>
	</g>
	<g>
		<path class="st0" d="M74.5,880.1l1.8,1.1l-1.5-1.4l1.4-1.5l-1.7,1.2l-1.8-1.1l1.5,1.4l-1.4,1.5L74.5,880.1z"/>
	</g>
	<g>
		<path class="st0" d="M121.6,952l1.9,1.1l-1.5-1.4l1.4-1.5l-1.8,1.2l-1.9-1.1l1.5,1.4l-1.4,1.5L121.6,952z"/>
	</g>
	<g class="st5">
		<g class="st5">
			<path class="st0" d="M2.1,870l2.1,1.3l-1.7-1.6l1.6-1.7l-2,1.4L0,868.1l1.7,1.6l-1.6,1.7L2.1,870z"/>
		</g>
	</g>
</g>
<g>
	<g class="st4">
		<g class="st4">
			<path class="st0" d="M568.9,907.1l-1.9-1.1l1.5,1.4l-1.4,1.5l1.8-1.2l1.9,1.1l-1.5-1.4l1.4-1.5L568.9,907.1z"/>
		</g>
	</g>
</g>
<g>
	<g>
		<path class="st0" d="M900.2,723.3l-1.6,0.2l1.6,0.1l0.2,1.3l0.2-1.3l1.6-0.2l-1.6-0.1l-0.2-1.3L900.2,723.3z"/>
	</g>
	<g>
		<path class="st0" d="M900.3,723.5l-1.6,1.7l1.8-1.5l2.5,1.7l-2.3-1.9l2.1-1.9l-2.3,1.8l-2.2-1.5L900.3,723.5z"/>
	</g>
	<g>
		<path class="st0" d="M763.2,544.4l-1.2,1.3l1.5-1.1l1.6,1l-1.3-1.2l1.2-1.3l-1.5,1l-1.6-1L763.2,544.4z"/>
	</g>
	<g class="st1">
		<g class="st1">
			<path class="st0" d="M812.9,707.2l-1.9,2.1l2.5-1.7l2.6,1.6l-2.1-2l1.9-2.1l-2.5,1.7l-2.6-1.6L812.9,707.2z"/>
		</g>
	</g>
	<g>
		<path class="st0" d="M714.6,498.8l-1.4,1.5l1.8-1.2l1.9,1.1l-1.5-1.4l1.4-1.5l-1.8,1.2l-1.9-1.1L714.6,498.8z"/>
	</g>
	<g class="st2">
		<g class="st2">
			<path class="st0" d="M717.1,444.6l-1.9,2.1l2.5-1.7l2.6,1.6l-2.1-2l1.9-2.1l-2.5,1.7l-2.6-1.6L717.1,444.6z"/>
		</g>
	</g>
	<g class="st3">
		<g class="st3">
			<path class="st0" d="M882,658.7l-1.9,2.1l2.5-1.7l2.6,1.6l-2.1-2l2-2.1l-2.5,1.7l-2.6-1.6L882,658.7z"/>
		</g>
	</g>
	<g class="st4">
		<g class="st4">
			<path class="st0" d="M963.4,656.2l-1.4,1.5l1.8-1.2l1.9,1.1l-1.5-1.4l1.4-1.5l-1.8,1.2l-1.9-1.1L963.4,656.2z"/>
		</g>
	</g>
	<g>
		<path class="st0" d="M960.7,572.3L960,573l0.9-0.6l1,0.6l-0.8-0.7l0.7-0.8l-0.9,0.6l-0.9-0.6L960.7,572.3z"/>
	</g>
	<g class="st1">
		<g class="st1">
			<path class="st0" d="M871,645.1l-0.8,0.8l1-0.7l1,0.6l-0.8-0.8l0.8-0.8l-1,0.7l-1-0.6L871,645.1z"/>
		</g>
	</g>
	<g class="st3">
		<g class="st3">
			<path class="st0" d="M737.7,598.7l-1.4,1.5l1.8-1.2l1.9,1.1l-1.5-1.4l1.4-1.5l-1.8,1.2l-1.9-1.1L737.7,598.7z"/>
		</g>
	</g>
	<g>
		<path class="st0" d="M824.6,668.4l-1.4,1.5l1.8-1.2l1.9,1.1l-1.5-1.4l1.4-1.5l-1.8,1.2l-1.9-1.1L824.6,668.4z"/>
	</g>
	<g>
		<path class="st0" d="M857.2,493.9l-0.8,0.8l1-0.7l1,0.6l-0.8-0.8l0.8-0.8l-1,0.7l-1-0.6L857.2,493.9z"/>
	</g>
	<g>
		<path class="st0" d="M803,484.9l-1.4,1.5l1.8-1.2l1.9,1.1l-1.5-1.4l1.4-1.5l-1.8,1.2l-1.9-1.1L803,484.9z"/>
	</g>
	<g class="st1">
		<g class="st1">
			<path class="st0" d="M702,619.3l-1.4,1.5l1.8-1.2l1.9,1.1l-1.5-1.4l1.4-1.5l-1.8,1.2l-1.9-1.1L702,619.3z"/>
		</g>
	</g>
	<g>
		<path class="st0" d="M823.5,605.6l-1.4,1.5l1.7-1.2l1.8,1.1l-1.5-1.4l1.4-1.5l-1.7,1.2l-1.8-1.1L823.5,605.6z"/>
	</g>
	<g>
		<path class="st0" d="M758.9,654.9l-0.8,0.8l1-0.7l1,0.6l-0.8-0.8l0.8-0.8l-1,0.7l-1-0.6L758.9,654.9z"/>
	</g>
	<g>
		<path class="st0" d="M891.9,571.7l-0.9,1l1.2-0.8l1.2,0.7l-1-0.9l0.9-1l-1.2,0.8l-1.2-0.7L891.9,571.7z"/>
	</g>
	<g>
		<path class="st0" d="M689.4,569.6l-1.9,2.1l2.5-1.7l2.6,1.6l-2.1-2l1.9-2.1l-2.5,1.7l-2.6-1.6L689.4,569.6z"/>
	</g>
	<g>
		<path class="st0" d="M1049.7,672.8l-1.4,1.5l1.8-1.2l1.9,1.1l-1.5-1.4l1.4-1.5l-1.8,1.2l-1.9-1.1L1049.7,672.8z"/>
	</g>
	<g>
		<path class="st0" d="M964.4,697.9l-1.6,1.7l2-1.4l2.1,1.3l-1.7-1.6l1.6-1.7l-2,1.4l-2.1-1.3L964.4,697.9z"/>
	</g>
	<g>
		<path class="st0" d="M836,547.3l-1.6,1.7l2-1.4l2.1,1.3l-1.7-1.6l1.6-1.7l-2,1.4l-2.1-1.3L836,547.3z"/>
	</g>
	<g>
		<path class="st0" d="M633.3,486.2l-0.8,0.8l1-0.7l1,0.6l-0.8-0.8l0.8-0.8l-1,0.7l-1-0.6L633.3,486.2z"/>
	</g>
	<g class="st1">
		<g class="st1">
			<path class="st0" d="M613.6,530l-1.4,1.5l1.8-1.2l1.9,1.1l-1.5-1.4l1.4-1.5l-1.8,1.2l-1.9-1.1L613.6,530z"/>
		</g>
	</g>
	<g>
		<path class="st0" d="M639.8,465l-1.4,1.5l1.8-1.2l1.9,1.1l-1.5-1.4l1.4-1.5l-1.8,1.2l-1.8-1.1L639.8,465z"/>
	</g>
	<g class="st1">
		<g class="st1">
			<path class="st0" d="M1143.5,737.8l-4.1,0.5l4.1,0.3l0.6,3.3l0.4-3.3l4.1-0.5l-4.1-0.3l-0.7-3.3L1143.5,737.8z"/>
		</g>
		<g class="st1">
			<path class="st0" d="M1143,738.2l-4.3,4.7l5.5-3.8l5.8,3.5l-4.7-4.4l4.3-4.7l-5.5,3.8l-5.8-3.5L1143,738.2z"/>
		</g>
	</g>
	<g class="st1">
		<g class="st1">
			<path class="st0" d="M864.3,587.9l-1.4,1.5l1.8-1.2l1.9,1.1l-1.5-1.4l1.4-1.5l-1.8,1.2l-1.9-1.1L864.3,587.9z"/>
		</g>
	</g>
	<g>
		<path class="st0" d="M517.2,487.1l-1.4,1.5l1.8-1.2l1.9,1.1l-1.5-1.4l1.4-1.5l-1.8,1.2l-1.9-1.1L517.2,487.1z"/>
	</g>
	<g class="st5">
		<g class="st5">
			<path class="st0" d="M1034.1,718.4l-0.8,0.8l1-0.7l1,0.6l-0.8-0.8l0.8-0.8l-0.9,0.7l-1-0.6L1034.1,718.4z"/>
		</g>
	</g>
	<g>
		<path class="st0" d="M573.4,419.1l-0.7,0.8l0.9-0.6l0.9,0.6l-0.8-0.7l0.7-0.8l-0.9,0.6l-0.9-0.6L573.4,419.1z"/>
	</g>
	<g class="st6">
		<path class="st0" d="M538.4,362.7l-1.4,1.5l1.7-1.2l1.8,1.1l-1.5-1.4l1.4-1.4l-1.7,1.2l-1.8-1.1L538.4,362.7z"/>
	</g>
	<g class="st1">
		<g class="st1">
			<path class="st0" d="M524.4,450.6l-4.1,0.5l4.1,0.3l0.6,3.3l0.4-3.3l4.1-0.5l-4.1-0.3l-0.6-3.3L524.4,450.6z"/>
		</g>
	</g>
	<g class="st1">
		<g class="st1">
			<path class="st0" d="M1002.7,613.5l-4.1,0.5l4.1,0.3l0.7,3.3l0.4-3.3l4.1-0.5l-4.1-0.3l-0.6-3.3L1002.7,613.5z"/>
		</g>
	</g>
	<g>
		<path class="st0" d="M636.4,352.3l-1.2,1.3l1.5-1l1.6,1l-1.3-1.2l1.2-1.3l-1.5,1l-1.6-1L636.4,352.3z"/>
	</g>
	<g class="st3">
		<g class="st3">
			<path class="st0" d="M646.5,420.7l-1.9,2.1l2.5-1.7l2.6,1.6l-2.1-2l1.9-2.1l-2.5,1.7l-2.6-1.6L646.5,420.7z"/>
		</g>
	</g>
	<g class="st1">
		<g class="st1">
			<path class="st0" d="M635.5,407.1l-0.8,0.8l1-0.7l1,0.6l-0.8-0.8l0.8-0.8l-1,0.7l-1-0.6L635.5,407.1z"/>
		</g>
	</g>
	<g>
		<path class="st0" d="M588,367.5l-1.4,1.5l1.7-1.2l1.8,1.1l-1.5-1.4l1.3-1.5l-1.7,1.2l-1.8-1.1L588,367.5z"/>
	</g>
	<g>
		<path class="st0" d="M498.7,405.5l-1.4,1.5l1.8-1.2l1.9,1.1l-1.5-1.4l1.4-1.5l-1.8,1.2l-1.9-1.1L498.7,405.5z"/>
	</g>
	<g class="st5">
		<g class="st5">
			<path class="st0" d="M600.5,309.3l-1.6,1.7l2-1.4l2.1,1.3l-1.7-1.6l1.6-1.7l-2,1.4l-2.1-1.3L600.5,309.3z"/>
		</g>
	</g>
</g>
<g>
	<g class="st4">
		<g class="st4">
			<path class="st0" d="M328.9,820.1l-1.9-1.1l1.5,1.4l-1.4,1.5l1.8-1.2l1.9,1.1l-1.5-1.4l1.4-1.5L328.9,820.1z"/>
		</g>
	</g>
</g>
<g>
	<g>
		<path class="st0" d="M660.2,636.3l-1.6,0.2l1.6,0.1l0.2,1.3l0.1-1.3l1.6-0.2l-1.6-0.1l-0.2-1.3L660.2,636.3z"/>
	</g>
	<g>
		<path class="st0" d="M660.3,636.5l-1.6,1.7l1.8-1.5l2.5,1.7l-2.3-1.9l2.1-1.9l-2.3,1.8l-2.1-1.5L660.3,636.5z"/>
	</g>
	<g>
		<path class="st0" d="M523.2,457.4l-1.2,1.3l1.5-1l1.6,1l-1.3-1.2l1.2-1.3l-1.5,1l-1.6-1L523.2,457.4z"/>
	</g>
	<g class="st1">
		<g class="st1">
			<path class="st0" d="M572.9,620.2l-1.9,2.1l2.5-1.7l2.6,1.6l-2.1-2l1.9-2.1l-2.5,1.7l-2.6-1.6L572.9,620.2z"/>
		</g>
	</g>
	<g>
		<path class="st0" d="M474.6,411.8l-1.4,1.5l1.8-1.2l1.9,1.1l-1.5-1.4l1.4-1.5l-1.8,1.2l-1.9-1.1L474.6,411.8z"/>
	</g>
	<g class="st2">
		<g class="st2">
			<path class="st0" d="M477.1,357.6l-1.9,2.1l2.5-1.7l2.6,1.6l-2.1-2l1.9-2.1l-2.5,1.7l-2.6-1.6L477.1,357.6z"/>
		</g>
	</g>
	<g class="st3">
		<g class="st3">
			<path class="st0" d="M642,571.7l-1.9,2.1l2.5-1.7l2.6,1.6l-2.1-2l2-2.1l-2.5,1.7l-2.6-1.6L642,571.7z"/>
		</g>
	</g>
	<g class="st4">
		<g class="st4">
			<path class="st0" d="M723.4,569.2l-1.4,1.5l1.8-1.2l1.9,1.1l-1.5-1.4l1.4-1.5l-1.8,1.2l-1.9-1.1L723.4,569.2z"/>
		</g>
	</g>
	<g>
		<path class="st0" d="M720.7,485.3L720,486l0.9-0.6l0.9,0.6l-0.8-0.7l0.7-0.8l-0.9,0.6l-0.9-0.6L720.7,485.3z"/>
	</g>
	<g class="st1">
		<g class="st1">
			<path class="st0" d="M631,558.1l-0.8,0.8l1-0.7l1,0.6l-0.8-0.8l0.8-0.8l-1,0.7l-1-0.6L631,558.1z"/>
		</g>
	</g>
	<g class="st3">
		<g class="st3">
			<path class="st0" d="M497.7,511.7l-1.4,1.5l1.8-1.2l1.9,1.1l-1.5-1.4l1.4-1.5l-1.8,1.2l-1.9-1.1L497.7,511.7z"/>
		</g>
	</g>
	<g>
		<path class="st0" d="M584.6,581.4l-1.4,1.5l1.8-1.2l1.9,1.1l-1.5-1.4l1.4-1.5l-1.8,1.2l-1.9-1.1L584.6,581.4z"/>
	</g>
	<g>
		<path class="st0" d="M617.2,406.9l-0.8,0.8l1-0.7l1,0.6l-0.8-0.8l0.8-0.8l-1,0.7l-1-0.6L617.2,406.9z"/>
	</g>
	<g>
		<path class="st0" d="M563,397.9l-1.4,1.5l1.8-1.2l1.9,1.1l-1.5-1.4l1.4-1.5l-1.8,1.2l-1.9-1.1L563,397.9z"/>
	</g>
	<g class="st1">
		<g class="st1">
			<path class="st0" d="M462,532.3l-1.4,1.5l1.8-1.2l1.9,1.1l-1.5-1.4l1.4-1.5l-1.8,1.2l-1.9-1.1L462,532.3z"/>
		</g>
	</g>
	<g>
		<path class="st0" d="M583.5,518.6l-1.4,1.5l1.7-1.2l1.8,1.1l-1.5-1.4l1.4-1.5l-1.7,1.2l-1.8-1.1L583.5,518.6z"/>
	</g>
	<g>
		<path class="st0" d="M518.9,567.9l-0.8,0.8l1-0.7l1,0.6l-0.8-0.8l0.8-0.8l-1,0.7l-1-0.6L518.9,567.9z"/>
	</g>
	<g>
		<path class="st0" d="M651.9,484.7l-0.9,1l1.2-0.8l1.2,0.7l-1-0.9l0.9-1l-1.2,0.8l-1.2-0.7L651.9,484.7z"/>
	</g>
	<g>
		<path class="st0" d="M449.4,482.6l-2,2.1l2.5-1.7l2.6,1.6l-2.1-2l1.9-2.1l-2.5,1.7l-2.6-1.6L449.4,482.6z"/>
	</g>
	<g>
		<path class="st0" d="M809.7,585.8l-1.4,1.5l1.8-1.2l1.9,1.1l-1.5-1.4l1.4-1.5l-1.8,1.2l-1.9-1.1L809.7,585.8z"/>
	</g>
	<g>
		<path class="st0" d="M724.4,610.9l-1.6,1.7l2-1.4l2.1,1.3l-1.7-1.6l1.6-1.7l-2,1.4l-2.1-1.3L724.4,610.9z"/>
	</g>
	<g>
		<path class="st0" d="M596,460.3l-1.6,1.7l2-1.4l2.1,1.3l-1.7-1.6l1.6-1.7l-2,1.4l-2.1-1.3L596,460.3z"/>
	</g>
	<g>
		<path class="st0" d="M393.3,399.2l-0.8,0.8l1-0.7l1,0.6l-0.8-0.8l0.8-0.8l-1,0.7l-1-0.6L393.3,399.2z"/>
	</g>
	<g class="st1">
		<g class="st1">
			<path class="st0" d="M373.6,443l-1.4,1.5l1.8-1.2l1.9,1.1l-1.5-1.4l1.4-1.5l-1.8,1.2l-1.9-1.1L373.6,443z"/>
		</g>
	</g>
	<g>
		<path class="st0" d="M399.9,378l-1.4,1.5l1.8-1.2l1.9,1.1l-1.5-1.4l1.4-1.5l-1.8,1.2l-1.8-1.1L399.9,378z"/>
	</g>
	<g class="st1">
		<g class="st1">
			<path class="st0" d="M903.5,650.8l-4.1,0.5l4.1,0.3l0.6,3.3l0.4-3.3l4.1-0.5l-4.1-0.3l-0.7-3.3L903.5,650.8z"/>
		</g>
		<g class="st1">
			<path class="st0" d="M903,651.2l-4.3,4.7l5.5-3.8l5.8,3.5l-4.7-4.4l4.3-4.7l-5.5,3.8l-5.8-3.5L903,651.2z"/>
		</g>
	</g>
	<g class="st1">
		<g class="st1">
			<path class="st0" d="M624.3,500.9l-1.4,1.5l1.8-1.2l1.9,1.1l-1.5-1.4l1.4-1.5l-1.8,1.2l-1.9-1.1L624.3,500.9z"/>
		</g>
	</g>
	<g>
		<path class="st0" d="M277.2,400.1l-1.4,1.5l1.8-1.2l1.9,1.1l-1.5-1.4l1.4-1.5l-1.8,1.2l-1.9-1.1L277.2,400.1z"/>
	</g>
	<g class="st5">
		<g class="st5">
			<path class="st0" d="M794.1,631.4l-0.8,0.8l1-0.7l1,0.6l-0.8-0.8l0.8-0.8l-1,0.7l-1-0.6L794.1,631.4z"/>
		</g>
	</g>
	<g>
		<path class="st0" d="M333.4,332.1l-0.7,0.8l0.9-0.6l0.9,0.6l-0.8-0.7l0.7-0.8l-0.9,0.6l-0.9-0.6L333.4,332.1z"/>
	</g>
	<g class="st6">
		<path class="st0" d="M298.4,275.7l-1.4,1.4l1.7-1.2l1.8,1.1l-1.5-1.4l1.4-1.5l-1.7,1.2l-1.8-1.1L298.4,275.7z"/>
	</g>
	<g class="st1">
		<g class="st1">
			<path class="st0" d="M284.4,363.6l-4.1,0.5l4.1,0.3l0.6,3.3l0.4-3.3l4.1-0.5l-4.1-0.3l-0.6-3.3L284.4,363.6z"/>
		</g>
	</g>
	<g class="st1">
		<g class="st1">
			<path class="st0" d="M762.7,526.5l-4.1,0.5l4.1,0.3l0.6,3.3l0.4-3.3l4.1-0.5l-4.1-0.3l-0.6-3.3L762.7,526.5z"/>
		</g>
	</g>
	<g>
		<path class="st0" d="M396.4,265.3l-1.2,1.3l1.5-1.1l1.6,1l-1.3-1.2l1.2-1.3l-1.5,1l-1.6-1L396.4,265.3z"/>
	</g>
	<g class="st3">
		<g class="st3">
			<path class="st0" d="M406.5,333.7l-1.9,2.1l2.5-1.7l2.6,1.6l-2.1-2l1.9-2.1l-2.5,1.7l-2.6-1.6L406.5,333.7z"/>
		</g>
	</g>
	<g class="st1">
		<g class="st1">
			<path class="st0" d="M395.5,320.1l-0.8,0.8l1-0.7l1,0.6l-0.8-0.8l0.8-0.8l-1,0.7l-1-0.6L395.5,320.1z"/>
		</g>
	</g>
	<g>
		<path class="st0" d="M348,280.5l-1.4,1.5l1.7-1.2l1.8,1.1l-1.5-1.4l1.3-1.5l-1.7,1.2l-1.8-1.1L348,280.5z"/>
	</g>
	<g>
		<path class="st0" d="M258.7,318.5l-1.4,1.5l1.8-1.2l1.9,1.1l-1.5-1.4l1.4-1.5l-1.8,1.2l-1.9-1.1L258.7,318.5z"/>
	</g>
	<g class="st5">
		<g class="st5">
			<path class="st0" d="M360.5,222.3l-1.6,1.7l2-1.4l2.1,1.3l-1.7-1.6l1.6-1.7l-2,1.4l-2.1-1.3L360.5,222.3z"/>
		</g>
	</g>
</g>
<g>
	<g class="st4">
		<g class="st4">
			<path class="st0" d="M1210.6,245.7l-1.9-1.1l1.5,1.4l-1.4,1.5l1.8-1.2l1.9,1.1l-1.5-1.4l1.4-1.5L1210.6,245.7z"/>
		</g>
	</g>
</g>
<g>
	<g>
		<path class="st0" d="M251,324.7l-0.2-1.3l-0.1,1.3l-1.6,0.2l1.6,0.1l0.3,1.3l0.1-1.3l1.6-0.2L251,324.7z"/>
	</g>
	<g>
		<path class="st0" d="M250.8,324.7l-2.1-1.3l1.9,1.5l-2.1,2l2.3-1.9l2.4,1.7l-2.2-1.8l1.8-1.7L250.8,324.7z"/>
	</g>
	<g>
		<path class="st0" d="M473.2,214.3l-1.6-1l1.3,1.2l-1.2,1.3l1.5-1l1.6,1l-1.3-1.2l1.2-1.3L473.2,214.3z"/>
	</g>
	<g class="st1">
		<g class="st1">
			<path class="st0" d="M271,254.3l-2.6-1.6l2.1,2l-2,2.1l2.5-1.7l2.6,1.6l-2.1-2l1.9-2.1L271,254.3z"/>
		</g>
	</g>
	<g>
		<path class="st0" d="M529.7,175.1l-1.9-1.1l1.5,1.4l-1.4,1.5l1.8-1.2l1.9,1.1l-1.5-1.4l1.4-1.5L529.7,175.1z"/>
	</g>
	<g class="st2">
		<g class="st2">
			<path class="st0" d="M596.9,177.2l-2.6-1.6l2.1,2l-1.9,2.1l2.5-1.7l2.6,1.6l-2.1-2l1.9-2.1L596.9,177.2z"/>
		</g>
	</g>
	<g class="st3">
		<g class="st3">
			<path class="st0" d="M331.2,310l-2.6-1.6l2.1,2l-1.9,2.1l2.5-1.7l2.6,1.6l-2.1-2l1.9-2.1L331.2,310z"/>
		</g>
	</g>
	<g class="st4">
		<g class="st4">
			<path class="st0" d="M334.3,375.5l-1.9-1.1l1.5,1.4l-1.4,1.5l1.8-1.2l1.9,1.1l-1.5-1.4l1.4-1.5L334.3,375.5z"/>
		</g>
	</g>
	<g>
		<path class="st0" d="M385.8,421l-0.9-0.6l0.8,0.7l-0.7,0.8l0.9-0.6l0.9,0.6l-0.8-0.7l0.7-0.8L385.8,421z"/>
	</g>
	<g class="st1">
		<g class="st1">
			<path class="st0" d="M348.1,301.1l-1-0.6l0.8,0.8l-0.8,0.8l1-0.7l1,0.6l-0.8-0.8l0.8-0.8L348.1,301.1z"/>
		</g>
	</g>
	<g class="st3">
		<g class="st3">
			<path class="st0" d="M405.7,193.7l-1.9-1.1l1.5,1.4l-1.4,1.5l1.8-1.2l1.9,1.1L406,194l1.4-1.5L405.7,193.7z"/>
		</g>
	</g>
	<g>
		<path class="st0" d="M319.2,263.7l-1.9-1.1l1.5,1.4l-1.4,1.5l1.8-1.2l1.9,1.1l-1.5-1.4l1.4-1.5L319.2,263.7z"/>
	</g>
	<g>
		<path class="st0" d="M535.8,290l-1-0.6l0.8,0.8l-0.8,0.8l1-0.7l1,0.6l-0.8-0.8l0.8-0.8L535.8,290z"/>
	</g>
	<g>
		<path class="st0" d="M547,246.4l-1.9-1.1l1.5,1.4l-1.4,1.5l1.8-1.2l1.9,1.1l-1.5-1.4l1.4-1.5L547,246.4z"/>
	</g>
	<g class="st1">
		<g class="st1">
			<path class="st0" d="M380,165l-1.9-1.1l1.5,1.4l-1.4,1.5l1.8-1.2l1.9,1.1l-1.5-1.4l1.4-1.5L380,165z"/>
		</g>
	</g>
	<g>
		<path class="st0" d="M397.2,262.8l-1.8-1.1l1.5,1.4l-1.3,1.5l1.7-1.2l1.8,1.1l-1.5-1.4l1.4-1.5L397.2,262.8z"/>
	</g>
	<g>
		<path class="st0" d="M335.9,210.8l-1-0.6l0.8,0.8l-0.8,0.8l1-0.7l1,0.6l-0.8-0.8l0.8-0.8L335.9,210.8z"/>
	</g>
	<g>
		<path class="st0" d="M439.2,317.9l-1.2-0.7l1,0.9l-0.9,1l1.2-0.8l1.2,0.7l-1-0.9l0.9-1L439.2,317.9z"/>
	</g>
	<g>
		<path class="st0" d="M441.9,154.8l-2.6-1.6l2.1,2l-1.9,2.1l2.5-1.7l2.6,1.6l-2.1-2l1.9-2.1L441.9,154.8z"/>
	</g>
	<g>
		<path class="st0" d="M313.6,445l-1.9-1.1l1.5,1.4l-1.4,1.5l1.8-1.2l1.9,1.1l-1.5-1.4l1.4-1.5L313.6,445z"/>
	</g>
	<g>
		<path class="st0" d="M175.3,295l-2.1-1.3l1.7,1.6l-1.6,1.7l2-1.4l2.1,1.3l-1.7-1.6l1.6-1.7L175.3,295z"/>
	</g>
	<g>
		<path class="st0" d="M469.5,272.9l-2.1-1.3l1.7,1.6l-1.6,1.7l2-1.4l2.1,1.3l-1.7-1.6l1.6-1.7L469.5,272.9z"/>
	</g>
	<g>
		<path class="st0" d="M545.4,109.6l-1-0.6l0.8,0.8l-0.8,0.8l1-0.7l1,0.6l-0.8-0.8l0.8-0.8L545.4,109.6z"/>
	</g>
	<g class="st1">
		<g class="st1">
			<path class="st0" d="M490.9,93.8l-1.9-1.1l1.5,1.4l-1.4,1.5l1.8-1.2l1.9,1.1l-1.5-1.4l1.4-1.5L490.9,93.8z"/>
		</g>
	</g>
	<g>
		<path class="st0" d="M571.7,114.9l-1.8-1.1l1.5,1.4l-1.4,1.5l1.8-1.2l1.9,1.1l-1.5-1.4l1.4-1.5L571.7,114.9z"/>
	</g>
	<g class="st1">
		<g class="st1">
			<path class="st0" d="M308.7,508.4l-0.6-3.3l-0.4,3.3l-4.1,0.5l4.1,0.3l0.6,3.3l0.4-3.3l4.1-0.5L308.7,508.4z"/>
		</g>
		<g class="st1">
			<path class="st0" d="M308.1,507.9l-5.8-3.5l4.7,4.4l-4.3,4.7l5.5-3.8l5.8,3.5l-4.7-4.4l4.3-4.7L308.1,507.9z"/>
		</g>
	</g>
	<g class="st1">
		<g class="st1">
			<path class="st0" d="M419.1,295.7l-1.9-1.1l1.5,1.4l-1.4,1.5l1.8-1.2l1.9,1.1l-1.5-1.4l1.4-1.5L419.1,295.7z"/>
		</g>
	</g>
	<g>
		<path class="st0" d="M544.2,16.1l-1.9-1.1l1.5,1.4l-1.4,1.5l1.8-1.2l1.9,1.1l-1.5-1.4l1.4-1.5L544.2,16.1z"/>
	</g>
	<g class="st5">
		<g class="st5">
			<path class="st0" d="M257.1,432.5l-1-0.6l0.8,0.8l-0.8,0.8l1-0.7l1,0.6l-0.8-0.8l0.8-0.8L257.1,432.5z"/>
		</g>
	</g>
	<g>
		<path class="st0" d="M628.7,61.4l-0.9-0.6l0.8,0.7l-0.7,0.8l0.9-0.6l0.9,0.6l-0.8-0.7l0.7-0.8L628.7,61.4z"/>
	</g>
	<g class="st6">
		<path class="st0" d="M698.7,33.2l-1.8-1.1l1.5,1.4l-1.4,1.5l1.7-1.2l1.8,1.1l-1.5-1.4l1.4-1.4L698.7,33.2z"/>
	</g>
	<g class="st1">
		<g class="st1">
			<path class="st0" d="M589.6,21.9l-0.6-3.3l-0.4,3.3l-4.1,0.5l4.1,0.3l0.6,3.3l0.4-3.3l4.1-0.5L589.6,21.9z"/>
		</g>
	</g>
	<g class="st1">
		<g class="st1">
			<path class="st0" d="M433.6,474.5l-0.6-3.3l-0.4,3.3l-4.1,0.5l4.1,0.3l0.6,3.3l0.4-3.3l4.1-0.5L433.6,474.5z"/>
		</g>
	</g>
	<g>
		<path class="st0" d="M711.5,112.2l-1.6-1l1.3,1.2l-1.2,1.3l1.5-1l1.6,1l-1.3-1.2l1.2-1.3L711.5,112.2z"/>
	</g>
	<g class="st3">
		<g class="st3">
			<path class="st0" d="M626.7,120.3l-2.6-1.6l2.1,2l-1.9,2.1l2.5-1.7l2.6,1.6l-2.1-2l2-2.1L626.7,120.3z"/>
		</g>
	</g>
	<g class="st1">
		<g class="st1">
			<path class="st0" d="M643.6,111.4l-1-0.6l0.8,0.8l-0.8,0.8l1-0.7l1,0.6l-0.8-0.8l0.8-0.8L643.6,111.4z"/>
		</g>
	</g>
	<g>
		<path class="st0" d="M692.7,73.1l-1.8-1.1l1.5,1.4l-1.4,1.5l1.7-1.2l1.8,1.1l-1.5-1.4l1.4-1.5L692.7,73.1z"/>
	</g>
	<g>
		<path class="st0" d="M645.6,1.2l-1.9-1.1l1.5,1.4L643.8,3l1.8-1.2l1.9,1.1L646,1.5l1.4-1.5L645.6,1.2z"/>
	</g>
	<g class="st5">
		<g class="st5">
			<path class="st0" d="M765,83.2l-2.1-1.3l1.7,1.6l-1.6,1.7l2-1.4l2.1,1.3l-1.7-1.6l1.6-1.7L765,83.2z"/>
		</g>
	</g>
</g>
<g>
	<g>
		<path class="st0" d="M871.7,324.7l-0.2-1.3l-0.1,1.3l-1.6,0.2l1.6,0.1l0.3,1.3l0.1-1.3l1.6-0.2L871.7,324.7z"/>
	</g>
	<g>
		<path class="st0" d="M871.5,324.7l-2.1-1.3l1.9,1.5l-2.1,2l2.3-1.9l2.4,1.7l-2.2-1.8l1.8-1.7L871.5,324.7z"/>
	</g>
	<g>
		<path class="st0" d="M1093.9,214.3l-1.6-1l1.3,1.2l-1.2,1.3l1.5-1l1.6,1l-1.3-1.2l1.2-1.3L1093.9,214.3z"/>
	</g>
	<g class="st1">
		<g class="st1">
			<path class="st0" d="M891.7,254.3l-2.6-1.6l2.1,2l-2,2.1l2.5-1.7l2.6,1.6l-2.1-2l1.9-2.1L891.7,254.3z"/>
		</g>
	</g>
	<g>
		<path class="st0" d="M1150.4,175.1l-1.9-1.1l1.5,1.4l-1.4,1.5l1.8-1.2l1.9,1.1l-1.5-1.4l1.4-1.5L1150.4,175.1z"/>
	</g>
	<g class="st2">
		<g class="st2">
			<path class="st0" d="M1217.7,177.2l-2.6-1.6l2.1,2l-2,2.1l2.5-1.7l2.6,1.6l-2.1-2l1.9-2.1L1217.7,177.2z"/>
		</g>
	</g>
	<g class="st3">
		<g class="st3">
			<path class="st0" d="M951.9,310l-2.6-1.6l2.1,2l-2,2.1l2.5-1.7l2.6,1.6l-2.1-2l1.9-2.1L951.9,310z"/>
		</g>
	</g>
	<g class="st4">
		<g class="st4">
			<path class="st0" d="M955,375.5l-1.9-1.1l1.5,1.4l-1.4,1.5l1.8-1.2l1.9,1.1l-1.5-1.4l1.4-1.5L955,375.5z"/>
		</g>
	</g>
	<g>
		<path class="st0" d="M1006.6,421l-0.9-0.6l0.8,0.7l-0.7,0.8l0.9-0.6l0.9,0.6l-0.8-0.7l0.7-0.8L1006.6,421z"/>
	</g>
	<g class="st1">
		<g class="st1">
			<path class="st0" d="M968.8,301.1l-1-0.6l0.8,0.8l-0.8,0.8l1-0.7l1,0.6l-0.8-0.8l0.8-0.8L968.8,301.1z"/>
		</g>
	</g>
	<g class="st3">
		<g class="st3">
			<path class="st0" d="M1026.4,193.7l-1.9-1.1l1.5,1.4l-1.4,1.5l1.8-1.2l1.9,1.1l-1.5-1.4l1.4-1.5L1026.4,193.7z"/>
		</g>
	</g>
	<g>
		<path class="st0" d="M940,263.7l-1.9-1.1l1.5,1.4l-1.4,1.5l1.8-1.2l1.9,1.1l-1.5-1.4l1.4-1.5L940,263.7z"/>
	</g>
	<g>
		<path class="st0" d="M1156.6,290l-1-0.6l0.8,0.8l-0.8,0.8l1-0.7l1,0.6l-0.8-0.8l0.8-0.8L1156.6,290z"/>
	</g>
	<g>
		<path class="st0" d="M1167.7,246.4l-1.9-1.1l1.5,1.4l-1.4,1.5l1.8-1.2l1.9,1.1l-1.5-1.4l1.4-1.5L1167.7,246.4z"/>
	</g>
	<g class="st1">
		<g class="st1">
			<path class="st0" d="M1000.8,165l-1.9-1.1l1.5,1.4l-1.4,1.5l1.8-1.2l1.9,1.1l-1.5-1.4l1.4-1.5L1000.8,165z"/>
		</g>
	</g>
	<g>
		<path class="st0" d="M1017.9,262.8l-1.8-1.1l1.5,1.4l-1.3,1.5l1.7-1.2l1.8,1.1l-1.5-1.4l1.4-1.5L1017.9,262.8z"/>
	</g>
	<g>
		<path class="st0" d="M956.7,210.8l-1-0.6l0.8,0.8l-0.8,0.8l1-0.7l1,0.6l-0.8-0.8l0.8-0.8L956.7,210.8z"/>
	</g>
	<g>
		<path class="st0" d="M1060,317.9l-1.2-0.7l1,0.9l-0.9,1l1.2-0.8l1.2,0.7l-1-0.9l0.9-1L1060,317.9z"/>
	</g>
	<g>
		<path class="st0" d="M1062.6,154.8l-2.6-1.6l2.1,2l-1.9,2.1l2.5-1.7l2.6,1.6l-2.1-2l2-2.1L1062.6,154.8z"/>
	</g>
	<g>
		<path class="st0" d="M934.4,445l-1.9-1.1l1.5,1.4l-1.4,1.5l1.8-1.2l1.9,1.1l-1.5-1.4l1.4-1.5L934.4,445z"/>
	</g>
	<g>
		<path class="st0" d="M796,295l-2.1-1.3l1.7,1.6l-1.6,1.7l2-1.4l2.1,1.3l-1.7-1.6l1.6-1.7L796,295z"/>
	</g>
	<g>
		<path class="st0" d="M1090.3,272.9l-2.1-1.3l1.7,1.6l-1.6,1.7l2-1.4l2.1,1.3l-1.7-1.6l1.6-1.7L1090.3,272.9z"/>
	</g>
	<g>
		<path class="st0" d="M1166.2,109.6l-1-0.6l0.8,0.8l-0.8,0.8l1-0.7l1,0.6l-0.8-0.8l0.8-0.8L1166.2,109.6z"/>
	</g>
	<g class="st1">
		<g class="st1">
			<path class="st0" d="M1111.7,93.8l-1.9-1.1l1.5,1.4l-1.4,1.5l1.8-1.2l1.9,1.1l-1.5-1.4l1.4-1.5L1111.7,93.8z"/>
		</g>
	</g>
	<g>
		<path class="st0" d="M1192.4,114.9l-1.8-1.1l1.5,1.4l-1.4,1.5l1.8-1.2l1.9,1.1l-1.5-1.4l1.4-1.5L1192.4,114.9z"/>
	</g>
	<g class="st1">
		<g class="st1">
			<path class="st0" d="M929.4,508.4l-0.7-3.3l-0.4,3.3l-4.1,0.5l4.1,0.3l0.6,3.3l0.4-3.3l4.1-0.5L929.4,508.4z"/>
		</g>
		<g class="st1">
			<path class="st0" d="M928.9,507.9l-5.8-3.5l4.7,4.4l-4.3,4.7l5.5-3.8l5.8,3.5l-4.7-4.4l4.3-4.7L928.9,507.9z"/>
		</g>
	</g>
	<g class="st1">
		<g class="st1">
			<path class="st0" d="M1039.9,295.7l-1.9-1.1l1.5,1.4l-1.4,1.5l1.8-1.2l1.9,1.1l-1.5-1.4l1.4-1.5L1039.9,295.7z"/>
		</g>
	</g>
	<g>
		<path class="st0" d="M1164.9,16.1l-1.9-1.1l1.5,1.4l-1.4,1.5l1.8-1.2l1.9,1.1l-1.5-1.4l1.4-1.5L1164.9,16.1z"/>
	</g>
	<g class="st5">
		<g class="st5">
			<path class="st0" d="M877.8,432.5l-1-0.6l0.8,0.8l-0.8,0.8l1-0.7l1,0.6l-0.8-0.8l0.8-0.8L877.8,432.5z"/>
		</g>
	</g>
	<g>
		<path class="st0" d="M1249.4,61.4l-0.9-0.6l0.8,0.7l-0.7,0.8l0.9-0.6l0.9,0.6l-0.8-0.7l0.7-0.8L1249.4,61.4z"/>
	</g>
	<g class="st6">
		<path class="st0" d="M1319.4,33.2l-1.8-1.1l1.5,1.4l-1.4,1.5l1.7-1.2l1.8,1.1l-1.5-1.4l1.4-1.4L1319.4,33.2z"/>
	</g>
	<g class="st1">
		<g class="st1">
			<path class="st0" d="M1210.4,21.9l-0.6-3.3l-0.4,3.3l-4.1,0.5l4.1,0.3l0.7,3.3l0.4-3.3l4.1-0.5L1210.4,21.9z"/>
		</g>
	</g>
	<g class="st1">
		<g class="st1">
			<path class="st0" d="M1054.4,474.5l-0.7-3.3l-0.4,3.3l-4.1,0.5l4.1,0.3l0.7,3.3l0.4-3.3l4.1-0.5L1054.4,474.5z"/>
		</g>
	</g>
	<g>
		<path class="st0" d="M1332.3,112.2l-1.6-1l1.3,1.2l-1.2,1.3l1.5-1l1.6,1l-1.3-1.2l1.2-1.3L1332.3,112.2z"/>
	</g>
	<g class="st3">
		<g class="st3">
			<path class="st0" d="M1247.4,120.3l-2.6-1.6l2.1,2l-2,2.1l2.5-1.7l2.6,1.6l-2.1-2l1.9-2.1L1247.4,120.3z"/>
		</g>
	</g>
	<g class="st1">
		<g class="st1">
			<path class="st0" d="M1264.4,111.4l-1-0.6l0.8,0.8l-0.8,0.8l1-0.7l1,0.6l-0.8-0.8l0.8-0.8L1264.4,111.4z"/>
		</g>
	</g>
	<g>
		<path class="st0" d="M1313.5,73.1l-1.8-1.1l1.5,1.4l-1.3,1.5l1.7-1.2l1.8,1.1l-1.5-1.4l1.3-1.5L1313.5,73.1z"/>
	</g>
	<g>
		<path class="st0" d="M1266.3,1.2l-1.9-1.1l1.5,1.4l-1.4,1.5l1.8-1.2l1.9,1.1l-1.5-1.4l1.4-1.5L1266.3,1.2z"/>
	</g>
	<g class="st5">
		<g class="st5">
			<path class="st0" d="M1385.8,83.2l-2.1-1.3l1.7,1.6l-1.6,1.7l2-1.4l2.1,1.3l-1.7-1.6l1.6-1.7L1385.8,83.2z"/>
		</g>
	</g>
</g>
</svg>
