<svg width="73" height="73" viewBox="0 0 73 73" fill="none" xmlns="http://www.w3.org/2000/svg">
<path d="M26.2344 52.4688H30.7969V69.5781H26.2344V52.4688Z" fill="#B100CE"/>
<path d="M33.0781 69.5781H37.6406V45.625L33.0781 51.708V69.5781Z" fill="#B100CE"/>
<path d="M39.9219 43.3438H44.4844V69.5781H39.9219V43.3438Z" fill="#B100CE"/>
<path d="M10.2657 69.5789V62.1865L3.79718 69.5789H10.2657Z" fill="#B100CE"/>
<path d="M12.5469 69.5784H17.1094V54.3647L12.5469 59.5785V69.5784Z" fill="#B100CE"/>
<path d="M19.3906 52.4688H23.9531V69.5781H19.3906V52.4688Z" fill="#B100CE"/>
<path d="M46.7657 43.3432V69.5776H51.3282V41.5342L49.5191 43.3432H46.7657Z" fill="#B100CE"/>
<path d="M54.75 7.98438C49.0891 7.98438 44.4844 12.5891 44.4844 18.25C44.4844 23.9109 49.0891 28.5156 54.75 28.5156C60.411 28.5156 65.0157 23.9109 65.0157 18.25C65.0157 12.5891 60.411 7.98438 54.75 7.98438ZM59.3125 15.9688H57.0313V14.8281H53.6094C52.9798 14.8281 52.4688 15.3391 52.4688 15.9688C52.4688 16.5984 52.9798 17.1094 53.6094 17.1094H55.8907C57.7772 17.1094 59.3125 18.6447 59.3125 20.5312C59.3125 22.4178 57.7772 23.9531 55.8907 23.9531V26.2344H53.6094V23.9531H50.1875V20.5312H52.4688V21.6719H55.8907C56.5203 21.6719 57.0313 21.1609 57.0313 20.5312C57.0313 19.9016 56.5203 19.3906 55.8907 19.3906H53.6094C51.7228 19.3906 50.1875 17.8553 50.1875 15.9688C50.1875 14.0822 51.7228 12.5469 53.6094 12.5469V10.2656H55.8907V12.5469H59.3125V15.9688Z" fill="#B100CE"/>
<path d="M53.6094 39.2532V69.5778H58.1719V35.0146C58.0464 35.0397 57.9164 35.05 57.7898 35.0728L53.6094 39.2532Z" fill="#B100CE"/>
<path d="M54.75 3.42188C46.574 3.42188 39.9219 10.074 39.9219 18.25C39.9219 26.426 46.574 33.0781 54.75 33.0781C62.926 33.0781 69.5782 26.426 69.5782 18.25C69.5782 10.074 62.926 3.42188 54.75 3.42188ZM54.75 30.7969C47.8321 30.7969 42.2032 25.1679 42.2032 18.25C42.2032 11.3321 47.8321 5.70312 54.75 5.70312C61.6679 5.70312 67.2969 11.3321 67.2969 18.25C67.2969 25.1679 61.6679 30.7969 54.75 30.7969Z" fill="#B100CE"/>
<path d="M60.4532 69.5783H65.0157V31.9058C63.6401 32.9426 62.1059 33.7752 60.4532 34.3615V69.5783Z" fill="#B100CE"/>
<path d="M7.98438 43.3438H10.2656V38.7812H12.5469V25.0938H10.2656V20.5312H7.98438V25.0938H5.70312V38.7812H7.98438V43.3438Z" fill="#B100CE"/>
<path d="M17.1094 37.6406H19.3906V33.0781H21.6719V21.6719H19.3906V17.1094H17.1094V21.6719H14.8281V33.0781H17.1094V37.6406Z" fill="#B100CE"/>
<path d="M26.2344 29.6562H28.5156V25.0938H30.7969V15.9688H28.5156V11.4062H26.2344V15.9688H23.9531V25.0938H26.2344V29.6562Z" fill="#B100CE"/>
<path d="M51.0681 34.9511C50.2172 34.764 49.3937 34.5074 48.5941 34.1982L46.2934 36.5H37.1228L29.1384 45.625H15.4692L1.44406 60.8193L3.11964 62.3672L16.4672 47.9063H30.1741L38.1585 38.7813H47.2379L51.0681 34.9511Z" fill="#B100CE"/>
</svg>
